<?xml version="1.0" encoding="UTF-8" standalone="no"?>
<!-- Created with Inkscape (http://www.inkscape.org/) -->

<svg
   xmlns:dc="http://purl.org/dc/elements/1.1/"
   xmlns:cc="http://creativecommons.org/ns#"
   xmlns:rdf="http://www.w3.org/1999/02/22-rdf-syntax-ns#"
   xmlns:svg="http://www.w3.org/2000/svg"
   xmlns="http://www.w3.org/2000/svg"
   xmlns:sodipodi="http://sodipodi.sourceforge.net/DTD/sodipodi-0.dtd"
   xmlns:inkscape="http://www.inkscape.org/namespaces/inkscape"
   width="1050"
   height="310"
   id="svg2"
   version="1.1"
   inkscape:version="0.48.4 r9939"
   sodipodi:docname="Aufkleber_Freifunk_GT.pdf"
   inkscape:export-filename="/home/floh1111/Bilder/Freifunk/Aufkleber/aufkleber_hier_gibt_es_freifunk_2.png"
   inkscape:export-xdpi="90"
   inkscape:export-ydpi="90">
  <defs
     id="defs4" />
  <sodipodi:namedview
     id="base"
     pagecolor="#ffffff"
     bordercolor="#666666"
     borderopacity="1.0"
     inkscape:pageopacity="1"
     inkscape:pageshadow="2"
     inkscape:zoom="1.35"
     inkscape:cx="393.01604"
     inkscape:cy="143.35037"
     inkscape:document-units="px"
     inkscape:current-layer="layer1"
     showgrid="false"
     inkscape:window-width="1600"
     inkscape:window-height="824"
     inkscape:window-x="0"
     inkscape:window-y="24"
     inkscape:window-maximized="1" />
  <metadata
     id="metadata7">
    <rdf:RDF>
      <cc:Work
         rdf:about="">
        <dc:format>image/svg+xml</dc:format>
        <dc:type
           rdf:resource="http://purl.org/dc/dcmitype/StillImage" />
        <dc:title></dc:title>
      </cc:Work>
    </rdf:RDF>
  </metadata>
  <g
     inkscape:label="Ebene 1"
     inkscape:groupmode="layer"
     id="layer1"
     transform="translate(0, -742.362)">
    <path
       style="fill:none;stroke:#dc0067;stroke-width:52.2666893px;stroke-linecap:butt;stroke-linejoin:miter;stroke-opacity:1"
       d="m 646.15385,867.66987 -653.8461577,0"
       id="path3104"
       inkscape:connector-curvature="0" />
    <circle
       cx="36"
       cy="54"
       r="22"
       id="circle4-6"
       sodipodi:cx="36"
       sodipodi:cy="54"
       sodipodi:rx="22"
       sodipodi:ry="22"
       style="fill:#ffffff;fill-opacity:1;stroke:#ffffff;stroke-width:1px;stroke-opacity:1"
       transform="matrix(5.52413, 0, 0, 5.52413, 514.011, 644.564)"
       d="M 58,54 C 58,66.150264 48.150264,76 36,76 23.849736,76 14,66.150264 14,54 14,41.849736 23.849736,32 36,32 c 12.150264,0 22,9.849736 22,22 z" />
    <circle
       cx="36"
       cy="54"
       r="22"
       id="circle4"
       sodipodi:cx="36"
       sodipodi:cy="54"
       sodipodi:rx="22"
       sodipodi:ry="22"
       style="fill:none;stroke:#dc0067;stroke-width:1px"
       transform="matrix(4.55969, 0, 0, 4.55969, 546.721, 695.743)"
       d="M 58,54 C 58,66.150264 48.150264,76 36,76 23.849736,76 14,66.150264 14,54 14,41.849736 23.849736,32 36,32 c 12.150264,0 22,9.849736 22,22 z" />
    <circle
       cx="74"
       cy="44"
       r="22"
       id="circle6"
       sodipodi:cx="74"
       sodipodi:cy="44"
       sodipodi:rx="22"
       sodipodi:ry="22"
       style="fill:none;stroke:#dc0067;stroke-width:1px"
       transform="matrix(4.55969, 0, 0, 4.55969, 546.721, 695.743)"
       d="M 96,44 C 96,56.150264 86.150264,66 74,66 61.849736,66 52,56.150264 52,44 52,31.849736 61.849736,22 74,22 c 12.150264,0 22,9.849736 22,22 z" />
    <path
       style="fill:#000000"
       d="m 949.86911,1007.2842 c -1.89717,0.2717 3.7208,9.1257 -5.20618,8.9819 -5.774,-0.093 -11.58478,-0.1851 -12.91279,-0.2046 -1.32802,-0.02 -6.71363,-0.1131 -11.96793,-0.2078 -5.25436,-0.095 -10.07306,-0.1411 -10.70818,-0.103 -0.63519,0.038 -1.72174,0.051 -2.41463,0.029 -0.69283,-0.022 -16.28267,-0.1301 -34.64402,-0.2406 -38.40231,1.0423 -64.9006,-3.924 -69.28401,-8.8188 -11.32983,2.4244 -33.58697,-38.49408 -4.11957,-49.96333 0.87599,0 1.17968,-0.10831 1.77894,-0.63447 0.39744,-0.34898 1.25211,-0.81666 1.89926,-1.0393 0.64714,-0.22267 1.44885,-0.56562 1.78156,-0.76216 0.56501,-0.33378 0.66216,-0.33444 1.47172,-0.0104 0.47674,0.19073 1.30312,0.34682 1.83639,0.34682 0.83936,0 1.09198,0.11282 1.88072,0.83987 0.50115,0.46189 0.99354,0.83981 1.09421,0.83981 0.10067,0 0.59885,-0.28173 1.10699,-0.62604 0.56834,-0.38511 1.19743,-0.62756 1.63447,-0.6299 0.39079,0 1.06638,-0.11044 1.50135,-0.24075 1.24462,-0.37289 2.52335,-0.0786 3.57661,0.82304 l 0.90953,0.77865 3.00162,0.0337 c 1.65088,0.0188 3.05479,-0.0523 3.11977,-0.15747 0.24963,-0.40387 0.66754,-0.14989 1.62288,0.98638 0.55584,0.66112 0.99009,1.39075 0.99009,1.66361 0,0.62901 0.96802,1.77801 1.49797,1.77801 0.84308,0 1.40047,-0.89121 1.55816,-2.4914 0.18811,-1.90902 0.39696,-2.09631 1.83658,-1.64691 1.26342,0.39439 4.06866,0.28444 5.02187,-0.19686 1.67094,-0.84365 1.07985,-2.61959 -1.30191,-3.91159 -0.64385,-0.34924 -0.6804,-0.42829 -0.57193,-1.23696 0.0904,-0.67411 0.34741,-1.09953 1.16994,-1.93651 1.26449,-1.28672 1.4337,-1.6966 1.46101,-3.53908 0.0305,-2.05795 0.18868,-2.25776 1.78735,-2.25776 1.70539,0 3.22242,-0.71735 3.99916,-1.89109 0.65394,-0.98815 1.33153,-1.36372 2.79851,-1.55099 1.0456,-0.13348 1.13221,-0.10599 1.92726,0.61231 0.75505,0.68215 0.97536,0.76257 2.36959,0.86498 1.76544,0.12964 4.46041,0.62538 5.01578,0.9226 0.20796,0.11129 0.92759,0.20295 1.59921,0.20374 0.86527,0 1.40463,0.12294 1.85098,0.41854 0.86347,0.57187 1.49231,0.53094 1.92217,-0.12515 0.30299,-0.46239 0.32325,-0.70914 0.13371,-1.62721 -0.18427,-0.89243 -0.16502,-1.19261 0.10977,-1.71205 0.48389,-0.91479 0.63041,-2.44413 0.87494,-9.13344 0.12031,-3.29119 0.29785,-7.30677 0.39452,-8.92348 0.10315,-1.72481 0.0968,-3.2262 -0.0155,-3.63328 -0.13726,-0.49792 -0.10282,-0.94248 0.12197,-1.57473 0.51105,-1.43752 0.6419,-4.00653 0.8041,-15.78841 0.0306,-2.22371 -0.0226,-2.6502 -0.45356,-3.63207 -0.42029,-0.95769 -0.45613,-1.22066 -0.25753,-1.88968 0.32173,-1.08371 0.51332,-5.53013 0.33368,-7.74396 l -0.14985,-1.84696 -1.09337,-1.15718 c -0.60137,-0.63643 -1.22432,-1.39337 -1.38434,-1.68208 -0.24294,-0.43822 -0.29095,-4.28782 -0.29095,-23.33245 l 0,-22.80762 -0.95507,-1.0233 c -0.52529,-0.56282 -1.34814,-1.5902 -1.82856,-2.28309 -0.48042,-0.69288 -1.06423,-1.49599 -1.29737,-1.78468 -0.23313,-0.28871 -0.42597,-0.68242 -0.42854,-0.87492 -0.005,-0.40143 2.71522,-4.51747 3.41444,-5.16581 0.25586,-0.23726 2.06519,-1.05977 4.02069,-1.82782 1.95548,-0.76805 4.12864,-1.68408 4.82918,-2.03561 0.96867,-0.4861 1.68581,-0.67259 2.99471,-0.77879 1.26681,-0.10278 1.87965,-0.25697 2.3224,-0.58428 0.33076,-0.24455 1.20981,-0.74784 1.95341,-1.1184 0.74352,-0.37056 1.77712,-1.08388 2.29676,-1.58515 0.51964,-0.50127 1.67965,-1.2856 2.57781,-1.74296 0.89817,-0.45736 1.7798,-0.95341 1.95923,-1.10233 0.26681,-0.22141 0.40835,-0.21947 0.77686,0.0106 0.24784,0.15478 1.11414,0.55471 1.92511,0.88873 0.85894,0.35377 1.8251,0.94916 2.31435,1.42617 0.68155,0.66452 1.19601,0.92015 2.72957,1.35628 1.03928,0.29558 2.22037,0.67061 2.62452,0.83341 0.795,0.32021 2.91894,0.87972 4.36734,1.1505 0.49653,0.0928 1.19013,0.38117 1.5412,0.64074 0.35107,0.25957 2.49313,1.20705 4.76007,2.10552 2.26694,0.89846 4.18337,1.76328 4.25866,1.92183 0.63435,1.33581 1.87097,4.80877 1.87048,5.25317 0,0.37997 -0.24952,0.77205 -0.788,1.2401 -0.43301,0.37645 -1.29503,1.26021 -1.91545,1.96392 l -1.12815,1.27946 0.13895,8.92347 c 0.0764,4.90791 0.22753,9.30142 0.33574,9.76334 0.11177,0.47696 0.19896,6.88212 0.20183,14.82369 l 0.007,13.98382 -1.04166,0.95954 c -0.57294,0.52774 -1.10153,1.19798 -1.17465,1.48943 -0.0732,0.29145 -0.0952,2.30669 -0.0491,4.47832 0.0651,3.04689 0.17529,4.27178 0.48343,5.36468 0.35772,1.26881 0.36872,1.50925 0.10547,2.3096 -0.34316,1.04345 -0.35499,4.14582 -0.0462,12.02145 0.11822,3.01285 0.32159,5.65161 0.47734,6.19393 0.18033,0.62783 0.27887,2.45948 0.29371,5.45907 0.0119,2.48282 0.13328,5.78977 0.26893,7.34877 0.13572,1.55894 0.35562,4.48796 0.48875,6.50885 0.19007,2.88528 0.33014,3.8477 0.65207,4.48151 0.36809,0.72467 0.38286,0.91287 0.14455,1.84272 -0.2115,0.82521 -0.2141,1.55718 -0.0126,3.60217 0.13901,1.41158 0.25064,3.70029 0.24798,5.08604 -0.007,2.6103 0.48036,9.39306 0.89235,12.47057 0.20449,1.52819 0.34239,1.90416 1.03717,2.8289 0.44072,0.58654 0.79963,1.11622 0.79753,1.17707 0,0.0609 -0.28552,0.5264 -0.62987,1.03459 -0.72903,1.07587 -0.78352,1.75487 -0.21542,2.68651 0.48015,0.78739 1.45766,1.05851 2.78596,0.77269 1.19095,-0.25624 1.77391,-1.05105 1.45071,-1.97803 -0.22866,-0.65609 -0.20114,-0.7101 0.90208,-1.7701 0.80943,-0.77773 1.17878,-1.31116 1.27941,-1.84781 0.18181,-0.96889 0.59346,-1.32678 1.88737,-1.64104 0.57594,-0.13989 1.37781,-0.33329 1.78203,-0.42986 1.73946,-0.41559 2.67887,-1.49974 2.43081,-2.80524 -0.4059,-2.1363 -0.41402,-2.06783 0.30773,-2.59972 l 0.67854,-0.50004 -0.13537,-1.76164 -0.13544,-1.76165 1.60254,-0.7303 c 0.88135,-0.40167 1.88883,-0.73029 2.23885,-0.73029 0.34996,0 0.9287,-0.21997 1.28607,-0.48879 0.35731,-0.26883 1.13775,-0.75195 1.73435,-1.07354 0.88667,-0.47805 1.2507,-0.56223 1.99465,-0.46106 3.80274,0.51698 4.05612,0.4693 5.81022,-1.09298 0.82504,-0.73488 0.9123,-0.90509 0.92588,-1.80718 0.0134,-0.88 -0.0709,-1.07456 -0.72385,-1.67281 -0.57069,-0.52282 -0.77336,-0.90641 -0.89011,-1.68485 -0.0831,-0.55434 -0.0679,-1.09111 0.0336,-1.19281 0.10169,-0.10166 1.03038,-0.43174 2.06378,-0.7335 1.42956,-0.41745 2.06321,-0.72492 2.64952,-1.28576 l 0.77056,-0.73713 3.03225,0.15159 c 2.72726,0.13634 3.1039,0.11257 3.74371,-0.23621 0.70788,-0.38594 3.39311,-0.54756 8.1102,-0.48813 1.35016,0.0171 1.57783,-0.0387 2.03855,-0.49958 0.28536,-0.28531 0.5829,-0.78672 0.66131,-1.11423 0.35369,-1.4784 1.18135,-1.53542 1.7867,-0.12306 0.23513,0.54851 0.5771,1.16267 0.75998,1.36477 0.4738,0.52365 1.51197,0.45422 2.41849,-0.16175 1.31246,-0.89196 1.89319,-0.89596 2.91646,-0.02 1.11485,0.95427 2.24333,1.03676 3.31965,0.24271 0.48843,-0.36044 0.80223,-0.46143 1.03817,-0.33425 0.56356,0.30401 1.21806,1.1293 1.42403,1.79563 0.1847,0.59774 0.72927,0.98196 2.38096,1.67969 0.2732,0.11548 0.65305,0.49341 0.84375,0.83986 0.29754,0.54036 0.46353,0.62719 1.16745,0.6109 0.45136,-0.0104 1.1402,-0.15221 1.53087,-0.31496 0.65777,-0.27416 0.72736,-0.26504 0.94477,0.12397 0.1291,0.23097 0.5979,0.76786 1.04162,1.19314 0.44382,0.42525 0.96349,1.08662 1.15483,1.46976 0.32589,0.65263 0.40739,0.69257 1.29269,0.63334 3.1216,-0.20881 4.4666,-0.14705 4.6962,0.21565 0.1761,0.27801 0.1394,0.51481 -0.1574,1.01727 -0.4891,0.82795 -0.3541,1.80857 0.5116,3.71794 1.1263,2.48386 1.5994,2.66094 3.1743,1.18785 0.7863,-0.73545 1.1574,-0.94292 1.5965,-0.89233 l 0.5721,0.0659 0.1689,2.93951 c 0.1868,3.25005 0.3427,3.68458 1.5241,4.24792 0.4003,0.19087 0.9065,0.65012 1.1251,1.02057 0.2724,0.46168 0.6182,0.71958 1.09932,0.81987 0.3859,0.0805 1.0074,0.32204 1.381,0.5369 0.3735,0.21489 1.0635,0.49412 1.5333,0.62064 1.216,0.32746 1.7485,0.91824 1.5776,1.75086 -0.4203,2.04874 -0.4299,1.99228 0.4901,2.86737 0.4751,0.45206 0.8639,0.90796 0.8639,1.01315 0,0.10516 -0.5457,0.25296 -1.2126,0.32842 -1.3783,0.15592 -2.467,0.72822 -2.8076,1.4758 -0.4156,0.91198 -0.069,1.49236 1.5258,2.55231 1.7639,1.22247 -36.77561,19.77715 -35.07431,19.97205 -15.461,18.42263 -11.36327,9.82813 -16.53998,15.52533 z"
       id="path3050"
       inkscape:connector-curvature="0"
       sodipodi:nodetypes="cscscccccccccscsscccccccsssscccssssscsccsccsscccsscccccscssccsssscsssscssssscssccscssscssssssccsscsscsscccscscccsccccsssccsccccsscssccsccssssscscccccsssscscscccccccsccccc">
      <desc
         id="desc3052">WasserTurm GT</desc>
    </path>
    <circle
       cx="74"
       cy="44"
       r="29"
       id="circle8"
       sodipodi:cx="74"
       sodipodi:cy="44"
       sodipodi:rx="29"
       sodipodi:ry="29"
       style="fill:none;stroke:#dc0067;stroke-width:6px"
       transform="matrix(4.55969, 0, 0, 4.55969, 546.721, 695.743)"
       d="M 103,44 C 103,60.016258 90.016258,73 74,73 57.983742,73 45,60.016258 45,44 45,27.983742 57.983742,15 74,15 c 16.016258,0 29,12.983742 29,29 z" />
    <polygon
       points="22,52 30,52 26,56 31,56 37,50 31,44 26,44 30,48 22,48 "
       id="polygon10"
       style="fill:#ffcb05"
       transform="matrix(4.55969, 0, 0, 4.55969, 546.721, 695.743)" />
    <text
       xml:space="preserve"
       style="font-size:42.82728577px;font-style:normal;font-weight:normal;line-height:125%;letter-spacing:0px;word-spacing:0px;fill:#000000;fill-opacity:1;stroke:none;font-family:Sans"
       x="10.649722"
       y="866.83112"
       id="text3906"
       sodipodi:linespacing="125%"
       transform="scale(1.0612635,0.94227307)"><tspan
         sodipodi:role="line"
         id="tspan3908"
         x="10.649722"
         y="866.83112"
         style="font-size:77.37833405000000653px;font-style:normal;font-variant:normal;font-weight:normal;font-stretch:normal;letter-spacing:2.61409855000000002px;word-spacing:4.81000471000000029px;font-family:Oswald;-inkscape-font-specification:Oswald"
         dx="0">Freifunk Gütersloh</tspan></text>
    <text
       xml:space="preserve"
       style="font-size:40.2212677px;font-style:normal;font-weight:normal;line-height:125.99999905%;letter-spacing:0px;word-spacing:0px;opacity:0.97000002;fill:#000000;fill-opacity:1;stroke:none;font-family:Sans"
       x="13.66442"
       y="890.21741"
       id="text3910"
       sodipodi:linespacing="126%"
       transform="scale(0.93801442,1.0660817)"><tspan
         sodipodi:role="line"
         id="tspan3912"
         x="13.66442"
         y="890.21741"
         style="font-size:48px;font-style:normal;font-variant:normal;font-weight:normal;font-stretch:normal;line-height:125.99999905000001377%;letter-spacing:1.39999998000000003px;word-spacing:7.44000864000000028px;font-family:Roboto;-inkscape-font-specification:Roboto">Freies WLAN – free WiFi</tspan></text>
    <text
       xml:space="preserve"
       style="font-size:25px;font-style:normal;font-weight:bold;line-height:125%;letter-spacing:0px;word-spacing:0px;fill:#000000;fill-opacity:1;stroke:none;font-family:Sans;-inkscape-font-specification:Sans Bold"
       x="12.685967"
       y="972.81793"
       id="text3914"
       sodipodi:linespacing="125%"
       transform="scale(0.98878455,1.0113427)"><tspan
         sodipodi:role="line"
         id="tspan3916"
         x="12.685967"
         y="972.81793"
         style="font-size:25px;font-style:normal;font-variant:normal;font-weight:bold;font-stretch:normal;font-family:Roboto;-inkscape-font-specification:Sans Bold">SSID: guetersloh.freifunk.net – kein Passwort erforderlich</tspan></text>
    <text
       xml:space="preserve"
       style="font-size:37.98145294px;font-style:normal;font-variant:normal;font-weight:normal;font-stretch:normal;line-height:116.00000858%;letter-spacing:0px;word-spacing:0px;fill:#000000;fill-opacity:1;stroke:none;font-family:Oswald;-inkscape-font-specification:Oswald"
       x="13.851516"
       y="1048.8622"
       id="text3918"
       sodipodi:linespacing="116.00001%"
       transform="scale(1.0137053,0.98647998)"
       inkscape:export-xdpi="90"
       inkscape:export-ydpi="90"><tspan
         sodipodi:role="line"
         id="tspan3920"
         x="13.851516"
         y="1048.8622"
         style="font-size:18px;font-style:normal;font-variant:normal;font-weight:normal;font-stretch:normal;line-height:116.00000858%;font-family:Oswald;-inkscape-font-specification:Oswald">Weitere Informationen und Nutzungsbedingungen:  http://guetersloh.freifunk.net</tspan></text>
    <text
       xml:space="preserve"
       style="font-size:40px;font-style:normal;font-weight:normal;line-height:125%;letter-spacing:0px;word-spacing:0px;fill:#000000;fill-opacity:1;stroke:none;font-family:Sans"
       x="17.948717"
       y="242.05128"
       id="text3784"
       sodipodi:linespacing="125%"
       transform="translate(0,742.362)"><tspan
         sodipodi:role="line"
         id="tspan3786"
         x="17.948717"
         y="242.05128" /></text>
    <text
       xml:space="preserve"
       style="font-size:17.57642746px;font-style:normal;font-variant:normal;font-weight:bold;font-stretch:normal;line-height:125%;letter-spacing:0px;word-spacing:0px;fill:#000000;fill-opacity:1;stroke:none;font-family:DejaVu Sans;-inkscape-font-specification:DejaVu Sans Bold"
       x="14.503961"
       y="984.93396"
       id="text3917"
       sodipodi:linespacing="125%"
       transform="scale(0.97646809,1.024099)"><tspan
         sodipodi:role="line"
         id="tspan3919"
         x="14.503961"
         y="984.93396"
         style="font-size:18px;font-style:normal;font-variant:normal;font-weight:normal;font-stretch:normal;font-family:Roboto;-inkscape-font-specification:Roboto" /></text>
  </g>
</svg>
