<?xml version="1.0" encoding="utf-8"?>
<!-- Generator: Adobe Illustrator 15.1.0, SVG Export Plug-In . SVG Version: 6.00 Build 0)  -->
<!DOCTYPE svg PUBLIC "-//W3C//DTD SVG 1.1//EN" "http://www.w3.org/Graphics/SVG/1.1/DTD/svg11.dtd">
<svg version="1.1" id="Ebene_1" xmlns="http://www.w3.org/2000/svg" xmlns:xlink="http://www.w3.org/1999/xlink" x="0px" y="0px"
	 width="595.28px" height="841.89px" viewBox="0 0 595.28 841.89" enable-background="new 0 0 595.28 841.89" xml:space="preserve">
<rect x="-7" y="-9.021" fill="#C5185C" width="610.283" height="642.882"/>
<g>
	<defs>
		<rect id="SVGID_1_" x="-8" y="-10.021" width="612.283" height="644.882"/>
	</defs>
	<clipPath id="SVGID_2_">
		<use xlink:href="#SVGID_1_"  overflow="visible"/>
	</clipPath>
	
		<rect x="-7" y="-9.021" clip-path="url(#SVGID_2_)" fill="none" stroke="#000000" stroke-width="2" stroke-miterlimit="10" width="610.283" height="642.882"/>
</g>
<g>
	<path fill="#FFFFFF" d="M46.095,486.36v53.756H32.681v-28.82c0-4.161-0.1-6.662-0.299-7.504c-0.199-0.841-0.747-1.478-1.644-1.909
		s-2.895-0.647-5.993-0.647h-1.328v-6.268c6.485-1.396,11.411-4.265,14.775-8.607H46.095z"/>
	<path fill="#FFFFFF" d="M60.239,529.159v10.957H50.112v-10.957H60.239z"/>
</g>
<g>
	<path fill="#FFED00" d="M128.89,486.36l-6.224,53.756h-17.452c-1.598-8.259-3.008-17.655-4.231-28.189
		c-0.558,4.517-1.857,13.913-3.899,28.189H79.731l-6.257-53.756h13.58l1.477,18.756l1.428,18.133
		c0.516-9.384,1.804-21.68,3.865-36.889h14.515c0.193,1.572,0.701,7.482,1.525,17.73l1.544,20.453
		c0.795-13.013,2.095-25.74,3.901-38.184H128.89z"/>
	<path fill="#FFED00" d="M145.625,486.36v42.998h8.5v10.758h-22.479V486.36H145.625z"/>
	<path fill="#FFED00" d="M183.375,486.36l7.994,53.756h-14.286l-0.75-9.662h-5l-0.84,9.662h-14.452l7.13-53.756H183.375z
		 M175.966,520.925c-0.708-6.089-1.417-13.614-2.129-22.578c-1.424,10.294-2.318,17.819-2.683,22.578H175.966z"/>
	<path fill="#FFED00" d="M224.954,486.36v53.756h-12.252l-7.271-24.438v24.438h-11.688V486.36h11.688l7.836,24.205V486.36H224.954z"
		/>
</g>
<g>
	<path fill="#FFFFFF" d="M272.524,518.866h-17.365v9.529c0,1.992,0.144,3.276,0.432,3.852c0.287,0.576,0.841,0.863,1.66,0.863
		c1.018,0,1.698-0.382,2.042-1.146c0.343-0.764,0.515-2.241,0.515-4.433v-5.811h12.717v3.254c0,2.723-0.172,4.814-0.515,6.275
		c-0.344,1.461-1.146,3.021-2.407,4.682s-2.861,2.905-4.798,3.735c-1.938,0.83-4.366,1.245-7.288,1.245
		c-2.834,0-5.335-0.41-7.504-1.229c-2.169-0.818-3.857-1.942-5.063-3.37c-1.207-1.428-2.042-2.999-2.507-4.715
		c-0.465-1.715-0.697-4.211-0.697-7.487v-12.85c0-3.852,0.52-6.89,1.561-9.114c1.04-2.225,2.745-3.929,5.113-5.113
		c2.368-1.184,5.091-1.776,8.168-1.776c3.763,0,6.867,0.714,9.313,2.142c2.445,1.428,4.161,3.32,5.146,5.678
		c0.984,2.357,1.478,5.673,1.478,9.944V518.866z M259.077,511.694v-3.221c0-2.279-0.122-3.752-0.365-4.416
		c-0.244-0.664-0.742-0.996-1.494-0.996c-0.93,0-1.506,0.282-1.727,0.847c-0.222,0.564-0.332,2.087-0.332,4.565v3.221H259.077z"/>
	<path fill="#FFFFFF" d="M290.72,486.36v7.006h-13.812v-7.006H290.72z M290.72,496.056v44.061h-13.812v-44.061H290.72z"/>
	<path fill="#FFFFFF" d="M309.181,496.056l-0.232,4.059c0.974-1.618,2.163-2.832,3.569-3.642c1.405-0.81,3.026-1.214,4.864-1.214
		c2.302,0,4.184,0.543,5.645,1.627c1.461,1.085,2.401,2.452,2.822,4.101c0.42,1.649,0.631,4.399,0.631,8.251v30.879h-13.414v-30.514
		c0-3.032-0.1-4.881-0.299-5.545s-0.753-0.996-1.66-0.996c-0.952,0-1.55,0.382-1.793,1.146c-0.244,0.764-0.365,2.806-0.365,6.126
		v29.783h-13.414v-44.061H309.181z"/>
	<path fill="#FFFFFF" d="M358.487,510.134h-11.887v-2.391c0-2.036-0.116-3.325-0.349-3.868c-0.232-0.542-0.813-0.813-1.743-0.813
		c-0.753,0-1.317,0.249-1.693,0.747c-0.377,0.498-0.564,1.245-0.564,2.241c0,1.351,0.094,2.341,0.282,2.972
		c0.188,0.631,0.752,1.323,1.693,2.075c0.94,0.753,2.872,1.849,5.794,3.287c3.896,1.904,6.452,3.697,7.67,5.379
		c1.217,1.683,1.826,4.129,1.826,7.338c0,3.586-0.465,6.292-1.395,8.118s-2.485,3.232-4.665,4.217
		c-2.181,0.984-4.81,1.478-7.886,1.478c-3.409,0-6.325-0.531-8.749-1.594s-4.09-2.501-4.997-4.316
		c-0.908-1.814-1.361-4.56-1.361-8.234v-2.125h11.887v2.789c0,2.369,0.149,3.907,0.448,4.615c0.299,0.709,0.891,1.062,1.776,1.062
		c0.951,0,1.615-0.237,1.992-0.714c0.376-0.476,0.564-1.478,0.564-3.005c0-2.103-0.244-3.42-0.73-3.951
		c-0.51-0.531-3.11-2.103-7.803-4.715c-3.94-2.213-6.342-4.222-7.205-6.026c-0.863-1.804-1.295-3.945-1.295-6.425
		c0-3.52,0.465-6.114,1.395-7.786c0.93-1.671,2.507-2.96,4.731-3.868c2.225-0.907,4.809-1.361,7.753-1.361
		c2.922,0,5.406,0.371,7.454,1.112c2.047,0.742,3.619,1.722,4.715,2.938c1.096,1.218,1.76,2.347,1.992,3.387
		c0.232,1.041,0.349,2.668,0.349,4.881V510.134z"/>
	<path fill="#FFFFFF" d="M392.753,512.69h-12.65v-5.08c0-1.771-0.145-2.972-0.432-3.603c-0.288-0.631-0.819-0.946-1.594-0.946
		c-0.775,0-1.295,0.277-1.561,0.83c-0.266,0.554-0.398,1.793-0.398,3.719v20.785c0,1.572,0.199,2.751,0.598,3.536
		c0.398,0.786,0.984,1.179,1.76,1.179c0.907,0,1.521-0.409,1.843-1.229c0.32-0.818,0.481-2.368,0.481-4.648v-5.246h11.953
		c-0.022,3.52-0.149,6.159-0.382,7.919s-0.975,3.564-2.225,5.412c-1.251,1.849-2.884,3.243-4.897,4.184
		c-2.015,0.94-4.505,1.411-7.471,1.411c-3.785,0-6.785-0.647-8.998-1.942c-2.214-1.295-3.78-3.109-4.698-5.445
		c-0.919-2.335-1.378-5.649-1.378-9.944v-12.518c0-3.74,0.376-6.562,1.129-8.467c0.752-1.903,2.357-3.603,4.814-5.097
		s5.445-2.241,8.965-2.241c3.497,0,6.485,0.742,8.965,2.225c2.479,1.483,4.128,3.354,4.947,5.611
		C392.343,505.353,392.753,508.552,392.753,512.69z"/>
	<path fill="#FFFFFF" d="M410.151,486.36v12.094c1.15-1.064,2.396-1.863,3.735-2.396c1.339-0.532,2.772-0.799,4.3-0.799
		c2.346,0,4.344,0.598,5.993,1.793c1.648,1.195,2.656,2.573,3.021,4.134s0.548,4.411,0.548,8.55v30.381h-13.414v-31.012
		c0-2.567-0.128-4.217-0.382-4.947c-0.255-0.73-0.825-1.096-1.71-1.096c-0.819,0-1.373,0.377-1.66,1.129
		c-0.288,0.753-0.432,2.247-0.432,4.482v31.443h-13.414V486.36H410.151z"/>
	<path fill="#FFFFFF" d="M444.351,513.122h-12.584v-2.955c0-3.408,0.393-6.037,1.179-7.886c0.785-1.848,2.362-3.48,4.731-4.897
		c2.368-1.416,5.445-2.125,9.23-2.125c4.537,0,7.957,0.803,10.26,2.407c2.302,1.605,3.686,3.575,4.15,5.91
		c0.465,2.336,0.697,7.145,0.697,14.427v22.113h-13.049v-3.926c-0.819,1.574-1.876,2.755-3.171,3.542s-2.839,1.181-4.632,1.181
		c-2.347,0-4.499-0.659-6.458-1.976s-2.938-4.2-2.938-8.649v-3.619c0-3.298,0.52-5.545,1.561-6.74
		c1.04-1.195,3.619-2.59,7.736-4.184c4.404-1.727,6.762-2.889,7.072-3.486c0.31-0.598,0.465-1.814,0.465-3.652
		c0-2.302-0.172-3.802-0.515-4.499c-0.344-0.697-0.913-1.046-1.71-1.046c-0.908,0-1.473,0.294-1.693,0.88
		c-0.222,0.587-0.332,2.108-0.332,4.565V513.122z M448.601,519.165c-2.147,1.572-3.393,2.889-3.735,3.951
		c-0.344,1.062-0.515,2.59-0.515,4.582c0,2.28,0.149,3.752,0.448,4.416s0.891,0.996,1.776,0.996c0.841,0,1.389-0.26,1.644-0.78
		c0.254-0.52,0.382-1.887,0.382-4.101V519.165z"/>
	<path fill="#FFFFFF" d="M480.442,486.36v53.756H466.63V486.36H480.442z"/>
	<path fill="#FFFFFF" d="M499.401,490.179v6.939h3.619v6.973h-3.619v23.574c0,2.9,0.149,4.516,0.448,4.848s1.544,0.498,3.735,0.498
		v7.105h-5.412c-3.055,0-5.235-0.127-6.541-0.382c-1.307-0.254-2.457-0.841-3.453-1.76c-0.996-0.918-1.616-1.97-1.859-3.154
		c-0.244-1.184-0.365-3.968-0.365-8.351v-22.379h-2.889v-6.973h2.889v-6.939H499.401z"/>
	<path fill="#FFFFFF" d="M536.356,518.866h-17.365v9.529c0,1.992,0.144,3.276,0.432,3.852c0.287,0.576,0.841,0.863,1.66,0.863
		c1.018,0,1.698-0.382,2.042-1.146c0.343-0.764,0.515-2.241,0.515-4.433v-5.811h12.717v3.254c0,2.723-0.172,4.814-0.515,6.275
		c-0.344,1.461-1.146,3.021-2.407,4.682s-2.861,2.905-4.798,3.735c-1.938,0.83-4.366,1.245-7.288,1.245
		c-2.834,0-5.335-0.41-7.504-1.229c-2.17-0.818-3.857-1.942-5.063-3.37c-1.207-1.428-2.042-2.999-2.507-4.715
		c-0.465-1.715-0.697-4.211-0.697-7.487v-12.85c0-3.852,0.52-6.89,1.561-9.114c1.04-2.225,2.744-3.929,5.113-5.113
		c2.368-1.184,5.091-1.776,8.168-1.776c3.763,0,6.867,0.714,9.313,2.142c2.445,1.428,4.161,3.32,5.146,5.678
		c0.984,2.357,1.478,5.673,1.478,9.944V518.866z M522.909,511.694v-3.221c0-2.279-0.122-3.752-0.365-4.416
		c-0.244-0.664-0.742-0.996-1.494-0.996c-0.93,0-1.506,0.282-1.727,0.847c-0.222,0.564-0.332,2.087-0.332,4.565v3.221H522.909z"/>
	<path fill="#FFFFFF" d="M554.386,496.056l-0.232,4.059c0.974-1.618,2.163-2.832,3.569-3.642c1.405-0.81,3.026-1.214,4.864-1.214
		c2.302,0,4.184,0.543,5.645,1.627c1.461,1.085,2.401,2.452,2.822,4.101c0.42,1.649,0.631,4.399,0.631,8.251v30.879h-13.414v-30.514
		c0-3.032-0.1-4.881-0.299-5.545s-0.753-0.996-1.66-0.996c-0.952,0-1.55,0.382-1.793,1.146c-0.244,0.764-0.365,2.806-0.365,6.126
		v29.783h-13.414v-44.061H554.386z"/>
</g>
<g>
	<path fill="#FFFFFF" d="M49.093,603.086v7.714H24.248l0.007-6.456C31.614,592.309,35.988,584.86,37.376,582
		c1.388-2.86,2.082-5.091,2.082-6.693c0-1.229-0.21-2.147-0.63-2.753s-1.059-0.908-1.917-0.908c-0.858,0-1.498,0.335-1.917,1.006
		c-0.42,0.671-0.63,2.003-0.63,3.996v4.305H24.248v-1.649c0-2.533,0.13-4.531,0.391-5.994c0.261-1.463,0.903-2.902,1.928-4.318
		c1.024-1.416,2.357-2.487,3.997-3.214s3.605-1.09,5.897-1.09c4.49,0,7.886,1.113,10.187,3.34c2.301,2.227,3.452,5.044,3.452,8.454
		c0,2.59-0.648,5.328-1.943,8.217c-1.295,2.888-5.11,9.018-11.445,18.389H49.093z"/>
	<path fill="#FFFFFF" d="M60.999,601.577v9.223h-8.524v-9.223H60.999z"/>
	<path fill="#FFFFFF" d="M74.609,580.113l-1.481-7.63v-6.931h8.552v6.931l-1.286,7.63H74.609z M85.202,580.113l-1.481-7.63v-6.931
		h8.552v6.931l-1.314,7.63H85.202z"/>
</g>
<g>
	<path fill="#FFED00" d="M95.601,565.553h19.927v9.055h-8.161v8.58h7.267v8.608h-7.267V610.8H95.601V565.553z"/>
	<path fill="#FFED00" d="M129.334,573.714l-0.447,4.876c1.639-3.492,4.015-5.342,7.126-5.547v13.051
		c-2.068,0-3.587,0.28-4.555,0.839c-0.969,0.559-1.565,1.337-1.789,2.334c-0.223,0.996-0.335,3.293-0.335,6.889V610.8h-11.291
		v-37.086H129.334z"/>
	<path fill="#FFED00" d="M164.101,592.913h-14.617v8.021c0,1.677,0.121,2.758,0.363,3.241c0.242,0.485,0.708,0.728,1.397,0.728
		c0.856,0,1.43-0.322,1.719-0.965c0.289-0.643,0.433-1.887,0.433-3.73v-4.892h10.704v2.739c0,2.292-0.145,4.053-0.434,5.282
		s-0.964,2.543-2.026,3.94s-2.408,2.445-4.039,3.145c-1.63,0.698-3.675,1.048-6.134,1.048c-2.385,0-4.491-0.345-6.316-1.034
		c-1.826-0.689-3.247-1.635-4.262-2.837c-1.016-1.201-1.719-2.524-2.11-3.969c-0.391-1.443-0.587-3.544-0.587-6.302v-10.815
		c0-3.242,0.438-5.8,1.313-7.672c0.875-1.872,2.31-3.307,4.304-4.304c1.993-0.997,4.285-1.495,6.875-1.495
		c3.167,0,5.78,0.601,7.839,1.803c2.059,1.201,3.502,2.794,4.332,4.778s1.244,4.775,1.244,8.37V592.913z M152.782,586.877v-2.711
		c0-1.919-0.103-3.158-0.308-3.717c-0.205-0.56-0.625-0.839-1.258-0.839c-0.782,0-1.267,0.237-1.453,0.713
		c-0.187,0.475-0.279,1.756-0.279,3.843v2.711H152.782z"/>
	<path fill="#FFED00" d="M179.416,565.553v5.896H167.79v-5.896H179.416z M179.416,573.714V610.8H167.79v-37.086H179.416z"/>
	<path fill="#FFED00" d="M197.861,565.553v5.729c-2.329,0-3.703,0.107-4.123,0.321c-0.419,0.214-0.628,0.824-0.628,1.83v1.174h4.751
		v5.869h-2.683V610.8h-11.291v-30.323h-2.32v-5.869h2.32c0-2.44,0.083-4.07,0.251-4.891c0.167-0.819,0.582-1.551,1.244-2.193
		c0.661-0.644,1.588-1.132,2.781-1.468c1.192-0.335,3.046-0.503,5.562-0.503H197.861z"/>
	<path fill="#FFED00" d="M225.865,573.714V610.8h-11.486l0.195-3.081c-0.782,1.251-1.747,2.188-2.893,2.813
		c-1.146,0.626-2.464,0.938-3.955,0.938c-1.695,0-3.102-0.299-4.22-0.895c-1.118-0.596-1.942-1.388-2.474-2.376
		c-0.531-0.987-0.862-2.016-0.992-3.088c-0.13-1.071-0.195-3.2-0.195-6.386v-25.013h11.291v25.236c0,2.888,0.088,4.602,0.266,5.143
		c0.177,0.54,0.657,0.811,1.439,0.811c0.838,0,1.336-0.28,1.495-0.839c0.158-0.559,0.237-2.356,0.237-5.394v-24.957H225.865z"/>
	<path fill="#FFED00" d="M241.403,573.714l-0.195,3.416c0.819-1.362,1.821-2.384,3.004-3.065c1.183-0.682,2.547-1.021,4.094-1.021
		c1.938,0,3.521,0.456,4.75,1.369c1.23,0.913,2.021,2.063,2.377,3.451c0.354,1.389,0.531,3.703,0.531,6.945V610.8h-11.292v-25.684
		c0-2.553-0.084-4.108-0.251-4.667c-0.168-0.56-0.634-0.839-1.397-0.839c-0.801,0-1.304,0.321-1.509,0.964
		c-0.205,0.644-0.307,2.362-0.307,5.156V610.8h-11.291v-37.086H241.403z"/>
	<path fill="#FFED00" d="M284.163,573.714l-4.583,14.77l5.953,22.316h-10.857l-3.521-16.164L271.14,610.8h-11.29v-45.247h11.29
		l0.015,18.994l3.521-10.833H284.163z"/>
</g>
<g>
	<path fill="#FFFFFF" d="M287.655,580.113l-1.481-7.63v-6.931h8.552v6.931l-1.285,7.63H287.655z M298.247,580.113l-1.48-7.63v-6.931
		h8.552v6.931l-1.313,7.63H298.247z"/>
	<path fill="#FFFFFF" d="M328.515,588.078h-10.593v-2.487c0-2.869,0.331-5.081,0.992-6.638c0.661-1.555,1.989-2.93,3.982-4.122
		c1.994-1.191,4.584-1.788,7.77-1.788c3.819,0,6.698,0.675,8.636,2.026c1.938,1.351,3.103,3.009,3.494,4.975
		c0.391,1.966,0.587,6.013,0.587,12.143V610.8h-10.983v-3.305c-0.689,1.325-1.579,2.319-2.669,2.981s-2.39,0.994-3.899,0.994
		c-1.975,0-3.786-0.555-5.436-1.663c-1.648-1.108-2.474-3.535-2.474-7.28v-3.046c0-2.776,0.438-4.668,1.313-5.674
		s3.047-2.18,6.513-3.521c3.707-1.453,5.691-2.432,5.952-2.935s0.392-1.527,0.392-3.074c0-1.938-0.145-3.2-0.434-3.787
		s-0.769-0.88-1.439-0.88c-0.764,0-1.239,0.247-1.425,0.74c-0.187,0.494-0.279,1.775-0.279,3.843V588.078z M332.092,593.165
		c-1.808,1.323-2.855,2.432-3.145,3.325c-0.289,0.895-0.433,2.181-0.433,3.857c0,1.919,0.126,3.158,0.377,3.717
		c0.252,0.559,0.75,0.839,1.495,0.839c0.708,0,1.169-0.219,1.384-0.657c0.214-0.438,0.321-1.588,0.321-3.451V593.165z"/>
	<path fill="#FFFFFF" d="M373.118,573.714V610.8h-11.486l0.196-3.081c-0.783,1.251-1.747,2.188-2.893,2.813
		c-1.146,0.626-2.465,0.938-3.955,0.938c-1.695,0-3.102-0.299-4.22-0.895s-1.942-1.388-2.474-2.376
		c-0.531-0.987-0.862-2.016-0.992-3.088c-0.131-1.071-0.195-3.2-0.195-6.386v-25.013h11.291v25.236c0,2.888,0.088,4.602,0.265,5.143
		c0.178,0.54,0.657,0.811,1.439,0.811c0.839,0,1.337-0.28,1.495-0.839s0.238-2.356,0.238-5.394v-24.957H373.118z"/>
	<path fill="#FFFFFF" d="M400.229,585.563h-10.006v-2.013c0-1.714-0.098-2.799-0.293-3.256c-0.196-0.456-0.685-0.685-1.468-0.685
		c-0.634,0-1.108,0.21-1.425,0.629c-0.317,0.419-0.476,1.048-0.476,1.887c0,1.137,0.079,1.97,0.238,2.501
		c0.157,0.531,0.633,1.113,1.425,1.747c0.792,0.633,2.418,1.556,4.877,2.767c3.279,1.603,5.431,3.111,6.456,4.527
		c1.024,1.416,1.537,3.475,1.537,6.177c0,3.018-0.392,5.296-1.174,6.833c-0.783,1.537-2.092,2.721-3.927,3.549
		c-1.835,0.829-4.048,1.244-6.638,1.244c-2.869,0-5.324-0.447-7.364-1.342s-3.442-2.105-4.206-3.633s-1.146-3.838-1.146-6.932
		v-1.788h10.005v2.348c0,1.994,0.126,3.288,0.377,3.885c0.252,0.597,0.75,0.895,1.496,0.895c0.801,0,1.359-0.2,1.677-0.602
		c0.316-0.4,0.475-1.243,0.475-2.529c0-1.77-0.205-2.878-0.614-3.325c-0.43-0.447-2.618-1.771-6.568-3.969
		c-3.316-1.863-5.338-3.554-6.064-5.072s-1.09-3.321-1.09-5.408c0-2.962,0.392-5.146,1.174-6.554
		c0.782-1.406,2.11-2.491,3.982-3.256c1.872-0.764,4.048-1.146,6.525-1.146c2.46,0,4.551,0.312,6.274,0.936
		c1.724,0.625,3.047,1.449,3.969,2.474c0.922,1.025,1.481,1.976,1.677,2.851c0.195,0.876,0.294,2.245,0.294,4.108V585.563z"/>
	<path fill="#FFFFFF" d="M440.612,573.714l-4.507,37.086h-12.255c-0.667-4.531-1.447-10.502-2.341-17.914
		c-0.306,3.261-0.729,6.55-1.269,9.865l-1.239,8.049h-12.283l-4.786-37.086h9.731c0.075,0.968,0.897,8.048,2.468,21.239
		c0.124-1.356,0.97-8.438,2.536-21.239h9.349l2.285,21.239c0.361-6.202,1.225-13.281,2.589-21.239H440.612z"/>
	<path fill="#FFFFFF" d="M452.519,588.078h-10.593v-2.487c0-2.869,0.331-5.081,0.992-6.638c0.661-1.555,1.989-2.93,3.982-4.122
		c1.994-1.191,4.584-1.788,7.77-1.788c3.819,0,6.698,0.675,8.636,2.026c1.938,1.351,3.103,3.009,3.494,4.975
		c0.391,1.966,0.587,6.013,0.587,12.143V610.8h-10.983v-3.305c-0.689,1.325-1.579,2.319-2.669,2.981s-2.39,0.994-3.899,0.994
		c-1.975,0-3.786-0.555-5.436-1.663c-1.648-1.108-2.474-3.535-2.474-7.28v-3.046c0-2.776,0.438-4.668,1.313-5.674
		s3.047-2.18,6.513-3.521c3.707-1.453,5.691-2.432,5.952-2.935s0.392-1.527,0.392-3.074c0-1.938-0.145-3.2-0.434-3.787
		s-0.769-0.88-1.439-0.88c-0.764,0-1.239,0.247-1.425,0.74c-0.187,0.494-0.279,1.775-0.279,3.843V588.078z M452.351,563.96v7.266
		h-7.294v-7.266H452.351z M456.096,593.165c-1.808,1.323-2.855,2.432-3.145,3.325c-0.289,0.895-0.433,2.181-0.433,3.857
		c0,1.919,0.126,3.158,0.377,3.717c0.252,0.559,0.75,0.839,1.495,0.839c0.708,0,1.169-0.219,1.384-0.657
		c0.214-0.438,0.321-1.588,0.321-3.451V593.165z M464.563,563.96v7.266h-7.294v-7.266H464.563z"/>
	<path fill="#FFFFFF" d="M482.562,565.553v10.18c0.969-0.896,2.017-1.568,3.145-2.018c1.127-0.447,2.333-0.672,3.619-0.672
		c1.975,0,3.656,0.503,5.045,1.509c1.388,1.006,2.235,2.166,2.543,3.479s0.461,3.713,0.461,7.196V610.8h-11.291v-26.103
		c0-2.161-0.107-3.55-0.321-4.165c-0.214-0.614-0.694-0.922-1.439-0.922c-0.689,0-1.155,0.317-1.397,0.95
		c-0.242,0.634-0.363,1.892-0.363,3.772V610.8h-11.29v-45.247H482.562z"/>
	<path fill="#FFFFFF" d="M512.885,565.553V610.8h-11.626v-45.247H512.885z"/>
	<path fill="#FFFFFF" d="M542.509,592.913h-14.616v8.021c0,1.677,0.121,2.758,0.363,3.241c0.242,0.485,0.708,0.728,1.397,0.728
		c0.856,0,1.43-0.322,1.719-0.965c0.288-0.643,0.433-1.887,0.433-3.73v-4.892h10.704v2.739c0,2.292-0.145,4.053-0.433,5.282
		c-0.289,1.229-0.965,2.543-2.026,3.94c-1.062,1.397-2.408,2.445-4.038,3.145c-1.631,0.698-3.676,1.048-6.135,1.048
		c-2.386,0-4.49-0.345-6.316-1.034s-3.247-1.635-4.262-2.837c-1.016-1.201-1.719-2.524-2.11-3.969
		c-0.392-1.443-0.587-3.544-0.587-6.302v-10.815c0-3.242,0.438-5.8,1.313-7.672s2.311-3.307,4.304-4.304
		c1.994-0.997,4.285-1.495,6.875-1.495c3.168,0,5.781,0.601,7.84,1.803c2.059,1.201,3.503,2.794,4.332,4.778
		c0.828,1.984,1.243,4.775,1.243,8.37V592.913z M531.19,586.877v-2.711c0-1.919-0.103-3.158-0.308-3.717
		c-0.205-0.56-0.624-0.839-1.258-0.839c-0.782,0-1.267,0.237-1.453,0.713c-0.187,0.475-0.279,1.756-0.279,3.843v2.711H531.19z"/>
	<path fill="#FFFFFF" d="M557.685,573.714l-0.196,3.416c0.82-1.362,1.821-2.384,3.005-3.065c1.183-0.682,2.548-1.021,4.094-1.021
		c1.938,0,3.521,0.456,4.751,1.369c1.23,0.913,2.021,2.063,2.376,3.451c0.354,1.389,0.531,3.703,0.531,6.945V610.8h-11.291v-25.684
		c0-2.553-0.084-4.108-0.252-4.667c-0.167-0.56-0.633-0.839-1.397-0.839c-0.801,0-1.304,0.321-1.509,0.964
		c-0.205,0.644-0.308,2.362-0.308,5.156V610.8h-11.29v-37.086H557.685z"/>
</g>
<g>
	<g>
		<defs>
			<rect id="SVGID_3_" x="21.116" y="119.341" width="383.208" height="305.985"/>
		</defs>
		<clipPath id="SVGID_4_">
			<use xlink:href="#SVGID_3_"  overflow="visible"/>
		</clipPath>
		<path clip-path="url(#SVGID_4_)" fill="#FFED00" d="M109.031,283.692l-0.07,0.041L109.031,283.692z M212.475,193.198
			c-50.015,0.18-99.93,18.932-138.191,56.116l34.747,34.378c57.351-55.717,149.658-56.055,207.405-0.736l34.677-34.677
			C312.573,211.354,262.489,193.02,212.475,193.198"/>
		<path clip-path="url(#SVGID_4_)" fill="none" stroke="#000000" stroke-miterlimit="10" d="M109.031,283.692l-0.07,0.041
			L109.031,283.692z M212.475,193.198c-50.015,0.18-99.93,18.932-138.191,56.116l34.747,34.378
			c57.351-55.717,149.658-56.055,207.405-0.736l34.677-34.677C312.573,211.354,262.489,193.02,212.475,193.198z"/>
		<path clip-path="url(#SVGID_4_)" fill="#FFED00" d="M56.31,231.339l-0.35,0.338L56.31,231.339z M212.424,119.843
			c-68.975,0.279-137.831,26.099-190.594,77.397l34.479,34.099c86.373-83.666,225.21-84.063,312.083-0.855l35.214-34.678
			C350.455,144.886,281.4,119.584,212.424,119.843"/>
		<path clip-path="url(#SVGID_4_)" fill="none" stroke="#000000" stroke-miterlimit="10" d="M56.31,231.339l-0.35,0.338
			L56.31,231.339z M212.424,119.843c-68.975,0.279-137.831,26.099-190.594,77.397l34.479,34.099
			c86.373-83.666,225.21-84.063,312.083-0.855l35.214-34.678C350.455,144.886,281.4,119.584,212.424,119.843z"/>
		<path clip-path="url(#SVGID_4_)" fill="#FFED00" d="M159.553,334.016l-0.039,0.041L159.553,334.016z M212.395,266.235
			c-31.134,0.119-62.228,11.785-86.046,34.956l33.204,32.824c29.332-28.485,76.541-28.625,106.083-0.337l33.084-33.145
			C274.712,277.541,243.538,266.135,212.395,266.235"/>
		<path clip-path="url(#SVGID_4_)" fill="none" stroke="#000000" stroke-miterlimit="10" d="M159.553,334.016l-0.039,0.041
			L159.553,334.016z M212.395,266.235c-31.134,0.119-62.228,11.785-86.046,34.956l33.204,32.824
			c29.332-28.485,76.541-28.625,106.083-0.337l33.084-33.145C274.712,277.541,243.538,266.135,212.395,266.235z"/>
		<path clip-path="url(#SVGID_4_)" fill="#FFED00" d="M250.959,386.649c0,21.086-17.092,38.177-38.176,38.177
			s-38.176-17.091-38.176-38.177c0-21.084,17.092-38.176,38.176-38.176S250.959,365.564,250.959,386.649"/>
		<circle clip-path="url(#SVGID_4_)" fill="none" stroke="#000000" stroke-miterlimit="10" cx="212.783" cy="386.649" r="38.176"/>
	</g>
</g>
<g>
	<path fill="#FFFFFF" d="M58.505,20.786v63.4H42.018V57.557h-4.934v26.629H20.598v-63.4h16.486v22.674h4.934V20.786H58.505z"/>
	<path fill="#FFFFFF" d="M81.609,20.786v63.4H65.123v-63.4H81.609z"/>
	<path fill="#FFFFFF" d="M88.228,20.786h27.49v12.688h-11.004v12.022h10.299v12.062h-10.299v13.941h12.101v12.688H88.228V20.786z"/>
	<path fill="#FFFFFF" d="M121.553,20.786h11.669c7.78,0,13.047,0.301,15.801,0.9c2.754,0.602,4.999,2.135,6.736,4.602
		c1.736,2.467,2.604,6.402,2.604,11.807c0,4.935-0.614,8.25-1.84,9.947c-1.228,1.697-3.642,2.715-7.245,3.054
		c3.263,0.81,5.456,1.894,6.579,3.251c1.122,1.357,1.821,2.604,2.095,3.739s0.411,4.263,0.411,9.379v16.722h-15.312V63.118
		c0-3.394-0.268-5.495-0.803-6.305c-0.536-0.809-1.938-1.214-4.21-1.214v28.587h-16.486V20.786z M138.039,31.633v14.098
		c1.854,0,3.152-0.255,3.896-0.764c0.744-0.51,1.116-2.16,1.116-4.954v-3.485c0-2.01-0.359-3.328-1.077-3.955
		C141.256,31.946,139.944,31.633,138.039,31.633z"/>
	<path fill="#FFFFFF" d="M178.883,20.786h27.921v12.688H195.37v12.022h10.182v12.062H195.37v26.629h-16.486V20.786z"/>
	<path fill="#FFFFFF" d="M210.799,20.786h11.669c7.78,0,13.047,0.301,15.801,0.9c2.754,0.602,4.999,2.135,6.736,4.602
		c1.736,2.467,2.604,6.402,2.604,11.807c0,4.935-0.614,8.25-1.84,9.947c-1.228,1.697-3.642,2.715-7.245,3.054
		c3.263,0.81,5.456,1.894,6.579,3.251c1.122,1.357,1.821,2.604,2.095,3.739s0.411,4.263,0.411,9.379v16.722h-15.312V63.118
		c0-3.394-0.268-5.495-0.803-6.305c-0.536-0.809-1.938-1.214-4.21-1.214v28.587h-16.486V20.786z M227.285,31.633v14.098
		c1.854,0,3.152-0.255,3.896-0.764c0.744-0.51,1.116-2.16,1.116-4.954v-3.485c0-2.01-0.359-3.328-1.077-3.955
		C230.502,31.946,229.19,31.633,227.285,31.633z"/>
	<path fill="#FFFFFF" d="M253.993,20.786h27.49v12.688h-11.004v12.022h10.299v12.062h-10.299v13.941h12.101v12.688h-28.587V20.786z"
		/>
	<path fill="#FFFFFF" d="M303.805,20.786v63.4h-16.487v-63.4H303.805z"/>
	<path fill="#FFFFFF" d="M310.422,20.786h27.491v12.688h-11.004v12.022h10.299v12.062h-10.299v13.941h12.1v12.688h-28.587V20.786z"
		/>
	<path fill="#FFFFFF" d="M378.679,39.974h-15.312v-4.699c0-2.193-0.196-3.589-0.588-4.19c-0.392-0.6-1.044-0.9-1.958-0.9
		c-0.992,0-1.742,0.405-2.252,1.215c-0.509,0.811-0.764,2.038-0.764,3.684c0,2.116,0.286,3.71,0.858,4.781
		c0.547,1.071,2.1,2.363,4.659,3.876c7.339,4.355,11.961,7.931,13.867,10.724c1.905,2.794,2.858,7.297,2.858,13.511
		c0,4.517-0.528,7.845-1.586,9.985s-3.101,3.936-6.129,5.385s-6.553,2.173-10.573,2.173c-4.412,0-8.178-0.835-11.297-2.506
		c-3.12-1.671-5.163-3.799-6.129-6.383c-0.966-2.585-1.449-6.253-1.449-11.004v-4.151h15.312v7.715c0,2.376,0.216,3.903,0.646,4.581
		c0.431,0.68,1.194,1.019,2.291,1.019s1.912-0.431,2.447-1.292c0.535-0.862,0.803-2.141,0.803-3.838
		c0-3.733-0.509-6.174-1.527-7.323c-1.044-1.148-3.616-3.067-7.714-5.757c-4.1-2.715-6.814-4.686-8.146-5.913
		c-1.332-1.227-2.435-2.923-3.31-5.091c-0.875-2.166-1.312-4.934-1.312-8.302c0-4.855,0.62-8.406,1.86-10.651
		c1.239-2.245,3.243-4.001,6.011-5.268c2.767-1.266,6.109-1.898,10.025-1.898c4.281,0,7.93,0.691,10.945,2.075
		c3.015,1.384,5.012,3.127,5.991,5.228c0.979,2.102,1.469,5.672,1.469,10.711V39.974z"/>
	<path fill="#FFFFFF" d="M461.425,20.786l-7.341,63.4h-20.583c-1.885-9.74-3.548-20.823-4.99-33.247
		c-0.658,5.327-2.19,16.409-4.599,33.247h-20.466l-7.38-63.4h16.017l1.742,22.121l1.685,21.386
		c0.608-11.067,2.127-25.569,4.559-43.507h17.119c0.228,1.854,0.827,8.824,1.799,20.911l1.82,24.123
		c0.938-15.347,2.472-30.358,4.602-45.034H461.425z"/>
	<path fill="#FFFFFF" d="M481.162,20.786v50.713h10.024v12.688h-26.512v-63.4H481.162z"/>
	<path fill="#FFFFFF" d="M525.604,20.786l9.428,63.4h-16.849l-0.885-11.396h-5.897l-0.991,11.396h-17.044l8.409-63.4H525.604z
		 M516.867,61.551c-0.835-7.181-1.672-16.057-2.511-26.629c-1.68,12.141-2.735,21.017-3.164,26.629H516.867z"/>
	<path fill="#FFFFFF" d="M574.644,20.786v63.4h-14.45l-8.576-28.822v28.822h-13.785v-63.4h13.785l9.241,28.548V20.786H574.644z"/>
</g>
<g>
	<defs>
		<rect id="SVGID_5_" x="382.978" y="104.054" width="343.646" height="360.55"/>
	</defs>
	<clipPath id="SVGID_6_">
		<use xlink:href="#SVGID_5_"  overflow="visible"/>
	</clipPath>
	<path clip-path="url(#SVGID_6_)" fill="#F0D1B7" d="M566.997,244.935L566.997,244.935c6.127,4.699,7.215,13.507,2.598,19.687
		l-84.477,113.047c-4.619,6.179-13.556,7.298-19.686,2.602c-6.126-4.701-7.219-13.497-2.594-19.687l84.475-113.051
		C551.938,241.345,560.866,240.235,566.997,244.935"/>
</g>
<polygon fill="#F0D1B7" points="418.16,448.137 495.636,452.473 499.046,391.603 541.548,307.685 426.384,301.236 "/>
<g>
	<defs>
		<rect id="SVGID_7_" x="382.978" y="104.054" width="343.646" height="360.55"/>
	</defs>
	<clipPath id="SVGID_8_">
		<use xlink:href="#SVGID_7_"  overflow="visible"/>
	</clipPath>
	<path clip-path="url(#SVGID_8_)" fill="#F0D1B7" d="M571.825,289.829L571.825,289.829c6.129,4.702,7.219,13.509,2.6,19.685
		l-84.477,113.052c-4.617,6.178-13.556,7.3-19.684,2.6c-6.128-4.699-7.22-13.494-2.597-19.683l84.478-113.054
		C556.769,286.242,565.698,285.132,571.825,289.829"/>
	<path clip-path="url(#SVGID_8_)" fill="#F0D1B7" d="M568.673,188.855L568.673,188.855c6.127,4.7,7.221,13.508,2.598,19.686
		l-81.404,108.811c-4.625,6.179-13.558,7.298-19.686,2.599c-6.128-4.7-7.223-13.498-2.598-19.683l81.406-108.813
		C553.616,185.272,562.54,184.156,568.673,188.855"/>
	<path clip-path="url(#SVGID_8_)" fill="#034F78" d="M425.629,140.247l75.903-18.925c14.701-3.665,29.727,5.365,33.392,20.065
		l50.245,201.52c3.664,14.699-5.363,29.724-20.064,33.39l-75.903,18.925c-14.701,3.665-29.726-5.363-33.39-20.062l-50.244-201.52
		C401.901,158.939,410.928,143.912,425.629,140.247"/>
	<path clip-path="url(#SVGID_8_)" fill="#FFFFFF" d="M415.984,165.362l105.856-26.393c0.203-0.051,0.414,0.076,0.465,0.281
		l52.191,209.325c0.051,0.204-0.076,0.414-0.281,0.467l-105.854,26.392c-0.206,0.052-0.417-0.075-0.468-0.28l-52.19-209.324
		C415.652,165.625,415.778,165.414,415.984,165.362"/>
	<path clip-path="url(#SVGID_8_)" fill="#5A97CD" d="M445.543,141.983l39.222-9.778c1.062-0.266,2.148,0.388,2.414,1.449v0.002
		c0.265,1.062-0.389,2.149-1.451,2.413l-39.221,9.779c-1.062,0.266-2.15-0.387-2.414-1.449v-0.002
		C443.827,143.335,444.479,142.249,445.543,141.983"/>
	<path clip-path="url(#SVGID_8_)" fill="#5A97CD" d="M522.502,367.103c3.608-0.9,7.264,1.296,8.163,4.904
		c0.9,3.608-1.297,7.264-4.905,8.163c-3.612,0.901-7.265-1.296-8.164-4.904S518.89,368.003,522.502,367.103"/>
	<path clip-path="url(#SVGID_8_)" fill="#F0D1B7" d="M579.78,279.413L579.78,279.413c6.127,4.7,7.273,13.556,2.598,19.683
		l-15.902,20.835c-4.678,6.128-13.556,7.298-19.684,2.598c-6.131-4.698-7.284-13.539-2.598-19.68l15.902-20.836
		C564.782,275.873,573.649,274.712,579.78,279.413"/>
	<path clip-path="url(#SVGID_8_)" fill="#F0D1B7" d="M576.065,233.05L576.065,233.05c6.129,4.702,7.275,13.555,2.6,19.687
		l-13.543,17.741c-4.678,6.129-13.555,7.3-19.682,2.6c-6.129-4.7-7.285-13.542-2.598-19.682l13.543-17.747
		C561.071,229.511,569.938,228.352,576.065,233.05"/>
</g>
<polygon fill="#FFFFFF" points="405.958,464.604 505.888,464.604 507.714,431.979 408.097,426.398 "/>
<g>
	<defs>
		<rect id="SVGID_9_" x="382.978" y="104.054" width="343.646" height="360.55"/>
	</defs>
	<clipPath id="SVGID_10_">
		<use xlink:href="#SVGID_9_"  overflow="visible"/>
	</clipPath>
	<path clip-path="url(#SVGID_10_)" fill="#F0D1B7" d="M431.008,387.76l9.899,0.554l-0.391-12.307l-3.078-98.823
		c-0.64-20.553-14.406-24.119-27.351-24.843l3.636,116.651C414.028,378.789,421.806,387.246,431.008,387.76"/>
</g>
<polygon fill="#F0D1B7" points="600.636,446.02 614.231,464.604 712.202,464.604 675.353,412.47 "/>
<polygon fill="#FFFFFF" points="672.823,464.604 725.372,464.604 707.972,439.873 "/>
<g>
	<defs>
		<rect id="SVGID_11_" x="382.978" y="104.054" width="343.646" height="360.55"/>
	</defs>
	<clipPath id="SVGID_12_">
		<use xlink:href="#SVGID_11_"  overflow="visible"/>
	</clipPath>
	<path clip-path="url(#SVGID_12_)" fill="#DFBB9D" d="M513.95,397.904l51.629,44.629c6.646,5.746,37.555,20.938,43.816,14.775
		c6.254-6.158-10.045-27.415-16.84-32.993l-38.367-29.363C532.192,378.116,519.97,390.499,513.95,397.904"/>
	<path clip-path="url(#SVGID_12_)" fill="#F0D1B7" d="M498.914,287.39l48.239,62.524c-0.717-13.322,18.176-20.099,28.176-9.855
		c-2.609-13.552,14.648-21.391,25.525-13.874c-0.35-12.887,18.801-18.913,27.781-7.355l41.143,52.937
		c11.551,14.862,18.369,40.233,17.92,52.745c-1.324,37.085-46.789,49.587-65.543,42.966c-14.621-5.16-25.623-7.219-31.914-15.088
		L473.775,306.402C459.03,287.958,487.205,271.907,498.914,287.39"/>
	<path clip-path="url(#SVGID_12_)" fill="#DFBB9D" d="M570.519,336.653c1.732,0.802,3.365,1.926,4.811,3.405
		c-0.172-0.901-0.254-1.774-0.262-2.624c7.953,10.374,17.754,23.269,17.754,23.269S578.909,346.002,570.519,336.653 M547.14,349.534
		c-0.031-1.188,0.096-2.319,0.355-3.389c7.928,10.601,21.066,29.035,21.066,29.035s-15.276-17.558-21.408-25.267
		C547.247,350.034,547.228,349.872,547.14,349.534 M616.046,344.111c0,0-7.955-10.661-15.059-20.098
		c-0.104,0.699-0.15,1.423-0.131,2.171c-0.957-0.66-1.963-1.2-2.998-1.629C606.001,333.443,616.046,344.111,616.046,344.111"/>
	<path clip-path="url(#SVGID_12_)" fill="#FAF1E9" d="M414.655,252.735c-1.52-0.184-3.049-0.312-4.567-0.396l0.733,23.494
		C418.797,273.729,416.394,260.999,414.655,252.735"/>
	<path clip-path="url(#SVGID_12_)" fill="#FAF1E9" d="M545.562,255.19l3.742-4.723c8.98,0.162,14.418,4.832,16.9,13.263
		l-3.492,4.582C553.179,280.754,537.425,265.184,545.562,255.19"/>
	<path clip-path="url(#SVGID_12_)" fill="#FAF1E9" d="M547.126,304.244l3.744-4.722c8.98,0.162,14.418,4.833,16.898,13.266
		l-3.49,4.579C554.743,329.811,538.991,314.236,547.126,304.244"/>
	<path clip-path="url(#SVGID_12_)" fill="#FAF1E9" d="M495.267,289.065l4.121,5.375c-2.635,9.742-9.214,14.393-19.084,14.791
		l-4.038-5.063C465.312,290.372,486.599,277.461,495.267,289.065"/>
	<path clip-path="url(#SVGID_12_)" fill="#C5185C" d="M469.001,200.056c3.376,13.94,17.365,22.518,31.324,19.19
		c13.941-3.371,22.51-17.363,19.189-31.317c-3.375-13.938-17.363-22.516-31.316-19.196
		C474.252,172.111,465.681,186.104,469.001,200.056 M463.179,201.453c-4.117-17.168,6.452-34.415,23.621-38.542
		c17.164-4.115,34.412,6.453,38.537,23.619c4.118,17.168-6.451,34.419-23.613,38.54
		C484.553,229.192,467.304,218.619,463.179,201.453"/>
	<path clip-path="url(#SVGID_12_)" fill="#C5185C" d="M473.315,199.021c2.796,11.562,14.398,18.67,25.968,15.912
		c11.562-2.796,18.67-14.396,15.916-25.967c-2.799-11.562-14.401-18.675-25.972-15.918
		C477.667,175.845,470.558,187.45,473.315,199.021 M472.15,199.302c-2.933-12.212,4.589-24.485,16.798-27.416
		c12.212-2.932,24.48,4.589,27.416,16.801c2.927,12.209-4.589,24.482-16.801,27.414C487.354,219.031,475.081,211.51,472.15,199.302"
		/>
	<path clip-path="url(#SVGID_12_)" fill="#C5185C" d="M441.335,217.597c2.625,10.86,13.522,17.535,24.389,14.95
		c10.857-2.631,17.535-13.525,14.947-24.394c-2.629-10.859-13.524-17.535-24.393-14.946
		C445.423,195.834,438.743,206.729,441.335,217.597 M440.169,217.877c-2.763-11.508,4.324-23.074,15.83-25.836
		c11.51-2.764,23.069,4.326,25.836,15.833c2.758,11.507-4.324,23.068-15.834,25.833
		C454.497,236.469,442.931,229.383,440.169,217.877"/>
</g>
<polygon fill="#EFC416" points="485.901,202.202 491.54,191.455 499.749,189.485 495.503,196.829 506.983,194.073 508.376,199.87 
	497.452,202.492 504.222,206.483 495.827,208.499 "/>
<polygon fill="#EFC416" points="456.659,214.268 451.641,215.473 454.163,211.51 447.633,213.078 446.801,209.61 453.664,207.964 
	449.409,205.202 454.317,204.022 460.237,208.22 "/>
<g>
	<path d="M446.686,248.21l6.9-1.721l0.641,2.574l-3.191,0.796l1.064,4.274l3.117-0.776l0.666,2.678l-3.115,0.776l2.246,9.012
		l-3.707,0.924L446.686,248.21z"/>
	<path d="M455.385,249.979l3.219-0.802l0.309,1.236l0.051-0.013c0.297-1.15,0.951-1.851,1.965-2.104
		c1.424-0.355,2.346,0.309,2.766,1.991l1.432,5.741l-3.295,0.822l-1.162-4.66c-0.072-0.292-0.166-0.501-0.281-0.628
		c-0.113-0.127-0.289-0.16-0.529-0.1c-0.395,0.099-0.52,0.439-0.375,1.023l2.869,11.509l-3.27,0.815L455.385,249.979z"/>
	<path d="M470.078,258.896c0.15,0.601,0.422,0.852,0.816,0.753s0.518-0.448,0.369-1.049l-0.693-2.781l3.27-0.815l0.688,2.755
		c0.266,1.064,0.137,1.976-0.385,2.734c-0.521,0.759-1.402,1.293-2.637,1.601c-0.756,0.188-1.404,0.254-1.947,0.199
		c-0.543-0.056-1.004-0.224-1.383-0.503c-0.381-0.279-0.695-0.665-0.945-1.159c-0.252-0.493-0.465-1.092-0.641-1.796l-1.771-7.105
		c-0.176-0.704-0.27-1.337-0.281-1.899c-0.014-0.561,0.082-1.056,0.287-1.48s0.529-0.784,0.977-1.077
		c0.445-0.294,1.045-0.535,1.801-0.723c1.236-0.308,2.264-0.264,3.084,0.134c0.818,0.398,1.352,1.094,1.602,2.09l1.258,5.045
		l-4.455,1.11L470.078,258.896z M468.537,252.716l1.186-0.295l-0.699-2.807c-0.15-0.601-0.424-0.853-0.818-0.754
		s-0.518,0.448-0.367,1.049L468.537,252.716z"/>
	<path d="M471.686,241.977l3.27-0.815l0.699,2.807l-3.27,0.815L471.686,241.977z M472.609,245.685l3.27-0.815l3.697,14.83
		l-3.27,0.815L472.609,245.685z"/>
	<path d="M478.053,246.788l-0.797,0.199l-0.578-2.317l0.799-0.199l-0.354-1.417c-0.184-0.737-0.107-1.358,0.232-1.863
		c0.34-0.504,0.895-0.852,1.668-1.044l1.854-0.462l0.578,2.316c-0.705,0.176-1.006,0.462-0.908,0.855l0.199,0.799l1.055-0.263
		l0.578,2.316l-1.055,0.264l3.119,12.513l-3.27,0.815L478.053,246.788z"/>
	<path d="M493.842,256.143l-3.219,0.802l-0.309-1.235l-0.078,0.019c-0.283,1.129-0.932,1.819-1.943,2.071
		c-1.426,0.355-2.346-0.3-2.76-1.965l-3.139-12.59l3.27-0.815l2.869,11.509c0.072,0.292,0.17,0.5,0.293,0.624
		c0.121,0.125,0.303,0.158,0.543,0.098c0.377-0.094,0.494-0.434,0.348-1.017l-2.869-11.51l3.297-0.821L493.842,256.143z"/>
	<path d="M491.172,241.056l3.219-0.802l0.309,1.236l0.051-0.013c0.297-1.15,0.951-1.851,1.965-2.104
		c1.424-0.355,2.348,0.309,2.766,1.991l3.139,12.59l-3.295,0.822l-2.869-11.509c-0.072-0.292-0.166-0.501-0.279-0.628
		s-0.291-0.16-0.531-0.1c-0.395,0.099-0.52,0.439-0.373,1.023l2.869,11.509l-3.271,0.815L491.172,241.056z"/>
	<path d="M499.027,235.16l3.27-0.815l2.537,10.17l0.051-0.013l-0.221-6.809l3.348-0.834l-0.025,6.815l3.723,8.015l-3.451,0.86
		l-3.225-7.455l-0.053,0.013l1.939,7.775l-3.27,0.815L499.027,235.16z"/>
	<path d="M511.408,247.744l3.398-0.848l0.943,3.784l-3.398,0.848L511.408,247.744z"/>
	<path d="M513.34,235.529l3.219-0.802l0.309,1.235l0.051-0.013c0.297-1.15,0.951-1.851,1.965-2.103
		c1.424-0.355,2.348,0.308,2.766,1.991l3.139,12.59l-3.295,0.821l-2.869-11.509c-0.072-0.292-0.166-0.501-0.279-0.627
		c-0.115-0.127-0.291-0.16-0.531-0.1c-0.395,0.099-0.52,0.439-0.373,1.023l2.869,11.509l-3.271,0.815L513.34,235.529z"/>
	<path d="M528.291,244.381c0.15,0.601,0.422,0.852,0.816,0.753c0.395-0.098,0.518-0.448,0.367-1.048l-0.693-2.781l3.271-0.815
		l0.686,2.755c0.266,1.064,0.137,1.976-0.385,2.735s-1.4,1.292-2.637,1.601c-0.754,0.188-1.404,0.254-1.945,0.199
		c-0.543-0.056-1.004-0.224-1.385-0.502c-0.379-0.279-0.693-0.666-0.945-1.16c-0.25-0.493-0.463-1.092-0.639-1.796l-1.771-7.105
		c-0.176-0.704-0.27-1.337-0.281-1.899c-0.014-0.561,0.082-1.056,0.287-1.479c0.203-0.425,0.529-0.784,0.975-1.078
		c0.447-0.293,1.047-0.535,1.803-0.723c1.236-0.308,2.264-0.264,3.082,0.134c0.82,0.398,1.354,1.094,1.602,2.09l1.258,5.045
		l-4.453,1.11L528.291,244.381z M526.75,238.203l1.186-0.295l-0.701-2.807c-0.148-0.601-0.422-0.852-0.816-0.754
		c-0.395,0.099-0.518,0.449-0.367,1.049L526.75,238.203z"/>
	<path d="M530.307,231.299l0.824-0.206l-0.688-2.755l3.297-0.822l0.686,2.755l0.953-0.238l0.592,2.369l-0.953,0.238l2.246,9.011
		c0.098,0.395,0.209,0.658,0.334,0.791s0.385,0.151,0.779,0.052l0.104-0.026l0.596,2.395l-2.059,0.514
		c-0.465,0.116-0.852,0.153-1.162,0.112c-0.311-0.04-0.576-0.153-0.795-0.335c-0.219-0.183-0.395-0.431-0.527-0.744
		c-0.133-0.313-0.25-0.676-0.354-1.087l-2.459-9.861l-0.822,0.206L530.307,231.299z"/>
</g>
<g>
	<path d="M33.708,740.57h-1.219v-3.539h1.219v-2.162c0-1.126,0.334-1.991,1.002-2.595c0.668-0.603,1.592-0.904,2.772-0.904h2.831
		v3.538c-1.075,0-1.612,0.302-1.612,0.904v1.219h1.612v3.539h-1.612v19.106h-4.993V740.57z"/>
	<path d="M41.217,737.031h4.914v1.888h0.079c0.839-1.547,2.031-2.319,3.578-2.319c2.175,0,3.263,1.284,3.263,3.853v8.767h-5.032
		v-7.115c0-0.445-0.059-0.78-0.177-1.003c-0.118-0.223-0.361-0.334-0.728-0.334c-0.603,0-0.904,0.446-0.904,1.337v17.573h-4.993
		V737.031z"/>
	<path d="M59.144,755.116c0,0.918,0.301,1.376,0.904,1.376c0.603,0,0.904-0.458,0.904-1.376v-4.246h4.993v4.207
		c0,1.625-0.511,2.89-1.533,3.794c-1.022,0.904-2.477,1.356-4.364,1.356c-1.153,0-2.11-0.138-2.87-0.413
		c-0.761-0.275-1.363-0.682-1.809-1.219c-0.446-0.537-0.761-1.205-0.944-2.005c-0.184-0.8-0.275-1.736-0.275-2.812v-10.851
		c0-1.074,0.091-2.018,0.275-2.831c0.183-0.812,0.498-1.486,0.944-2.024c0.445-0.537,1.042-0.937,1.789-1.199
		c0.747-0.262,1.697-0.393,2.851-0.393c1.887,0,3.348,0.433,4.383,1.297c1.035,0.865,1.553,2.059,1.553,3.578v7.705h-6.802V755.116z
		 M59.144,745.681h1.809v-4.285c0-0.917-0.302-1.376-0.904-1.376c-0.603,0-0.904,0.459-0.904,1.376V745.681z"/>
	<path d="M67.518,731.37h4.993v4.285h-4.993V731.37z M67.518,737.031h4.993v22.646h-4.993V737.031z"/>
	<path d="M74.948,740.57h-1.219v-3.539h1.219v-2.162c0-1.126,0.334-1.991,1.002-2.595c0.668-0.603,1.592-0.904,2.772-0.904h2.831
		v3.538c-1.075,0-1.612,0.302-1.612,0.904v1.219h1.612v3.539h-1.612v19.106h-4.993V740.57z"/>
	<path d="M94.291,759.677h-4.914v-1.887h-0.118c-0.812,1.52-1.992,2.28-3.538,2.28c-2.176,0-3.263-1.271-3.263-3.813v-19.226h4.993
		v17.574c0,0.445,0.065,0.78,0.197,1.002c0.131,0.224,0.379,0.334,0.747,0.334c0.576,0,0.865-0.445,0.865-1.336v-17.574h5.032
		V759.677z"/>
	<path d="M95.863,737.031h4.914v1.888h0.079c0.839-1.547,2.031-2.319,3.578-2.319c2.175,0,3.263,1.284,3.263,3.853v19.225h-5.032
		v-17.573c0-0.445-0.059-0.78-0.177-1.003c-0.118-0.223-0.361-0.334-0.728-0.334c-0.603,0-0.904,0.446-0.904,1.337v17.573h-4.993
		V737.031z"/>
	<path d="M109.269,731.37h4.993v15.529h0.079l2.123-9.868h5.111l-2.477,9.79l2.477,12.855h-5.268l-1.966-11.873h-0.079v11.873
		h-4.993V731.37z"/>
	<path d="M122.556,746.428h6.998v3.853h-6.998V746.428z"/>
	<path d="M131.52,737.031h4.914v1.888h0.079c0.839-1.547,2.031-2.319,3.578-2.319c2.175,0,3.263,1.284,3.263,3.853v8.767h-5.032
		v-7.115c0-0.445-0.059-0.78-0.177-1.003c-0.118-0.223-0.361-0.334-0.728-0.334c-0.603,0-0.904,0.446-0.904,1.337v17.573h-4.993
		V737.031z"/>
	<path d="M144.532,731.37h4.993v7.549h0.079c0.734-1.547,1.9-2.319,3.499-2.319c2.175,0,3.263,1.284,3.263,3.853v19.225h-5.032
		v-17.573c0-0.445-0.059-0.78-0.177-1.003c-0.118-0.223-0.361-0.334-0.728-0.334c-0.603,0-0.904,0.446-0.904,1.337v17.573h-4.993
		V731.37z"/>
	<path d="M162.852,755.116c0,0.918,0.301,1.376,0.904,1.376c0.603,0,0.904-0.458,0.904-1.376v-4.246h4.993v4.207
		c0,1.625-0.511,2.89-1.533,3.794c-1.022,0.904-2.477,1.356-4.364,1.356c-1.153,0-2.11-0.138-2.87-0.413
		c-0.761-0.275-1.363-0.682-1.809-1.219c-0.446-0.537-0.761-1.205-0.944-2.005c-0.184-0.8-0.275-1.736-0.275-2.812v-10.851
		c0-1.074,0.091-2.018,0.275-2.831c0.183-0.812,0.498-1.486,0.944-2.024c0.445-0.537,1.042-0.937,1.789-1.199
		c0.747-0.262,1.697-0.393,2.851-0.393c1.887,0,3.348,0.433,4.383,1.297c1.035,0.865,1.553,2.059,1.553,3.578v7.705h-6.802V755.116z
		 M162.852,745.681h1.809v-4.285c0-0.917-0.302-1.376-0.904-1.376c-0.603,0-0.904,0.459-0.904,1.376V745.681z"/>
	<path d="M171.227,731.37h4.993v4.285h-4.993V731.37z M171.227,737.031h4.993v22.646h-4.993V737.031z"/>
	<path d="M177.87,737.031h4.914v1.888h0.079c0.839-1.547,2.031-2.319,3.578-2.319c2.175,0,3.263,1.284,3.263,3.853v19.225h-5.032
		v-17.573c0-0.445-0.059-0.78-0.177-1.003c-0.118-0.223-0.361-0.334-0.728-0.334c-0.603,0-0.904,0.446-0.904,1.337v17.573h-4.993
		V737.031z"/>
	<path d="M191.276,731.37h4.993v28.307h-4.993V731.37z"/>
	<path d="M197.841,741.671c0-1.73,0.498-3.027,1.494-3.893c0.996-0.864,2.463-1.297,4.403-1.297c1.153,0,2.109,0.131,2.87,0.393
		c0.76,0.263,1.362,0.662,1.809,1.199c0.445,0.538,0.76,1.213,0.943,2.024c0.183,0.813,0.275,1.757,0.275,2.831v13.8
		c0,0.524,0.025,1.021,0.079,1.493c0.052,0.473,0.144,0.957,0.275,1.455h-5.032c-0.131-0.576-0.196-1.101-0.196-1.572v-0.354h-0.079
		c-0.739,1.547-1.938,2.32-3.599,2.32c-2.162,0-3.242-1.271-3.242-3.813v-4.797c0-1.101,0.197-2.037,0.593-2.811
		s1.107-1.436,2.135-1.985c0.58-0.314,1.126-0.597,1.641-0.846s0.956-0.497,1.325-0.747c0.369-0.249,0.658-0.518,0.87-0.806
		c0.211-0.288,0.316-0.629,0.316-1.022v-1.611c0-0.918-0.321-1.376-0.964-1.376c-0.59,0-0.884,0.458-0.884,1.376v3.302h-5.032
		V741.671z M204.721,748.551c-0.616,0.472-1.078,0.846-1.386,1.12c-0.309,0.275-0.462,0.662-0.462,1.16v3.734
		c0,0.446,0.06,0.78,0.181,1.003c0.12,0.223,0.369,0.334,0.743,0.334c0.616,0,0.924-0.445,0.924-1.337V748.551z"/>
	<path d="M211.247,737.031h4.914v1.888h0.079c0.839-1.547,2.031-2.319,3.578-2.319c2.175,0,3.263,1.284,3.263,3.853v19.225h-5.032
		v-17.573c0-0.445-0.059-0.78-0.177-1.003c-0.118-0.223-0.361-0.334-0.728-0.334c-0.603,0-0.904,0.446-0.904,1.337v17.573h-4.993
		V737.031z"/>
	<path d="M231.454,759.677v-1.944h-0.079c-0.655,1.664-1.848,2.495-3.578,2.495c-2.149,0-3.224-1.271-3.224-3.813v-15.962
		c0-2.568,1.074-3.853,3.224-3.853c1.573,0,2.739,0.772,3.499,2.319h0.079v-7.549h4.993v28.307H231.454z M229.567,754.759
		c0,0.447,0.059,0.789,0.177,1.025c0.118,0.236,0.36,0.354,0.727,0.354c0.603,0,0.904-0.46,0.904-1.38v-12.652
		c0-0.893-0.302-1.34-0.904-1.34c-0.367,0-0.609,0.111-0.727,0.335c-0.118,0.224-0.177,0.559-0.177,1.005V754.759z"/>
	<path d="M238.334,753.897h5.189v5.779h-5.189V753.897z"/>
	<path d="M245.489,737.031h4.914v1.888h0.079c0.839-1.547,2.031-2.319,3.578-2.319c2.175,0,3.263,1.284,3.263,3.853v19.225h-5.032
		v-17.573c0-0.445-0.059-0.78-0.177-1.003c-0.118-0.223-0.361-0.334-0.728-0.334c-0.603,0-0.904,0.446-0.904,1.337v17.573h-4.993
		V737.031z"/>
	<path d="M263.809,755.116c0,0.918,0.301,1.376,0.904,1.376c0.603,0,0.904-0.458,0.904-1.376v-4.246h4.993v4.207
		c0,1.625-0.511,2.89-1.533,3.794c-1.022,0.904-2.477,1.356-4.364,1.356c-1.153,0-2.11-0.138-2.87-0.413
		c-0.761-0.275-1.363-0.682-1.809-1.219c-0.446-0.537-0.761-1.205-0.944-2.005c-0.184-0.8-0.275-1.736-0.275-2.812v-10.851
		c0-1.074,0.091-2.018,0.275-2.831c0.183-0.812,0.498-1.486,0.944-2.024c0.445-0.537,1.042-0.937,1.789-1.199
		c0.747-0.262,1.697-0.393,2.851-0.393c1.887,0,3.348,0.433,4.383,1.297c1.035,0.865,1.553,2.059,1.553,3.578v7.705h-6.802V755.116z
		 M263.809,745.681h1.809v-4.285c0-0.917-0.302-1.376-0.904-1.376c-0.603,0-0.904,0.459-0.904,1.376V745.681z"/>
	<path d="M271.396,737.031h1.258v-4.206h5.032v4.206h1.455v3.617h-1.455v13.76c0,0.604,0.065,1.022,0.197,1.259
		c0.131,0.235,0.498,0.354,1.101,0.354h0.157v3.656h-3.145c-0.708,0-1.278-0.085-1.71-0.256c-0.432-0.17-0.773-0.426-1.022-0.767
		c-0.25-0.34-0.413-0.76-0.491-1.258c-0.079-0.497-0.118-1.062-0.118-1.69v-15.058h-1.258V737.031z"/>
</g>
<g>
	<defs>
		<rect id="SVGID_13_" x="-7.023" y="648.466" width="624.441" height="172.487"/>
	</defs>
	<clipPath id="SVGID_14_">
		<use xlink:href="#SVGID_13_"  overflow="visible"/>
	</clipPath>
	<path clip-path="url(#SVGID_14_)" fill="#C5185C" d="M317.433,767.456H-7.023v22.84h324.893c-0.907-4.014-1.43-8.175-1.43-12.454
		C316.439,774.285,316.809,770.823,317.433,767.456"/>
	<path clip-path="url(#SVGID_14_)" fill="#C5185C" d="M524.6,767.456c-1.129,8.08-3.47,15.742-6.852,22.84h99.67v-22.84H524.6z"/>
	<path clip-path="url(#SVGID_14_)" fill="#EFC416" d="M500.29,698.951c6.971,6.485,12.745,14.202,17.001,22.835h100.126v-22.835
		H500.29z"/>
	<path clip-path="url(#SVGID_14_)" fill="#EFC416" d="M-7.023,721.786H376.21c4.257-8.632,10.03-16.351,17.001-22.835H-7.023
		V721.786z"/>
	<path clip-path="url(#SVGID_14_)" fill="#C5185C" d="M394.479,756.514c0.058,28.864,23.403,52.222,52.28,52.269
		c28.864-0.047,52.206-23.404,52.266-52.269c-0.06-28.86-23.401-52.214-52.266-52.275
		C417.882,704.3,394.536,727.653,394.479,756.514 M382.429,756.514c0.009-35.53,28.794-64.314,64.33-64.324
		c35.52,0.01,64.306,28.794,64.313,64.324c-0.008,35.527-28.794,64.321-64.313,64.321
		C411.223,820.835,382.438,792.041,382.429,756.514"/>
	<path clip-path="url(#SVGID_14_)" fill="#C5185C" d="M403.407,756.518c0.039,23.936,19.404,43.297,43.339,43.336
		c23.936-0.039,43.297-19.4,43.345-43.336c-0.048-23.938-19.409-43.309-43.345-43.351
		C422.812,713.209,403.446,732.579,403.407,756.518 M400.995,756.518c0-25.275,20.482-45.757,45.751-45.757
		c25.273,0,45.748,20.481,45.756,45.757c-0.008,25.265-20.482,45.751-45.756,45.751
		C421.478,802.269,400.995,781.782,400.995,756.518"/>
	<path clip-path="url(#SVGID_14_)" fill="#C5185C" d="M332.099,777.842c0.036,22.483,18.225,40.664,40.701,40.712
		c22.483-0.048,40.669-18.229,40.709-40.712c-0.04-22.485-18.226-40.667-40.709-40.707
		C350.323,737.175,332.135,755.356,332.099,777.842 M329.688,777.842c0-23.818,19.302-43.12,43.112-43.12
		c23.821,0,43.111,19.302,43.12,43.12c-0.009,23.813-19.299,43.111-43.12,43.111C348.989,820.953,329.688,801.655,329.688,777.842"
		/>
</g>
<polygon fill="#EFC416" points="426.54,768.652 442.624,750.272 459.613,750.272 447.855,762.649 471.615,762.649 471.615,774.647 
	449.009,774.647 460.381,785.638 443.006,785.638 "/>
<polygon fill="#EFC416" points="363.65,778.525 353.266,778.525 360.062,771.957 346.547,771.957 346.547,764.782 360.751,764.782 
	353.722,757.379 363.882,757.379 373.495,768.373 "/>
<g>
	<path d="M28.648,659.022l-1.472,4.742l1.911,7.165h-3.486l-1.131-5.189l-0.004,5.189h-3.625v-14.527h3.625l0.004,6.099l1.131-3.479
		H28.648z"/>
	<path d="M37.837,665.187h-4.693v2.576c0,0.538,0.039,0.885,0.117,1.04c0.078,0.156,0.227,0.233,0.449,0.233
		c0.275,0,0.459-0.103,0.552-0.31c0.092-0.206,0.139-0.605,0.139-1.197v-1.57h3.437v0.879c0,0.736-0.046,1.301-0.139,1.696
		c-0.093,0.395-0.31,0.816-0.65,1.265c-0.341,0.449-0.773,0.785-1.297,1.01s-1.18,0.337-1.969,0.337
		c-0.766,0-1.442-0.111-2.028-0.332c-0.586-0.222-1.042-0.525-1.368-0.911s-0.552-0.811-0.677-1.274
		c-0.126-0.463-0.188-1.138-0.188-2.023v-3.473c0-1.041,0.14-1.861,0.421-2.463c0.281-0.601,0.742-1.062,1.382-1.382
		s1.376-0.479,2.208-0.479c1.017,0,1.856,0.192,2.517,0.578c0.661,0.386,1.125,0.897,1.391,1.534
		c0.266,0.638,0.399,1.533,0.399,2.688V665.187z M34.203,663.249v-0.87c0-0.616-0.033-1.015-0.099-1.194
		c-0.066-0.179-0.201-0.269-0.404-0.269c-0.251,0-0.407,0.076-0.466,0.229c-0.06,0.152-0.09,0.564-0.09,1.234v0.87H34.203z"/>
	<path d="M42.754,656.402v1.894h-3.733v-1.894H42.754z M42.754,659.022v11.907h-3.733v-11.907H42.754z"/>
	<path d="M47.743,659.022l-0.063,1.097c0.263-0.438,0.585-0.766,0.965-0.984c0.38-0.218,0.818-0.327,1.314-0.327
		c0.622,0,1.13,0.146,1.525,0.439s0.649,0.662,0.763,1.108c0.114,0.445,0.17,1.188,0.17,2.229v8.345h-3.625v-8.246
		c0-0.819-0.027-1.319-0.081-1.499c-0.054-0.179-0.204-0.269-0.449-0.269c-0.257,0-0.419,0.103-0.485,0.31
		c-0.066,0.206-0.099,0.758-0.099,1.655v8.049h-3.625v-11.907H47.743z"/>
	<path d="M61.875,665.187h-4.693v2.576c0,0.538,0.039,0.885,0.117,1.04c0.078,0.156,0.227,0.233,0.449,0.233
		c0.275,0,0.459-0.103,0.552-0.31c0.092-0.206,0.139-0.605,0.139-1.197v-1.57h3.437v0.879c0,0.736-0.046,1.301-0.139,1.696
		c-0.093,0.395-0.31,0.816-0.65,1.265c-0.341,0.449-0.773,0.785-1.297,1.01s-1.18,0.337-1.969,0.337
		c-0.766,0-1.442-0.111-2.028-0.332c-0.586-0.222-1.042-0.525-1.368-0.911s-0.552-0.811-0.677-1.274
		c-0.126-0.463-0.188-1.138-0.188-2.023v-3.473c0-1.041,0.14-1.861,0.421-2.463c0.281-0.601,0.742-1.062,1.382-1.382
		s1.376-0.479,2.208-0.479c1.017,0,1.856,0.192,2.517,0.578c0.661,0.386,1.125,0.897,1.391,1.534
		c0.266,0.638,0.399,1.533,0.399,2.688V665.187z M58.241,663.249v-0.87c0-0.616-0.033-1.015-0.099-1.194
		c-0.066-0.179-0.201-0.269-0.404-0.269c-0.251,0-0.407,0.076-0.466,0.229c-0.06,0.152-0.09,0.564-0.09,1.234v0.87H58.241z"/>
	<path d="M72.724,656.402v2.907l-2.813,8.713h2.813v2.907h-6.963v-2.108l2.907-9.512h-2.566v-2.907H72.724z"/>
	<path d="M81.805,665.187h-4.693v2.576c0,0.538,0.039,0.885,0.117,1.04c0.078,0.156,0.227,0.233,0.449,0.233
		c0.275,0,0.459-0.103,0.552-0.31c0.092-0.206,0.139-0.605,0.139-1.197v-1.57h3.437v0.879c0,0.736-0.046,1.301-0.139,1.696
		c-0.093,0.395-0.31,0.816-0.65,1.265c-0.341,0.449-0.773,0.785-1.297,1.01s-1.18,0.337-1.969,0.337
		c-0.766,0-1.442-0.111-2.028-0.332c-0.586-0.222-1.042-0.525-1.368-0.911s-0.552-0.811-0.677-1.274
		c-0.126-0.463-0.188-1.138-0.188-2.023v-3.473c0-1.041,0.14-1.861,0.421-2.463c0.281-0.601,0.742-1.062,1.382-1.382
		s1.376-0.479,2.208-0.479c1.017,0,1.856,0.192,2.517,0.578c0.661,0.386,1.125,0.897,1.391,1.534
		c0.266,0.638,0.399,1.533,0.399,2.688V665.187z M78.17,663.249v-0.87c0-0.616-0.033-1.015-0.099-1.194
		c-0.066-0.179-0.201-0.269-0.404-0.269c-0.251,0-0.407,0.076-0.466,0.229c-0.06,0.152-0.09,0.564-0.09,1.234v0.87H78.17z"/>
	<path d="M86.722,656.402v1.894h-3.733v-1.894H86.722z M86.722,659.022v11.907h-3.733v-11.907H86.722z"/>
	<path d="M91.845,657.435v1.875h0.978v1.885h-0.978v6.37c0,0.784,0.04,1.221,0.121,1.311c0.081,0.09,0.417,0.135,1.009,0.135v1.92
		h-1.462c-0.826,0-1.415-0.034-1.768-0.104c-0.353-0.068-0.664-0.227-0.933-0.476c-0.269-0.248-0.437-0.532-0.502-0.853
		c-0.066-0.319-0.099-1.072-0.099-2.256v-6.048H87.43v-1.885h0.781v-1.875H91.845z"/>
	<path d="M100.13,656.124l-4.297,15.084h-2.745l4.325-15.084H100.13z"/>
	<path d="M109.979,656.402l-1.922,14.527h-5.738l-2.183-14.527h3.984c0.463,4.002,0.793,7.388,0.991,10.157
		c0.195-2.799,0.402-5.284,0.622-7.456l0.262-2.701H109.979z"/>
	<path d="M118.71,663.204v2.916c0,1.071-0.054,1.856-0.161,2.355c-0.108,0.5-0.338,0.966-0.691,1.399
		c-0.353,0.435-0.806,0.754-1.359,0.961c-0.554,0.206-1.189,0.31-1.907,0.31c-0.802,0-1.481-0.089-2.037-0.266
		c-0.556-0.176-0.989-0.442-1.296-0.798c-0.309-0.356-0.528-0.787-0.66-1.292c-0.132-0.506-0.197-1.264-0.197-2.275v-3.051
		c0-1.106,0.12-1.971,0.359-2.593s0.67-1.122,1.292-1.499s1.417-0.564,2.387-0.564c0.813,0,1.512,0.121,2.095,0.363
		c0.583,0.242,1.033,0.558,1.351,0.946c0.317,0.389,0.534,0.79,0.65,1.202C118.652,661.732,118.71,662.36,118.71,663.204z
		 M115.085,662.307c0-0.61-0.033-0.994-0.099-1.153c-0.066-0.158-0.207-0.237-0.422-0.237s-0.359,0.079-0.431,0.237
		c-0.072,0.159-0.107,0.543-0.107,1.153v5.375c0,0.562,0.036,0.929,0.107,1.099c0.072,0.171,0.212,0.256,0.422,0.256
		c0.215,0,0.357-0.077,0.426-0.233c0.069-0.155,0.103-0.49,0.103-1.005V662.307z"/>
	<path d="M123.637,656.402v14.527h-3.733v-14.527H123.637z"/>
	<path d="M133.238,659.022v11.907h-3.688l0.062-0.989c-0.251,0.401-0.561,0.703-0.929,0.903c-0.368,0.201-0.791,0.302-1.27,0.302
		c-0.544,0-0.996-0.097-1.355-0.288c-0.359-0.19-0.624-0.445-0.794-0.763c-0.17-0.316-0.277-0.647-0.319-0.991
		c-0.042-0.344-0.062-1.027-0.062-2.05v-8.031h3.625v8.103c0,0.928,0.028,1.478,0.085,1.651c0.057,0.174,0.21,0.26,0.462,0.26
		c0.269,0,0.429-0.09,0.48-0.269c0.051-0.18,0.076-0.757,0.076-1.732v-8.013H133.238z"/>
	<path d="M138.119,659.022l-0.062,1.133c0.281-0.449,0.616-0.786,1.005-1.011c0.389-0.225,0.832-0.337,1.328-0.337
		c0.969,0,1.731,0.449,2.288,1.348c0.305-0.449,0.649-0.786,1.032-1.011s0.808-0.337,1.274-0.337c0.616,0,1.126,0.149,1.53,0.448
		s0.663,0.665,0.776,1.1c0.114,0.434,0.171,1.138,0.171,2.112v8.462h-3.518v-7.762c0-1.017-0.035-1.646-0.103-1.889
		c-0.069-0.242-0.229-0.363-0.48-0.363c-0.257,0-0.423,0.119-0.498,0.358c-0.075,0.239-0.112,0.871-0.112,1.894v7.762h-3.518v-7.564
		c0-1.166-0.028-1.866-0.085-2.1c-0.057-0.233-0.214-0.35-0.471-0.35c-0.162,0-0.299,0.062-0.413,0.184
		c-0.113,0.123-0.176,0.272-0.188,0.449c-0.012,0.176-0.018,0.552-0.018,1.126v8.255h-3.518v-11.907H138.119z"/>
	<path d="M156.917,665.187h-4.693v2.576c0,0.538,0.039,0.885,0.117,1.04c0.078,0.156,0.227,0.233,0.449,0.233
		c0.275,0,0.459-0.103,0.552-0.31c0.092-0.206,0.139-0.605,0.139-1.197v-1.57h3.437v0.879c0,0.736-0.046,1.301-0.139,1.696
		c-0.093,0.395-0.31,0.816-0.65,1.265c-0.341,0.449-0.773,0.785-1.297,1.01s-1.18,0.337-1.969,0.337
		c-0.766,0-1.442-0.111-2.028-0.332c-0.586-0.222-1.042-0.525-1.368-0.911s-0.552-0.811-0.677-1.274
		c-0.126-0.463-0.188-1.138-0.188-2.023v-3.473c0-1.041,0.14-1.861,0.421-2.463c0.281-0.601,0.742-1.062,1.382-1.382
		s1.376-0.479,2.208-0.479c1.017,0,1.856,0.192,2.517,0.578c0.661,0.386,1.125,0.897,1.391,1.534
		c0.266,0.638,0.399,1.533,0.399,2.688V665.187z M153.283,663.249v-0.87c0-0.616-0.033-1.015-0.099-1.194
		c-0.066-0.179-0.201-0.269-0.404-0.269c-0.251,0-0.407,0.076-0.466,0.229c-0.06,0.152-0.09,0.564-0.09,1.234v0.87H153.283z"/>
	<path d="M161.79,659.022l-0.063,1.097c0.263-0.438,0.585-0.766,0.965-0.984c0.38-0.218,0.818-0.327,1.314-0.327
		c0.622,0,1.13,0.146,1.525,0.439s0.649,0.662,0.763,1.108c0.114,0.445,0.17,1.188,0.17,2.229v8.345h-3.625v-8.246
		c0-0.819-0.027-1.319-0.081-1.499c-0.054-0.179-0.204-0.269-0.449-0.269c-0.257,0-0.419,0.103-0.485,0.31
		c-0.066,0.206-0.099,0.758-0.099,1.655v8.049h-3.625v-11.907H161.79z"/>
	<path d="M172.153,663.725v2.503h-4.765v-2.503H172.153z"/>
	<path d="M177.008,656.402v11.62h2.297v2.907h-6.075v-14.527H177.008z"/>
	<path d="M183.845,656.402v1.894h-3.733v-1.894H183.845z M183.845,659.022v11.907h-3.733v-11.907H183.845z"/>
	<path d="M188.726,659.022l-0.062,1.133c0.281-0.449,0.616-0.786,1.005-1.011c0.389-0.225,0.832-0.337,1.328-0.337
		c0.969,0,1.731,0.449,2.288,1.348c0.305-0.449,0.649-0.786,1.032-1.011s0.808-0.337,1.274-0.337c0.616,0,1.126,0.149,1.53,0.448
		s0.663,0.665,0.776,1.1c0.114,0.434,0.171,1.138,0.171,2.112v8.462h-3.518v-7.762c0-1.017-0.035-1.646-0.103-1.889
		c-0.069-0.242-0.229-0.363-0.48-0.363c-0.257,0-0.423,0.119-0.498,0.358c-0.075,0.239-0.112,0.871-0.112,1.894v7.762h-3.518v-7.564
		c0-1.166-0.028-1.866-0.085-2.1c-0.057-0.233-0.214-0.35-0.471-0.35c-0.162,0-0.299,0.062-0.413,0.184
		c-0.113,0.123-0.176,0.272-0.188,0.449c-0.012,0.176-0.018,0.552-0.018,1.126v8.255h-3.518v-11.907H188.726z"/>
	<path d="M203.047,656.402v1.894h-3.733v-1.894H203.047z M203.047,659.022v11.907h-3.733v-11.907H203.047z"/>
	<path d="M208.171,657.435v1.875h0.978v1.885h-0.978v6.37c0,0.784,0.04,1.221,0.121,1.311c0.081,0.09,0.417,0.135,1.009,0.135v1.92
		h-1.462c-0.826,0-1.415-0.034-1.768-0.104c-0.353-0.068-0.664-0.227-0.933-0.476c-0.269-0.248-0.437-0.532-0.502-0.853
		c-0.066-0.319-0.099-1.072-0.099-2.256v-6.048h-0.781v-1.885h0.781v-1.875H208.171z"/>
	<path d="M217.35,662.827h-3.212v-0.646c0-0.55-0.031-0.898-0.094-1.045s-0.22-0.22-0.471-0.22c-0.203,0-0.356,0.067-0.458,0.202
		c-0.102,0.134-0.152,0.336-0.152,0.605c0,0.364,0.025,0.633,0.076,0.803c0.051,0.171,0.203,0.357,0.458,0.561
		c0.254,0.204,0.776,0.5,1.566,0.889c1.053,0.515,1.744,0.999,2.073,1.454c0.329,0.454,0.494,1.115,0.494,1.982
		c0,0.97-0.126,1.7-0.377,2.194c-0.251,0.493-0.672,0.873-1.261,1.14c-0.589,0.266-1.3,0.399-2.131,0.399
		c-0.921,0-1.709-0.144-2.364-0.432c-0.655-0.287-1.105-0.676-1.351-1.166c-0.245-0.49-0.368-1.232-0.368-2.226v-0.574h3.212v0.754
		c0,0.641,0.041,1.056,0.121,1.247s0.241,0.287,0.48,0.287c0.257,0,0.437-0.063,0.539-0.192c0.102-0.129,0.152-0.399,0.152-0.812
		c0-0.568-0.066-0.924-0.197-1.067c-0.138-0.144-0.841-0.568-2.109-1.274c-1.065-0.598-1.714-1.141-1.947-1.629
		c-0.233-0.487-0.35-1.066-0.35-1.736c0-0.951,0.125-1.652,0.377-2.104c0.251-0.452,0.677-0.8,1.278-1.046
		c0.602-0.245,1.3-0.367,2.095-0.367c0.79,0,1.461,0.1,2.015,0.3c0.553,0.201,0.978,0.466,1.274,0.795
		c0.296,0.328,0.476,0.634,0.539,0.915s0.094,0.721,0.094,1.318V662.827z"/>
	<path d="M227.032,663.599c0,0.79-0.263,1.44-0.79,1.952c-0.526,0.511-1.146,0.767-1.857,0.767c-0.736,0-1.362-0.259-1.88-0.776
		c-0.518-0.517-0.776-1.144-0.776-1.88c0-0.724,0.26-1.346,0.78-1.866c0.521-0.521,1.143-0.78,1.867-0.78
		c0.777,0,1.415,0.27,1.911,0.808S227.032,662.953,227.032,663.599z"/>
	<path d="M239.271,659.022l-1.472,4.742l1.911,7.165h-3.486l-1.131-5.189l-0.004,5.189h-3.625v-14.527h3.625l0.004,6.099
		l1.131-3.479H239.271z"/>
	<path d="M248.459,665.187h-4.693v2.576c0,0.538,0.039,0.885,0.117,1.04c0.078,0.156,0.227,0.233,0.449,0.233
		c0.275,0,0.459-0.103,0.552-0.31c0.092-0.206,0.139-0.605,0.139-1.197v-1.57h3.437v0.879c0,0.736-0.046,1.301-0.139,1.696
		c-0.093,0.395-0.31,0.816-0.65,1.265c-0.341,0.449-0.773,0.785-1.297,1.01s-1.18,0.337-1.969,0.337
		c-0.766,0-1.442-0.111-2.028-0.332c-0.586-0.222-1.042-0.525-1.368-0.911s-0.552-0.811-0.677-1.274
		c-0.126-0.463-0.188-1.138-0.188-2.023v-3.473c0-1.041,0.14-1.861,0.421-2.463c0.281-0.601,0.742-1.062,1.382-1.382
		s1.376-0.479,2.208-0.479c1.017,0,1.856,0.192,2.517,0.578c0.661,0.386,1.125,0.897,1.391,1.534
		c0.266,0.638,0.399,1.533,0.399,2.688V665.187z M244.825,663.249v-0.87c0-0.616-0.033-1.015-0.099-1.194
		c-0.066-0.179-0.201-0.269-0.404-0.269c-0.251,0-0.407,0.076-0.466,0.229c-0.06,0.152-0.09,0.564-0.09,1.234v0.87H244.825z"/>
	<path d="M253.377,656.402v1.894h-3.733v-1.894H253.377z M253.377,659.022v11.907h-3.733v-11.907H253.377z"/>
	<path d="M258.366,659.022l-0.063,1.097c0.263-0.438,0.585-0.766,0.965-0.984c0.38-0.218,0.818-0.327,1.314-0.327
		c0.622,0,1.13,0.146,1.525,0.439s0.649,0.662,0.763,1.108c0.114,0.445,0.17,1.188,0.17,2.229v8.345h-3.625v-8.246
		c0-0.819-0.027-1.319-0.081-1.499c-0.054-0.179-0.204-0.269-0.449-0.269c-0.257,0-0.419,0.103-0.485,0.31
		c-0.066,0.206-0.099,0.758-0.099,1.655v8.049h-3.625v-11.907H258.366z"/>
	<path d="M272.499,665.187h-4.693v2.576c0,0.538,0.039,0.885,0.117,1.04c0.078,0.156,0.227,0.233,0.449,0.233
		c0.275,0,0.459-0.103,0.552-0.31c0.092-0.206,0.139-0.605,0.139-1.197v-1.57h3.437v0.879c0,0.736-0.046,1.301-0.139,1.696
		c-0.093,0.395-0.31,0.816-0.65,1.265c-0.341,0.449-0.773,0.785-1.297,1.01s-1.18,0.337-1.969,0.337
		c-0.766,0-1.442-0.111-2.028-0.332c-0.586-0.222-1.042-0.525-1.368-0.911s-0.552-0.811-0.677-1.274
		c-0.126-0.463-0.188-1.138-0.188-2.023v-3.473c0-1.041,0.14-1.861,0.421-2.463c0.281-0.601,0.742-1.062,1.382-1.382
		s1.376-0.479,2.208-0.479c1.017,0,1.856,0.192,2.517,0.578c0.661,0.386,1.125,0.897,1.391,1.534
		c0.266,0.638,0.399,1.533,0.399,2.688V665.187z M268.864,663.249v-0.87c0-0.616-0.033-1.015-0.099-1.194
		c-0.066-0.179-0.201-0.269-0.404-0.269c-0.251,0-0.407,0.076-0.466,0.229c-0.06,0.152-0.09,0.564-0.09,1.234v0.87H268.864z"/>
	<path d="M277.03,656.402h2.674c1.783,0,2.989,0.069,3.621,0.206c0.631,0.138,1.146,0.489,1.543,1.055
		c0.397,0.565,0.597,1.467,0.597,2.705c0,1.131-0.141,1.891-0.422,2.279s-0.834,0.622-1.66,0.7c0.748,0.186,1.25,0.434,1.508,0.744
		c0.257,0.312,0.417,0.598,0.48,0.857c0.062,0.26,0.094,0.977,0.094,2.149v3.831h-3.509v-4.827c0-0.778-0.061-1.26-0.184-1.445
		c-0.123-0.185-0.444-0.277-0.965-0.277v6.55h-3.777V656.402z M280.807,658.888v3.23c0.425,0,0.723-0.059,0.893-0.175
		c0.17-0.117,0.255-0.495,0.255-1.135v-0.799c0-0.461-0.082-0.763-0.247-0.906S281.244,658.888,280.807,658.888z"/>
	<path d="M295.029,665.187h-4.693v2.576c0,0.538,0.039,0.885,0.117,1.04c0.078,0.156,0.227,0.233,0.449,0.233
		c0.275,0,0.458-0.103,0.551-0.31c0.093-0.206,0.14-0.605,0.14-1.197v-1.57h3.437v0.879c0,0.736-0.047,1.301-0.14,1.696
		c-0.093,0.395-0.31,0.816-0.65,1.265c-0.341,0.449-0.772,0.785-1.296,1.01s-1.181,0.337-1.97,0.337
		c-0.766,0-1.442-0.111-2.028-0.332c-0.586-0.222-1.042-0.525-1.368-0.911s-0.552-0.811-0.677-1.274
		c-0.126-0.463-0.188-1.138-0.188-2.023v-3.473c0-1.041,0.14-1.861,0.421-2.463c0.281-0.601,0.742-1.062,1.382-1.382
		s1.376-0.479,2.208-0.479c1.017,0,1.856,0.192,2.517,0.578s1.124,0.897,1.391,1.534c0.267,0.638,0.399,1.533,0.399,2.688V665.187z
		 M291.396,663.249v-0.87c0-0.616-0.033-1.015-0.099-1.194c-0.066-0.179-0.201-0.269-0.404-0.269c-0.251,0-0.407,0.076-0.466,0.229
		c-0.06,0.152-0.09,0.564-0.09,1.234v0.87H291.396z"/>
	<path d="M304.45,659.022v9.171c0,1.238-0.028,2.038-0.085,2.399c-0.057,0.362-0.259,0.745-0.605,1.149
		c-0.347,0.403-0.83,0.711-1.449,0.924c-0.619,0.212-1.398,0.318-2.338,0.318c-1.154,0-2.081-0.196-2.781-0.588
		s-1.062-1.162-1.086-2.311h3.518c0,0.526,0.191,0.79,0.574,0.79c0.275,0,0.458-0.081,0.548-0.243
		c0.09-0.161,0.135-0.499,0.135-1.015v-0.898c-0.312,0.282-0.639,0.495-0.983,0.639c-0.344,0.145-0.704,0.217-1.081,0.217
		c-0.652,0-1.188-0.132-1.61-0.396c-0.422-0.263-0.711-0.608-0.866-1.036s-0.233-1.036-0.233-1.826v-4.325
		c0-1.13,0.203-1.943,0.61-2.44c0.407-0.496,1.026-0.744,1.857-0.744c0.455,0,0.869,0.093,1.243,0.278
		c0.373,0.186,0.707,0.465,1,0.836l0.261-0.899H304.45z M300.816,662.181c0-0.544-0.031-0.891-0.094-1.04
		c-0.063-0.15-0.202-0.225-0.418-0.225c-0.209,0-0.357,0.085-0.443,0.256c-0.087,0.17-0.131,0.507-0.131,1.009v4.002
		c0,0.533,0.033,0.878,0.099,1.037c0.066,0.158,0.204,0.237,0.413,0.237c0.239,0,0.395-0.096,0.467-0.287
		c0.071-0.191,0.107-0.625,0.107-1.301V662.181z"/>
	<path d="M309.476,656.402v1.894h-3.732v-1.894H309.476z M309.476,659.022v11.907h-3.732v-11.907H309.476z"/>
	<path d="M318.18,662.827h-3.212v-0.646c0-0.55-0.032-0.898-0.095-1.045s-0.22-0.22-0.471-0.22c-0.204,0-0.356,0.067-0.458,0.202
		c-0.102,0.134-0.152,0.336-0.152,0.605c0,0.364,0.025,0.633,0.076,0.803c0.051,0.171,0.203,0.357,0.458,0.561
		c0.254,0.204,0.775,0.5,1.565,0.889c1.053,0.515,1.743,0.999,2.072,1.454c0.329,0.454,0.494,1.115,0.494,1.982
		c0,0.97-0.126,1.7-0.377,2.194c-0.251,0.493-0.672,0.873-1.261,1.14c-0.59,0.266-1.3,0.399-2.131,0.399
		c-0.922,0-1.71-0.144-2.364-0.432c-0.655-0.287-1.105-0.676-1.351-1.166c-0.246-0.49-0.368-1.232-0.368-2.226v-0.574h3.212v0.754
		c0,0.641,0.041,1.056,0.121,1.247c0.081,0.191,0.241,0.287,0.48,0.287c0.257,0,0.437-0.063,0.538-0.192s0.153-0.399,0.153-0.812
		c0-0.568-0.066-0.924-0.198-1.067c-0.138-0.144-0.84-0.568-2.108-1.274c-1.064-0.598-1.714-1.141-1.947-1.629
		c-0.233-0.487-0.35-1.066-0.35-1.736c0-0.951,0.126-1.652,0.377-2.104c0.251-0.452,0.678-0.8,1.278-1.046
		c0.602-0.245,1.3-0.367,2.096-0.367c0.789,0,1.461,0.1,2.014,0.3c0.554,0.201,0.979,0.466,1.274,0.795
		c0.296,0.328,0.476,0.634,0.538,0.915c0.063,0.281,0.095,0.721,0.095,1.318V662.827z"/>
	<path d="M323.25,657.435v1.875h0.978v1.885h-0.978v6.37c0,0.784,0.04,1.221,0.121,1.311s0.417,0.135,1.01,0.135v1.92h-1.463
		c-0.825,0-1.415-0.034-1.768-0.104c-0.354-0.068-0.664-0.227-0.934-0.476c-0.27-0.248-0.437-0.532-0.502-0.853
		c-0.066-0.319-0.099-1.072-0.099-2.256v-6.048h-0.781v-1.885h0.781v-1.875H323.25z"/>
	<path d="M328.651,659.022l-0.144,1.565c0.526-1.121,1.289-1.715,2.288-1.78v4.189c-0.664,0-1.152,0.09-1.463,0.27
		c-0.312,0.18-0.503,0.43-0.574,0.749c-0.072,0.32-0.107,1.058-0.107,2.212v4.702h-3.625v-11.907H328.651z"/>
	<path d="M335.336,656.402v1.894h-3.732v-1.894H335.336z M335.336,659.022v11.907h-3.732v-11.907H335.336z"/>
	<path d="M344.848,665.187h-4.693v2.576c0,0.538,0.039,0.885,0.117,1.04c0.077,0.156,0.228,0.233,0.448,0.233
		c0.275,0,0.459-0.103,0.552-0.31c0.093-0.206,0.14-0.605,0.14-1.197v-1.57h3.437v0.879c0,0.736-0.047,1.301-0.14,1.696
		c-0.093,0.395-0.31,0.816-0.65,1.265c-0.341,0.449-0.772,0.785-1.296,1.01s-1.181,0.337-1.97,0.337
		c-0.766,0-1.442-0.111-2.028-0.332c-0.586-0.222-1.042-0.525-1.368-0.911s-0.552-0.811-0.678-1.274
		c-0.125-0.463-0.188-1.138-0.188-2.023v-3.473c0-1.041,0.141-1.861,0.422-2.463c0.281-0.601,0.742-1.062,1.382-1.382
		c0.641-0.32,1.376-0.479,2.207-0.479c1.018,0,1.856,0.192,2.518,0.578s1.124,0.897,1.391,1.534
		c0.267,0.638,0.399,1.533,0.399,2.688V665.187z M341.214,663.249v-0.87c0-0.616-0.033-1.015-0.099-1.194
		c-0.066-0.179-0.201-0.269-0.404-0.269c-0.251,0-0.407,0.076-0.467,0.229s-0.09,0.564-0.09,1.234v0.87H341.214z"/>
	<path d="M349.657,659.022l-0.144,1.565c0.526-1.121,1.289-1.715,2.288-1.78v4.189c-0.664,0-1.152,0.09-1.463,0.27
		c-0.312,0.18-0.503,0.43-0.574,0.749c-0.072,0.32-0.107,1.058-0.107,2.212v4.702h-3.625v-11.907H349.657z"/>
	<path d="M360.909,659.022v11.907h-3.688l0.063-0.989c-0.252,0.401-0.562,0.703-0.929,0.903c-0.368,0.201-0.791,0.302-1.27,0.302
		c-0.545,0-0.996-0.097-1.355-0.288c-0.358-0.19-0.623-0.445-0.794-0.763c-0.171-0.316-0.276-0.647-0.318-0.991
		s-0.063-1.027-0.063-2.05v-8.031h3.626v8.103c0,0.928,0.028,1.478,0.085,1.651s0.211,0.26,0.462,0.26c0.27,0,0.429-0.09,0.48-0.269
		c0.051-0.18,0.076-0.757,0.076-1.732v-8.013H360.909z"/>
	<path d="M365.898,659.022l-0.062,1.097c0.263-0.438,0.584-0.766,0.964-0.984c0.38-0.218,0.818-0.327,1.314-0.327
		c0.623,0,1.131,0.146,1.526,0.439c0.395,0.293,0.648,0.662,0.763,1.108c0.113,0.445,0.17,1.188,0.17,2.229v8.345h-3.625v-8.246
		c0-0.819-0.027-1.319-0.081-1.499c-0.054-0.179-0.203-0.269-0.448-0.269c-0.258,0-0.419,0.103-0.484,0.31
		c-0.066,0.206-0.099,0.758-0.099,1.655v8.049h-3.625v-11.907H365.898z"/>
	<path d="M380.057,659.022v9.171c0,1.238-0.028,2.038-0.085,2.399c-0.057,0.362-0.259,0.745-0.605,1.149
		c-0.347,0.403-0.83,0.711-1.449,0.924c-0.619,0.212-1.398,0.318-2.338,0.318c-1.154,0-2.081-0.196-2.781-0.588
		s-1.062-1.162-1.086-2.311h3.518c0,0.526,0.191,0.79,0.574,0.79c0.275,0,0.458-0.081,0.548-0.243
		c0.09-0.161,0.135-0.499,0.135-1.015v-0.898c-0.312,0.282-0.639,0.495-0.983,0.639c-0.344,0.145-0.704,0.217-1.081,0.217
		c-0.652,0-1.188-0.132-1.61-0.396c-0.422-0.263-0.711-0.608-0.866-1.036s-0.233-1.036-0.233-1.826v-4.325
		c0-1.13,0.203-1.943,0.61-2.44c0.407-0.496,1.026-0.744,1.857-0.744c0.455,0,0.869,0.093,1.243,0.278
		c0.373,0.186,0.707,0.465,1,0.836l0.261-0.899H380.057z M376.423,662.181c0-0.544-0.031-0.891-0.094-1.04
		c-0.063-0.15-0.202-0.225-0.418-0.225c-0.209,0-0.357,0.085-0.443,0.256c-0.087,0.17-0.131,0.507-0.131,1.009v4.002
		c0,0.533,0.033,0.878,0.099,1.037c0.066,0.158,0.204,0.237,0.413,0.237c0.239,0,0.395-0.096,0.467-0.287
		c0.071-0.191,0.107-0.625,0.107-1.301V662.181z"/>
	<path d="M389.784,663.599c0,0.79-0.264,1.44-0.79,1.952c-0.526,0.511-1.146,0.767-1.857,0.767c-0.735,0-1.362-0.259-1.88-0.776
		c-0.518-0.517-0.776-1.144-0.776-1.88c0-0.724,0.261-1.346,0.781-1.866s1.143-0.78,1.866-0.78c0.777,0,1.414,0.27,1.911,0.808
		C389.535,662.36,389.784,662.953,389.784,663.599z"/>
	<path d="M402.022,659.022l-1.471,4.742l1.911,7.165h-3.486l-1.131-5.189l-0.004,5.189h-3.625v-14.527h3.625l0.004,6.099
		l1.131-3.479H402.022z"/>
	<path d="M411.212,665.187h-4.693v2.576c0,0.538,0.039,0.885,0.117,1.04c0.077,0.156,0.228,0.233,0.448,0.233
		c0.275,0,0.459-0.103,0.552-0.31c0.093-0.206,0.14-0.605,0.14-1.197v-1.57h3.437v0.879c0,0.736-0.047,1.301-0.14,1.696
		c-0.093,0.395-0.31,0.816-0.65,1.265c-0.341,0.449-0.772,0.785-1.296,1.01s-1.181,0.337-1.97,0.337
		c-0.766,0-1.442-0.111-2.028-0.332c-0.586-0.222-1.042-0.525-1.368-0.911s-0.552-0.811-0.678-1.274
		c-0.125-0.463-0.188-1.138-0.188-2.023v-3.473c0-1.041,0.141-1.861,0.422-2.463c0.281-0.601,0.742-1.062,1.382-1.382
		c0.641-0.32,1.376-0.479,2.207-0.479c1.018,0,1.856,0.192,2.518,0.578s1.124,0.897,1.391,1.534
		c0.267,0.638,0.399,1.533,0.399,2.688V665.187z M407.578,663.249v-0.87c0-0.616-0.033-1.015-0.099-1.194
		c-0.066-0.179-0.201-0.269-0.404-0.269c-0.251,0-0.407,0.076-0.467,0.229s-0.09,0.564-0.09,1.234v0.87H407.578z"/>
	<path d="M416.129,656.402v1.894h-3.732v-1.894H416.129z M416.129,659.022v11.907h-3.732v-11.907H416.129z"/>
	<path d="M421.118,659.022l-0.062,1.097c0.263-0.438,0.584-0.766,0.964-0.984c0.38-0.218,0.818-0.327,1.314-0.327
		c0.623,0,1.131,0.146,1.526,0.439c0.395,0.293,0.648,0.662,0.763,1.108c0.113,0.445,0.17,1.188,0.17,2.229v8.345h-3.625v-8.246
		c0-0.819-0.027-1.319-0.081-1.499c-0.054-0.179-0.203-0.269-0.448-0.269c-0.258,0-0.419,0.103-0.484,0.31
		c-0.066,0.206-0.099,0.758-0.099,1.655v8.049h-3.625v-11.907H421.118z"/>
	<path d="M435.25,665.187h-4.693v2.576c0,0.538,0.039,0.885,0.117,1.04c0.077,0.156,0.228,0.233,0.448,0.233
		c0.275,0,0.459-0.103,0.552-0.31c0.093-0.206,0.14-0.605,0.14-1.197v-1.57h3.437v0.879c0,0.736-0.047,1.301-0.14,1.696
		c-0.093,0.395-0.31,0.816-0.65,1.265c-0.341,0.449-0.772,0.785-1.296,1.01s-1.181,0.337-1.97,0.337
		c-0.766,0-1.442-0.111-2.028-0.332c-0.586-0.222-1.042-0.525-1.368-0.911s-0.552-0.811-0.678-1.274
		c-0.125-0.463-0.188-1.138-0.188-2.023v-3.473c0-1.041,0.141-1.861,0.422-2.463c0.281-0.601,0.742-1.062,1.382-1.382
		c0.641-0.32,1.376-0.479,2.207-0.479c1.018,0,1.856,0.192,2.518,0.578s1.124,0.897,1.391,1.534
		c0.267,0.638,0.399,1.533,0.399,2.688V665.187z M431.616,663.249v-0.87c0-0.616-0.033-1.015-0.099-1.194
		c-0.066-0.179-0.201-0.269-0.404-0.269c-0.251,0-0.407,0.076-0.467,0.229s-0.09,0.564-0.09,1.234v0.87H431.616z"/>
	<path d="M447.785,660.799h-3.509v-1.076c0-0.503-0.045-0.822-0.135-0.96s-0.239-0.207-0.448-0.207
		c-0.228,0-0.399,0.093-0.516,0.278c-0.117,0.186-0.176,0.467-0.176,0.845c0,0.484,0.065,0.85,0.197,1.095
		c0.125,0.246,0.48,0.542,1.067,0.889c1.682,0.998,2.74,1.817,3.178,2.457c0.437,0.641,0.654,1.672,0.654,3.096
		c0,1.035-0.121,1.798-0.363,2.288s-0.71,0.901-1.404,1.233c-0.693,0.332-1.501,0.498-2.423,0.498c-1.011,0-1.873-0.191-2.588-0.574
		s-1.184-0.87-1.404-1.462c-0.222-0.593-0.332-1.433-0.332-2.521v-0.951h3.508v1.768c0,0.544,0.05,0.895,0.148,1.05
		s0.273,0.233,0.524,0.233c0.252,0,0.438-0.099,0.562-0.296c0.122-0.198,0.184-0.491,0.184-0.88c0-0.855-0.116-1.414-0.35-1.678
		c-0.239-0.264-0.829-0.703-1.768-1.319c-0.939-0.622-1.562-1.073-1.867-1.354c-0.305-0.281-0.558-0.67-0.758-1.167
		c-0.2-0.496-0.301-1.13-0.301-1.902c0-1.112,0.143-1.926,0.427-2.44s0.743-0.917,1.377-1.207s1.399-0.435,2.297-0.435
		c0.981,0,1.817,0.158,2.508,0.476c0.691,0.316,1.149,0.716,1.373,1.197c0.225,0.481,0.337,1.3,0.337,2.454V660.799z"/>
	<path d="M460.939,656.402v14.527h-3.302l-0.004-9.808l-1.315,9.808h-2.342l-1.386-9.583l-0.005,9.583h-3.302v-14.527h4.888
		c0.146,0.873,0.295,1.903,0.448,3.089l0.537,3.694l0.868-6.783H460.939z"/>
	<path d="M470.46,660.799h-3.509v-1.076c0-0.503-0.045-0.822-0.135-0.96s-0.239-0.207-0.448-0.207c-0.228,0-0.399,0.093-0.516,0.278
		c-0.117,0.186-0.176,0.467-0.176,0.845c0,0.484,0.065,0.85,0.197,1.095c0.125,0.246,0.48,0.542,1.067,0.889
		c1.682,0.998,2.74,1.817,3.178,2.457c0.437,0.641,0.654,1.672,0.654,3.096c0,1.035-0.121,1.798-0.363,2.288
		s-0.71,0.901-1.404,1.233c-0.693,0.332-1.501,0.498-2.423,0.498c-1.011,0-1.873-0.191-2.588-0.574s-1.184-0.87-1.404-1.462
		c-0.222-0.593-0.332-1.433-0.332-2.521v-0.951h3.508v1.768c0,0.544,0.05,0.895,0.148,1.05s0.273,0.233,0.524,0.233
		c0.252,0,0.438-0.099,0.562-0.296c0.122-0.198,0.184-0.491,0.184-0.88c0-0.855-0.116-1.414-0.35-1.678
		c-0.239-0.264-0.829-0.703-1.768-1.319c-0.939-0.622-1.562-1.073-1.867-1.354c-0.305-0.281-0.558-0.67-0.758-1.167
		c-0.2-0.496-0.301-1.13-0.301-1.902c0-1.112,0.143-1.926,0.427-2.44s0.743-0.917,1.377-1.207s1.399-0.435,2.297-0.435
		c0.981,0,1.817,0.158,2.508,0.476c0.691,0.316,1.149,0.716,1.373,1.197c0.225,0.481,0.337,1.3,0.337,2.454V660.799z"/>
	<path d="M480.286,663.599c0,0.79-0.264,1.44-0.79,1.952c-0.526,0.511-1.146,0.767-1.857,0.767c-0.735,0-1.362-0.259-1.88-0.776
		c-0.518-0.517-0.776-1.144-0.776-1.88c0-0.724,0.261-1.346,0.781-1.866s1.143-0.78,1.866-0.78c0.777,0,1.414,0.27,1.911,0.808
		C480.037,662.36,480.286,662.953,480.286,663.599z"/>
	<path d="M492.524,659.022l-1.471,4.742l1.911,7.165h-3.486l-1.131-5.189l-0.004,5.189h-3.625v-14.527h3.625l0.004,6.099
		l1.131-3.479H492.524z"/>
</g>
<g>
	<path d="M501.682,665.187h-4.693v2.576c0,0.538,0.039,0.885,0.117,1.04c0.077,0.156,0.228,0.233,0.448,0.233
		c0.275,0,0.459-0.103,0.552-0.31c0.093-0.206,0.14-0.605,0.14-1.197v-1.57h3.437v0.879c0,0.736-0.047,1.301-0.14,1.696
		c-0.093,0.395-0.31,0.816-0.65,1.265c-0.341,0.449-0.772,0.785-1.296,1.01s-1.181,0.337-1.97,0.337
		c-0.766,0-1.442-0.111-2.028-0.332c-0.586-0.222-1.042-0.525-1.368-0.911s-0.552-0.811-0.678-1.274
		c-0.125-0.463-0.188-1.138-0.188-2.023v-3.473c0-1.041,0.141-1.861,0.422-2.463c0.281-0.601,0.742-1.062,1.382-1.382
		c0.641-0.32,1.376-0.479,2.207-0.479c1.018,0,1.856,0.192,2.518,0.578s1.124,0.897,1.391,1.534
		c0.267,0.638,0.399,1.533,0.399,2.688V665.187z M498.048,663.249v-0.87c0-0.616-0.033-1.015-0.099-1.194
		c-0.066-0.179-0.201-0.269-0.404-0.269c-0.251,0-0.407,0.076-0.467,0.229s-0.09,0.564-0.09,1.234v0.87H498.048z"/>
	<path d="M506.599,656.402v1.894h-3.732v-1.894H506.599z M506.599,659.022v11.907h-3.732v-11.907H506.599z"/>
	<path d="M511.588,659.022l-0.062,1.097c0.263-0.438,0.584-0.766,0.964-0.984c0.38-0.218,0.818-0.327,1.314-0.327
		c0.623,0,1.131,0.146,1.526,0.439c0.395,0.293,0.648,0.662,0.763,1.108c0.113,0.445,0.17,1.188,0.17,2.229v8.345h-3.625v-8.246
		c0-0.819-0.027-1.319-0.081-1.499c-0.054-0.179-0.203-0.269-0.448-0.269c-0.258,0-0.419,0.103-0.484,0.31
		c-0.066,0.206-0.099,0.758-0.099,1.655v8.049H507.9v-11.907H511.588z"/>
	<path d="M529.678,662.729H525.9v-2.525c0-0.733-0.041-1.192-0.121-1.374c-0.081-0.182-0.259-0.273-0.534-0.273
		c-0.312,0-0.509,0.111-0.593,0.332c-0.083,0.222-0.125,0.7-0.125,1.436v6.748c0,0.706,0.042,1.166,0.125,1.382
		c0.084,0.216,0.272,0.323,0.565,0.323c0.281,0,0.466-0.108,0.552-0.324c0.087-0.216,0.131-0.723,0.131-1.52v-1.826h3.777v0.565
		c0,1.504-0.106,2.57-0.318,3.199c-0.213,0.629-0.683,1.181-1.409,1.654c-0.727,0.473-1.622,0.709-2.688,0.709
		c-1.106,0-2.019-0.2-2.736-0.601c-0.718-0.401-1.193-0.956-1.427-1.665s-0.35-1.774-0.35-3.198v-4.244
		c0-1.047,0.035-1.832,0.107-2.355c0.071-0.523,0.285-1.027,0.642-1.513c0.355-0.484,0.85-0.865,1.48-1.144s1.356-0.417,2.176-0.417
		c1.112,0,2.031,0.215,2.755,0.645c0.724,0.431,1.199,0.967,1.427,1.609c0.228,0.642,0.341,1.641,0.341,2.997V662.729z"/>
	<path d="M539.126,663.204v2.916c0,1.071-0.054,1.856-0.162,2.355c-0.107,0.5-0.338,0.966-0.69,1.399
		c-0.354,0.435-0.807,0.754-1.359,0.961c-0.554,0.206-1.189,0.31-1.907,0.31c-0.802,0-1.48-0.089-2.036-0.266
		c-0.557-0.176-0.989-0.442-1.297-0.798c-0.309-0.356-0.528-0.787-0.66-1.292c-0.131-0.506-0.197-1.264-0.197-2.275v-3.051
		c0-1.106,0.12-1.971,0.359-2.593s0.67-1.122,1.292-1.499s1.418-0.564,2.387-0.564c0.813,0,1.512,0.121,2.096,0.363
		c0.583,0.242,1.033,0.558,1.35,0.946c0.317,0.389,0.534,0.79,0.651,1.202C539.067,661.732,539.126,662.36,539.126,663.204z
		 M535.501,662.307c0-0.61-0.033-0.994-0.099-1.153c-0.066-0.158-0.207-0.237-0.422-0.237c-0.216,0-0.359,0.079-0.431,0.237
		c-0.072,0.159-0.108,0.543-0.108,1.153v5.375c0,0.562,0.036,0.929,0.108,1.099c0.071,0.171,0.212,0.256,0.422,0.256
		c0.215,0,0.356-0.077,0.426-0.233c0.068-0.155,0.104-0.49,0.104-1.005V662.307z"/>
	<path d="M548.619,659.022v11.907h-3.688l0.063-0.989c-0.252,0.401-0.562,0.703-0.929,0.903c-0.368,0.201-0.791,0.302-1.27,0.302
		c-0.545,0-0.996-0.097-1.355-0.288c-0.358-0.19-0.623-0.445-0.794-0.763c-0.171-0.316-0.276-0.647-0.318-0.991
		s-0.063-1.027-0.063-2.05v-8.031h3.626v8.103c0,0.928,0.028,1.478,0.085,1.651s0.211,0.26,0.462,0.26c0.27,0,0.429-0.09,0.48-0.269
		c0.051-0.18,0.076-0.757,0.076-1.732v-8.013H548.619z"/>
	<path d="M553.608,659.022l-0.062,1.052c0.322-0.425,0.679-0.743,1.067-0.952c0.389-0.21,0.813-0.314,1.274-0.314
		c0.562,0,1.048,0.15,1.458,0.453c0.409,0.302,0.665,0.65,0.768,1.045c0.102,0.395,0.152,1.064,0.152,2.01v5.016
		c0,1.083-0.064,1.854-0.193,2.311c-0.129,0.458-0.392,0.823-0.789,1.095c-0.398,0.272-0.878,0.409-1.44,0.409
		c-0.449,0-0.864-0.105-1.247-0.315c-0.383-0.209-0.733-0.521-1.05-0.935v2.73h-3.625v-13.604H553.608z M554.641,662.486
		c0-0.736-0.027-1.182-0.081-1.337c-0.054-0.156-0.203-0.233-0.448-0.233c-0.24,0-0.394,0.09-0.463,0.269
		c-0.068,0.18-0.103,0.613-0.103,1.302v4.935c0,0.718,0.035,1.167,0.107,1.347c0.071,0.179,0.228,0.269,0.467,0.269
		c0.233,0,0.378-0.082,0.435-0.246c0.057-0.165,0.086-0.564,0.086-1.198V662.486z"/>
	<path d="M567.66,663.204v2.916c0,1.071-0.054,1.856-0.162,2.355c-0.107,0.5-0.338,0.966-0.69,1.399
		c-0.354,0.435-0.807,0.754-1.359,0.961c-0.554,0.206-1.189,0.31-1.907,0.31c-0.802,0-1.48-0.089-2.036-0.266
		c-0.557-0.176-0.989-0.442-1.297-0.798c-0.309-0.356-0.528-0.787-0.66-1.292c-0.131-0.506-0.197-1.264-0.197-2.275v-3.051
		c0-1.106,0.12-1.971,0.359-2.593s0.67-1.122,1.292-1.499s1.418-0.564,2.387-0.564c0.813,0,1.512,0.121,2.096,0.363
		c0.583,0.242,1.033,0.558,1.35,0.946c0.317,0.389,0.534,0.79,0.651,1.202C567.602,661.732,567.66,662.36,567.66,663.204z
		 M564.035,662.307c0-0.61-0.033-0.994-0.099-1.153c-0.066-0.158-0.207-0.237-0.422-0.237c-0.216,0-0.359,0.079-0.431,0.237
		c-0.072,0.159-0.108,0.543-0.108,1.153v5.375c0,0.562,0.036,0.929,0.108,1.099c0.071,0.171,0.212,0.256,0.422,0.256
		c0.215,0,0.356-0.077,0.426-0.233c0.068-0.155,0.104-0.49,0.104-1.005V662.307z"/>
	<path d="M572.541,659.022l-0.062,1.097c0.263-0.438,0.584-0.766,0.964-0.984c0.38-0.218,0.818-0.327,1.314-0.327
		c0.623,0,1.131,0.146,1.526,0.439c0.395,0.293,0.648,0.662,0.763,1.108c0.113,0.445,0.17,1.188,0.17,2.229v8.345h-3.625v-8.246
		c0-0.819-0.027-1.319-0.081-1.499c-0.054-0.179-0.203-0.269-0.448-0.269c-0.258,0-0.419,0.103-0.484,0.31
		c-0.066,0.206-0.099,0.758-0.099,1.655v8.049h-3.625v-11.907H572.541z"/>
</g>
</svg>
