<?xml version="1.0" encoding="UTF-8" standalone="no"?>
<!-- Created with Inkscape (http://www.inkscape.org/) -->

<svg
   xmlns:dc="http://purl.org/dc/elements/1.1/"
   xmlns:cc="http://creativecommons.org/ns#"
   xmlns:rdf="http://www.w3.org/1999/02/22-rdf-syntax-ns#"
   xmlns:svg="http://www.w3.org/2000/svg"
   xmlns="http://www.w3.org/2000/svg"
   xmlns:xlink="http://www.w3.org/1999/xlink"
   xmlns:sodipodi="http://sodipodi.sourceforge.net/DTD/sodipodi-0.dtd"
   xmlns:inkscape="http://www.inkscape.org/namespaces/inkscape"
   id="svg2"
   version="1.1"
   inkscape:version="0.48.4 r9939"
   width="526.17499"
   height="372.04999"
   xml:space="preserve"
   sodipodi:docname="Vorderseite-GT-mit-Wasserturm.svg"
   inkscape:export-filename="/home/hej/c3pb/freifunk/PR/Postkarte/Vorderseite_600dpi.png"
   inkscape:export-xdpi="600"
   inkscape:export-ydpi="600"><metadata
     id="metadata8"><rdf:RDF><cc:Work
         rdf:about=""><dc:format>image/svg+xml</dc:format><dc:type
           rdf:resource="http://purl.org/dc/dcmitype/StillImage" /><dc:title /></cc:Work></rdf:RDF></metadata><defs
     id="defs6"><clipPath
       clipPathUnits="userSpaceOnUse"
       id="clipPath18"><path
         d="m 0,0 0,2976 4209,0 L 4209,0 0,0 z"
         id="path20"
         inkscape:connector-curvature="0" /></clipPath><clipPath
       clipPathUnits="userSpaceOnUse"
       id="clipPath24"><path
         d="m 4259.05,-27.5195 -4308.6555,0 0,3075.2695 4308.6555,0 0,-3075.2695 m -525.56,2106.1495 0,0 14.09,14.04 0,0.01 c -16.28,16.34 -37.75,24.57 -59.13,24.57 l -0.05,0 0,0 0,0 -0.05,0 c -21.29,0 -42.67,-8.15 -58.93,-24.37 l 14.04,-14.09 c 12.45,12.4 28.65,18.56 44.94,18.57 16.36,-0.01 32.63,-6.23 45.09,-18.73 m 23.18,23.1 0,0 14.09,14.04 c -22.68,22.76 -52.53,34.19 -82.31,34.19 l -0.04,0 0,0 0,0 -0.05,0 c -29.64,0 -59.38,-11.32 -82.03,-33.91 l 0,0 14.04,-14.09 c 18.84,18.77 43.39,28.1 68.04,28.11 24.75,-0.01 49.41,-9.43 68.26,-28.35 m -68.27,61.07 c 33.14,-0.02 66.19,-12.65 91.44,-37.97 l 14.09,14.04 0,0 c -29.07,29.18 -67.32,43.82 -105.48,43.82 -0.02,0 -0.04,0 -0.05,0 -0.02,0 -0.03,0 -0.05,0 -37.99,0 -76.07,-14.51 -105.11,-43.45 l 0,0 14.04,-14.09 c 25.22,25.12 58.12,37.63 91.12,37.65"
         id="path26"
         inkscape:connector-curvature="0" /></clipPath><linearGradient
       x1="0"
       y1="0"
       x2="1"
       y2="0"
       gradientUnits="userSpaceOnUse"
       gradientTransform="matrix(0,307.526,307.526,0,210.375,-2.75203)"
       spreadMethod="pad"
       id="linearGradient28"><stop
         style="stop-color:#ffedbb;stop-opacity:1;"
         offset="0"
         id="stop30" /><stop
         style="stop-color:#fecd43;stop-opacity:1;"
         offset="1"
         id="stop32" /></linearGradient><clipPath
       clipPathUnits="userSpaceOnUse"
       id="clipPath42"><path
         d="m 163.488,2893.7 655.016,0 0,-496.06 -655.016,0 0,496.06 z"
         id="path44"
         inkscape:connector-curvature="0" /></clipPath><clipPath
       clipPathUnits="userSpaceOnUse"
       id="clipPath64"><path
         d="m 3583.24,2182.68 210.69,0 0,-165.36 -210.69,0 0,165.36"
         id="path66"
         inkscape:connector-curvature="0" /></clipPath><clipPath
       clipPathUnits="userSpaceOnUse"
       id="clipPath76"><path
         d="m 3733.49,2078.63 0,0 c -12.46,12.5 -28.73,18.72 -45.09,18.73 -16.29,-0.01 -32.49,-6.17 -44.94,-18.57 l -14.04,14.09 c 16.26,16.22 37.64,24.37 58.93,24.37 l 0.05,0 0,0 0,0 0.05,0 c 21.38,0 42.85,-8.23 59.13,-24.57 l 0,-0.01 -14.09,-14.04"
         id="path78"
         inkscape:connector-curvature="0" /></clipPath><linearGradient
       x1="0"
       y1="0"
       x2="1"
       y2="0"
       gradientUnits="userSpaceOnUse"
       gradientTransform="matrix(0,307.526,307.526,0,210.375,-2.75203)"
       spreadMethod="pad"
       id="linearGradient80"><stop
         style="stop-opacity:1;stop-color:#e94a86"
         offset="0"
         id="stop82" /><stop
         style="stop-opacity:1;stop-color:#e9436c"
         offset="1"
         id="stop84" /></linearGradient><clipPath
       clipPathUnits="userSpaceOnUse"
       id="clipPath92"><path
         d="m 3756.67,2101.73 0,0 c -18.85,18.91 -43.51,28.33 -68.26,28.34 -24.65,-0.01 -49.2,-9.34 -68.04,-28.11 l -14.04,14.09 0,0 c 22.65,22.59 52.39,33.91 82.03,33.91 l 0.05,0 0,0 0,0 0.04,0 c 29.78,0 59.63,-11.43 82.31,-34.19 l 0,0 -14.09,-14.04"
         id="path94"
         inkscape:connector-curvature="0" /></clipPath><linearGradient
       x1="0"
       y1="0"
       x2="1"
       y2="0"
       gradientUnits="userSpaceOnUse"
       gradientTransform="matrix(0,307.526,307.526,0,210.375,-2.75203)"
       spreadMethod="pad"
       id="linearGradient96"><stop
         style="stop-opacity:1;stop-color:#ef759f"
         offset="0"
         id="stop98" /><stop
         style="stop-opacity:1;stop-color:#ee6562"
         offset="1"
         id="stop100" /></linearGradient><clipPath
       clipPathUnits="userSpaceOnUse"
       id="clipPath108"><path
         d="m 3779.84,2124.82 c -25.25,25.32 -58.3,37.95 -91.44,37.97 -33,-0.02 -65.9,-12.53 -91.12,-37.65 l -14.04,14.09 0,0 c 29.04,28.94 67.12,43.45 105.11,43.45 0.02,0 0.03,0 0.05,0 0.01,0 0.03,0 0.05,0 38.16,0 76.41,-14.64 105.48,-43.82 l 0,0 -14.09,-14.04"
         id="path110"
         inkscape:connector-curvature="0" /></clipPath><linearGradient
       x1="0"
       y1="0"
       x2="1"
       y2="0"
       gradientUnits="userSpaceOnUse"
       gradientTransform="matrix(0,307.526,307.526,0,210.375,-2.75203)"
       spreadMethod="pad"
       id="linearGradient112"><stop
         style="stop-opacity:1;stop-color:#f4a2bb"
         offset="0"
         id="stop114" /><stop
         style="stop-opacity:1;stop-color:#f28655"
         offset="1"
         id="stop116" /></linearGradient><clipPath
       clipPathUnits="userSpaceOnUse"
       id="clipPath134"><path
         d="m 3462.09,1353.86 545.109,0 0,713.07 -545.109,0 0,-713.07 z"
         id="path136"
         inkscape:connector-curvature="0" /></clipPath><clipPath
       clipPathUnits="userSpaceOnUse"
       id="clipPath64-9"><path
         d="m 3583.24,2182.68 210.69,0 0,-165.36 -210.69,0 0,165.36"
         id="path66-8"
         inkscape:connector-curvature="0" /></clipPath><clipPath
       clipPathUnits="userSpaceOnUse"
       id="clipPath76-2"><path
         d="m 3733.49,2078.63 0,0 c -12.46,12.5 -28.73,18.72 -45.09,18.73 -16.29,-0.01 -32.49,-6.17 -44.94,-18.57 l -14.04,14.09 c 16.26,16.22 37.64,24.37 58.93,24.37 l 0.05,0 0,0 0,0 0.05,0 c 21.38,0 42.85,-8.23 59.13,-24.57 l 0,-0.01 -14.09,-14.04"
         id="path78-6"
         inkscape:connector-curvature="0" /></clipPath><linearGradient
       inkscape:collect="always"
       xlink:href="#linearGradient80-1"
       id="linearGradient3232-4"
       gradientUnits="userSpaceOnUse"
       gradientTransform="matrix(0,307.526,307.526,0,210.375,-2.75203)"
       spreadMethod="pad"
       x1="0"
       y1="0"
       x2="1"
       y2="0" /><linearGradient
       x1="0"
       y1="0"
       x2="1"
       y2="0"
       gradientUnits="userSpaceOnUse"
       gradientTransform="matrix(0,307.526,307.526,0,210.375,-2.75203)"
       spreadMethod="pad"
       id="linearGradient80-1"><stop
         style="stop-opacity:1;stop-color:#e94a86"
         offset="0"
         id="stop82-8" /><stop
         style="stop-opacity:1;stop-color:#e9436c"
         offset="1"
         id="stop84-6" /></linearGradient><clipPath
       clipPathUnits="userSpaceOnUse"
       id="clipPath92-5"><path
         d="m 3756.67,2101.73 0,0 c -18.85,18.91 -43.51,28.33 -68.26,28.34 -24.65,-0.01 -49.2,-9.34 -68.04,-28.11 l -14.04,14.09 0,0 c 22.65,22.59 52.39,33.91 82.03,33.91 l 0.05,0 0,0 0,0 0.04,0 c 29.78,0 59.63,-11.43 82.31,-34.19 l 0,0 -14.09,-14.04"
         id="path94-0"
         inkscape:connector-curvature="0" /></clipPath><linearGradient
       inkscape:collect="always"
       xlink:href="#linearGradient96-5"
       id="linearGradient3234-6"
       gradientUnits="userSpaceOnUse"
       gradientTransform="matrix(0,307.526,307.526,0,210.375,-2.75203)"
       spreadMethod="pad"
       x1="0"
       y1="0"
       x2="1"
       y2="0" /><linearGradient
       x1="0"
       y1="0"
       x2="1"
       y2="0"
       gradientUnits="userSpaceOnUse"
       gradientTransform="matrix(0,307.526,307.526,0,210.375,-2.75203)"
       spreadMethod="pad"
       id="linearGradient96-5"><stop
         style="stop-opacity:1;stop-color:#ef759f"
         offset="0"
         id="stop98-2" /><stop
         style="stop-opacity:1;stop-color:#ee6562"
         offset="1"
         id="stop100-4" /></linearGradient><clipPath
       clipPathUnits="userSpaceOnUse"
       id="clipPath108-0"><path
         d="m 3779.84,2124.82 c -25.25,25.32 -58.3,37.95 -91.44,37.97 -33,-0.02 -65.9,-12.53 -91.12,-37.65 l -14.04,14.09 0,0 c 29.04,28.94 67.12,43.45 105.11,43.45 0.02,0 0.03,0 0.05,0 0.01,0 0.03,0 0.05,0 38.16,0 76.41,-14.64 105.48,-43.82 l 0,0 -14.09,-14.04"
         id="path110-6"
         inkscape:connector-curvature="0" /></clipPath><linearGradient
       inkscape:collect="always"
       xlink:href="#linearGradient112-2"
       id="linearGradient3236-5"
       gradientUnits="userSpaceOnUse"
       gradientTransform="matrix(0,307.526,307.526,0,210.375,-2.75203)"
       spreadMethod="pad"
       x1="0"
       y1="0"
       x2="1"
       y2="0" /><linearGradient
       x1="0"
       y1="0"
       x2="1"
       y2="0"
       gradientUnits="userSpaceOnUse"
       gradientTransform="matrix(0,307.526,307.526,0,210.375,-2.75203)"
       spreadMethod="pad"
       id="linearGradient112-2"><stop
         style="stop-opacity:1;stop-color:#f4a2bb"
         offset="0"
         id="stop114-1" /><stop
         style="stop-opacity:1;stop-color:#f28655"
         offset="1"
         id="stop116-5" /></linearGradient><linearGradient
       inkscape:collect="always"
       xlink:href="#linearGradient28"
       id="linearGradient5223"
       x1="293.96542"
       y1="982.66431"
       x2="293.96542"
       y2="2328.9011"
       gradientUnits="userSpaceOnUse" /><linearGradient
       inkscape:collect="always"
       xlink:href="#linearGradient28"
       id="linearGradient4200"
       gradientUnits="userSpaceOnUse"
       x1="293.96542"
       y1="982.66431"
       x2="293.96542"
       y2="2328.9011" /><linearGradient
       inkscape:collect="always"
       xlink:href="#linearGradient80-1"
       id="linearGradient4202"
       gradientUnits="userSpaceOnUse"
       gradientTransform="matrix(0,307.526,307.526,0,210.375,-2.75203)"
       spreadMethod="pad"
       x1="0"
       y1="0"
       x2="1"
       y2="0" /><linearGradient
       inkscape:collect="always"
       xlink:href="#linearGradient96-5"
       id="linearGradient4204"
       gradientUnits="userSpaceOnUse"
       gradientTransform="matrix(0,307.526,307.526,0,210.375,-2.75203)"
       spreadMethod="pad"
       x1="0"
       y1="0"
       x2="1"
       y2="0" /><linearGradient
       inkscape:collect="always"
       xlink:href="#linearGradient112-2"
       id="linearGradient4206"
       gradientUnits="userSpaceOnUse"
       gradientTransform="matrix(0,307.526,307.526,0,210.375,-2.75203)"
       spreadMethod="pad"
       x1="0"
       y1="0"
       x2="1"
       y2="0" /><linearGradient
       inkscape:collect="always"
       xlink:href="#linearGradient28"
       id="linearGradient4289"
       gradientUnits="userSpaceOnUse"
       x1="293.96542"
       y1="982.66431"
       x2="293.96542"
       y2="2328.9011"
       gradientTransform="scale(0.1,0.1)" /></defs><sodipodi:namedview
     pagecolor="#ffffff"
     bordercolor="#666666"
     borderopacity="1"
     objecttolerance="10"
     gridtolerance="10"
     guidetolerance="10"
     inkscape:pageopacity="0"
     inkscape:pageshadow="2"
     inkscape:window-width="1600"
     inkscape:window-height="824"
     id="namedview4"
     showgrid="false"
     showguides="true"
     inkscape:guide-bbox="true"
     inkscape:zoom="1.5995625"
     inkscape:cx="238.88165"
     inkscape:cy="210.74682"
     inkscape:window-x="0"
     inkscape:window-y="24"
     inkscape:window-maximized="1"
     inkscape:current-layer="g10"
     inkscape:document-units="mm"
     units="mm"><sodipodi:guide
       orientation="1,0"
       position="44.589673,230.19419"
       id="guide3219" /><sodipodi:guide
       orientation="1,0"
       position="418.58555,239.11212"
       id="guide3221" /><sodipodi:guide
       orientation="1,0"
       position="-3.5433071,0"
       id="guide3092" /><sodipodi:guide
       orientation="0,1"
       position="-3.5433071,375.59055"
       id="guide3094" /><sodipodi:guide
       orientation="1,0"
       position="529.72441,375.59055"
       id="guide3096" /><sodipodi:guide
       orientation="0,1"
       position="529.72441,-3.5433071"
       id="guide3098" /><sodipodi:guide
       orientation="1,0"
       position="0,0"
       id="guide3112" /><sodipodi:guide
       orientation="0,1"
       position="0,372.04724"
       id="guide3114" /><sodipodi:guide
       orientation="0,1"
       position="526.1811,0"
       id="guide3116" /><sodipodi:guide
       orientation="1,0"
       position="526.1811,372.04724"
       id="guide3118" /><sodipodi:guide
       orientation="1,0"
       position="14.173228,357.87402"
       id="guide3139" /><sodipodi:guide
       orientation="0,1"
       position="512.00787,357.87402"
       id="guide3141" /><sodipodi:guide
       orientation="1,0"
       position="512.00787,14.173228"
       id="guide3143" /><sodipodi:guide
       orientation="0,1"
       position="14.173228,14.173228"
       id="guide3145" /></sodipodi:namedview><g
     id="g10"
     inkscape:groupmode="layer"
     inkscape:label="ink_ext_XXXXXX"
     transform="matrix(1.25,0,0,-1.25,0,372.04993)"><path
       d="m -2.8346457,-2.8346919 0,303.3070819 426.6141757,0 0,-303.3070819 z"
       style="fill:url(#linearGradient4289);fill-opacity:1;fill-rule:nonzero;stroke:none"
       id="path34"
       inkscape:connector-curvature="0"
       sodipodi:nodetypes="ccccc" /><g
       transform="matrix(0.93539436,0,0,-0.93539436,-440.26375,1049.2687)"
       id="g5142"
       style="opacity:0.2"><circle
         d="M 96,44 C 96,56.150264 86.150264,66 74,66 61.849736,66 52,56.150264 52,44 52,31.849736 61.849736,22 74,22 c 12.150264,0 22,9.849736 22,22 z"
         transform="matrix(4.55969,0,0,4.55969,546.721,695.743)"
         style="fill:none;stroke:#e09900;stroke-width:1px;stroke-opacity:1"
         sodipodi:ry="22"
         sodipodi:rx="22"
         sodipodi:cy="44"
         sodipodi:cx="74"
         id="circle6"
         r="22"
         cy="44"
         cx="74" /><path
         sodipodi:nodetypes="cscscccccccccscsscccccccsssscccssssscsccsccsscccsscccccscssccsssscsssscssssscssccscssscssssssccsscsscsscccscscccsccccsssccsccccsscssccsccssssscscccccsssscscscccccccsccccc"
         inkscape:connector-curvature="0"
         id="path3050-0"
         d="m 949.86911,1007.2842 c -1.89717,0.2717 3.7208,9.1257 -5.20618,8.9819 -5.774,-0.093 -11.58478,-0.1851 -12.91279,-0.2046 -1.32802,-0.02 -6.71363,-0.1131 -11.96793,-0.2078 -5.25436,-0.095 -10.07306,-0.1411 -10.70818,-0.103 -0.63519,0.038 -1.72174,0.051 -2.41463,0.029 -0.69283,-0.022 -16.28267,-0.1301 -34.64402,-0.2406 -38.40231,1.0423 -64.9006,-3.924 -69.28401,-8.8188 -11.32983,2.4244 -33.58697,-38.49408 -4.11957,-49.96333 0.87599,0 1.17968,-0.10831 1.77894,-0.63447 0.39744,-0.34898 1.25211,-0.81666 1.89926,-1.0393 0.64714,-0.22267 1.44885,-0.56562 1.78156,-0.76216 0.56501,-0.33378 0.66216,-0.33444 1.47172,-0.0104 0.47674,0.19073 1.30312,0.34682 1.83639,0.34682 0.83936,0 1.09198,0.11282 1.88072,0.83987 0.50115,0.46189 0.99354,0.83981 1.09421,0.83981 0.10067,0 0.59885,-0.28173 1.10699,-0.62604 0.56834,-0.38511 1.19743,-0.62756 1.63447,-0.6299 0.39079,0 1.06638,-0.11044 1.50135,-0.24075 1.24462,-0.37289 2.52335,-0.0786 3.57661,0.82304 l 0.90953,0.77865 3.00162,0.0337 c 1.65088,0.0188 3.05479,-0.0523 3.11977,-0.15747 0.24963,-0.40387 0.66754,-0.14989 1.62288,0.98638 0.55584,0.66112 0.99009,1.39075 0.99009,1.66361 0,0.62901 0.96802,1.77801 1.49797,1.77801 0.84308,0 1.40047,-0.89121 1.55816,-2.4914 0.18811,-1.90902 0.39696,-2.09631 1.83658,-1.64691 1.26342,0.39439 4.06866,0.28444 5.02187,-0.19686 1.67094,-0.84365 1.07985,-2.61959 -1.30191,-3.91159 -0.64385,-0.34924 -0.6804,-0.42829 -0.57193,-1.23696 0.0904,-0.67411 0.34741,-1.09953 1.16994,-1.93651 1.26449,-1.28672 1.4337,-1.6966 1.46101,-3.53908 0.0305,-2.05795 0.18868,-2.25776 1.78735,-2.25776 1.70539,0 3.22242,-0.71735 3.99916,-1.89109 0.65394,-0.98815 1.33153,-1.36372 2.79851,-1.55099 1.0456,-0.13348 1.13221,-0.10599 1.92726,0.61231 0.75505,0.68215 0.97536,0.76257 2.36959,0.86498 1.76544,0.12964 4.46041,0.62538 5.01578,0.9226 0.20796,0.11129 0.92759,0.20295 1.59921,0.20374 0.86527,0 1.40463,0.12294 1.85098,0.41854 0.86347,0.57187 1.49231,0.53094 1.92217,-0.12515 0.30299,-0.46239 0.32325,-0.70914 0.13371,-1.62721 -0.18427,-0.89243 -0.16502,-1.19261 0.10977,-1.71205 0.48389,-0.91479 0.63041,-2.44413 0.87494,-9.13344 0.12031,-3.29119 0.29785,-7.30677 0.39452,-8.92348 0.10315,-1.72481 0.0968,-3.2262 -0.0155,-3.63328 -0.13726,-0.49792 -0.10282,-0.94248 0.12197,-1.57473 0.51105,-1.43752 0.6419,-4.00653 0.8041,-15.78841 0.0306,-2.22371 -0.0226,-2.6502 -0.45356,-3.63207 -0.42029,-0.95769 -0.45613,-1.22066 -0.25753,-1.88968 0.32173,-1.08371 0.51332,-5.53013 0.33368,-7.74396 l -0.14985,-1.84696 -1.09337,-1.15718 c -0.60137,-0.63643 -1.22432,-1.39337 -1.38434,-1.68208 -0.24294,-0.43822 -0.29095,-4.28782 -0.29095,-23.33245 l 0,-22.80762 -0.95507,-1.0233 c -0.52529,-0.56282 -1.34814,-1.5902 -1.82856,-2.28309 -0.48042,-0.69288 -1.06423,-1.49599 -1.29737,-1.78468 -0.23313,-0.28871 -0.42597,-0.68242 -0.42854,-0.87492 -0.005,-0.40143 2.71522,-4.51747 3.41444,-5.16581 0.25586,-0.23726 2.06519,-1.05977 4.02069,-1.82782 1.95548,-0.76805 4.12864,-1.68408 4.82918,-2.03561 0.96867,-0.4861 1.68581,-0.67259 2.99471,-0.77879 1.26681,-0.10278 1.87965,-0.25697 2.3224,-0.58428 0.33076,-0.24455 1.20981,-0.74784 1.95341,-1.1184 0.74352,-0.37056 1.77712,-1.08388 2.29676,-1.58515 0.51964,-0.50127 1.67965,-1.2856 2.57781,-1.74296 0.89817,-0.45736 1.7798,-0.95341 1.95923,-1.10233 0.26681,-0.22141 0.40835,-0.21947 0.77686,0.0106 0.24784,0.15478 1.11414,0.55471 1.92511,0.88873 0.85894,0.35377 1.8251,0.94916 2.31435,1.42617 0.68155,0.66452 1.19601,0.92015 2.72957,1.35628 1.03928,0.29558 2.22037,0.67061 2.62452,0.83341 0.795,0.32021 2.91894,0.87972 4.36734,1.1505 0.49653,0.0928 1.19013,0.38117 1.5412,0.64074 0.35107,0.25957 2.49313,1.20705 4.76007,2.10552 2.26694,0.89846 4.18337,1.76328 4.25866,1.92183 0.63435,1.33581 1.87097,4.80877 1.87048,5.25317 0,0.37997 -0.24952,0.77205 -0.788,1.2401 -0.43301,0.37645 -1.29503,1.26021 -1.91545,1.96392 l -1.12815,1.27946 0.13895,8.92347 c 0.0764,4.90791 0.22753,9.30142 0.33574,9.76334 0.11177,0.47696 0.19896,6.88212 0.20183,14.82369 l 0.007,13.98382 -1.04166,0.95954 c -0.57294,0.52774 -1.10153,1.19798 -1.17465,1.48943 -0.0732,0.29145 -0.0952,2.30669 -0.0491,4.47832 0.0651,3.04689 0.17529,4.27178 0.48343,5.36468 0.35772,1.26881 0.36872,1.50925 0.10547,2.3096 -0.34316,1.04345 -0.35499,4.14582 -0.0462,12.02145 0.11822,3.01285 0.32159,5.65161 0.47734,6.19393 0.18033,0.62783 0.27887,2.45948 0.29371,5.45907 0.0119,2.48282 0.13328,5.78977 0.26893,7.34877 0.13572,1.55894 0.35562,4.48796 0.48875,6.50885 0.19007,2.88528 0.33014,3.8477 0.65207,4.48151 0.36809,0.72467 0.38286,0.91287 0.14455,1.84272 -0.2115,0.82521 -0.2141,1.55718 -0.0126,3.60217 0.13901,1.41158 0.25064,3.70029 0.24798,5.08604 -0.007,2.6103 0.48036,9.39306 0.89235,12.47057 0.20449,1.52819 0.34239,1.90416 1.03717,2.8289 0.44072,0.58654 0.79963,1.11622 0.79753,1.17707 0,0.0609 -0.28552,0.5264 -0.62987,1.03459 -0.72903,1.07587 -0.78352,1.75487 -0.21542,2.68651 0.48015,0.78739 1.45766,1.05851 2.78596,0.77269 1.19095,-0.25624 1.77391,-1.05105 1.45071,-1.97803 -0.22866,-0.65609 -0.20114,-0.7101 0.90208,-1.7701 0.80943,-0.77773 1.17878,-1.31116 1.27941,-1.84781 0.18181,-0.96889 0.59346,-1.32678 1.88737,-1.64104 0.57594,-0.13989 1.37781,-0.33329 1.78203,-0.42986 1.73946,-0.41559 2.67887,-1.49974 2.43081,-2.80524 -0.4059,-2.1363 -0.41402,-2.06783 0.30773,-2.59972 l 0.67854,-0.50004 -0.13537,-1.76164 -0.13544,-1.76165 1.60254,-0.7303 c 0.88135,-0.40167 1.88883,-0.73029 2.23885,-0.73029 0.34996,0 0.9287,-0.21997 1.28607,-0.48879 0.35731,-0.26883 1.13775,-0.75195 1.73435,-1.07354 0.88667,-0.47805 1.2507,-0.56223 1.99465,-0.46106 3.80274,0.51698 4.05612,0.4693 5.81022,-1.09298 0.82504,-0.73488 0.9123,-0.90509 0.92588,-1.80718 0.0134,-0.88 -0.0709,-1.07456 -0.72385,-1.67281 -0.57069,-0.52282 -0.77336,-0.90641 -0.89011,-1.68485 -0.0831,-0.55434 -0.0679,-1.09111 0.0336,-1.19281 0.10169,-0.10166 1.03038,-0.43174 2.06378,-0.7335 1.42956,-0.41745 2.06321,-0.72492 2.64952,-1.28576 l 0.77056,-0.73713 3.03225,0.15159 c 2.72726,0.13634 3.1039,0.11257 3.74371,-0.23621 0.70788,-0.38594 3.39311,-0.54756 8.1102,-0.48813 1.35016,0.0171 1.57783,-0.0387 2.03855,-0.49958 0.28536,-0.28531 0.5829,-0.78672 0.66131,-1.11423 0.35369,-1.4784 1.18135,-1.53542 1.7867,-0.12306 0.23513,0.54851 0.5771,1.16267 0.75998,1.36477 0.4738,0.52365 1.51197,0.45422 2.41849,-0.16175 1.31246,-0.89196 1.89319,-0.89596 2.91646,-0.02 1.11485,0.95427 2.24333,1.03676 3.31965,0.24271 0.48843,-0.36044 0.80223,-0.46143 1.03817,-0.33425 0.56356,0.30401 1.21806,1.1293 1.42403,1.79563 0.1847,0.59774 0.72927,0.98196 2.38096,1.67969 0.2732,0.11548 0.65305,0.49341 0.84375,0.83986 0.29754,0.54036 0.46353,0.62719 1.16745,0.6109 0.45136,-0.0104 1.1402,-0.15221 1.53087,-0.31496 0.65777,-0.27416 0.72736,-0.26504 0.94477,0.12397 0.1291,0.23097 0.5979,0.76786 1.04162,1.19314 0.44382,0.42525 0.96349,1.08662 1.15483,1.46976 0.32589,0.65263 0.40739,0.69257 1.29269,0.63334 3.1216,-0.20881 4.4666,-0.14705 4.6962,0.21565 0.1761,0.27801 0.1394,0.51481 -0.1574,1.01727 -0.4891,0.82795 -0.3541,1.80857 0.5116,3.71794 1.1263,2.48386 1.5994,2.66094 3.1743,1.18785 0.7863,-0.73545 1.1574,-0.94292 1.5965,-0.89233 l 0.5721,0.0659 0.1689,2.93951 c 0.1868,3.25005 0.3427,3.68458 1.5241,4.24792 0.4003,0.19087 0.9065,0.65012 1.1251,1.02057 0.2724,0.46168 0.6182,0.71958 1.09932,0.81987 0.3859,0.0805 1.0074,0.32204 1.381,0.5369 0.3735,0.21489 1.0635,0.49412 1.5333,0.62064 1.216,0.32746 1.7485,0.91824 1.5776,1.75086 -0.4203,2.04874 -0.4299,1.99228 0.4901,2.86737 0.4751,0.45206 0.8639,0.90796 0.8639,1.01315 0,0.10516 -0.5457,0.25296 -1.2126,0.32842 -1.3783,0.15592 -2.467,0.72822 -2.8076,1.4758 -0.4156,0.91198 -0.069,1.49236 1.5258,2.55231 1.7639,1.22247 -36.77561,19.77715 -35.07431,19.97205 -15.461,18.42263 -11.36327,9.82813 -16.53998,15.52533 z"
         style="fill:#e09900;fill-opacity:1"><desc
           id="desc3052-5">WasserTurm GT</desc></path><circle
         d="M 103,44 C 103,60.016258 90.016258,73 74,73 57.983742,73 45,60.016258 45,44 45,27.983742 57.983742,15 74,15 c 16.016258,0 29,12.983742 29,29 z"
         transform="matrix(4.55969,0,0,4.55969,546.721,695.743)"
         style="fill:none;stroke:#e09900;stroke-width:6px;stroke-opacity:1"
         sodipodi:ry="29"
         sodipodi:rx="29"
         sodipodi:cy="44"
         sodipodi:cx="74"
         id="circle8"
         r="29"
         cy="44"
         cx="74" /></g><g
       transform="matrix(0.1,0,0,0.1,0,-3.2)"
       id="g38"><g
         clip-path="url(#clipPath42)"
         id="g40"><path
           inkscape:connector-curvature="0"
           id="path46"
           style="fill:#ffffff;fill-opacity:1;fill-rule:nonzero;stroke:none"
           d="m 163.488,2578.22 c 0,94.15 76.321,170.46 170.465,170.46 94.145,0 170.465,-76.31 170.465,-170.46 0,-94.15 -76.32,-170.46 -170.465,-170.46 -94.144,0 -170.465,76.31 -170.465,170.46" /><path
           inkscape:connector-curvature="0"
           id="path48"
           style="fill:#ffffff;fill-opacity:1;fill-rule:nonzero;stroke:none"
           d="m 324.52,2645.67 c 0,136.99 110.582,248.03 246.992,248.03 136.41,0 246.992,-111.04 246.992,-248.03 0,-136.98 -110.582,-248.03 -246.992,-248.03 -136.41,0 -246.992,111.05 -246.992,248.03" /><path
           inkscape:connector-curvature="0"
           id="path50"
           style="fill:none;stroke:#e31172;stroke-width:6.69438982;stroke-linecap:butt;stroke-linejoin:miter;stroke-miterlimit:3.86400008;stroke-opacity:1;stroke-dasharray:none"
           d="m 200.492,2578.22 c 0,74.02 59.75,134.03 133.461,134.03 73.707,0 133.461,-60.01 133.461,-134.03 0,-74.02 -59.754,-134.02 -133.461,-134.02 -73.711,0 -133.461,60 -133.461,134.02 z" /><path
           inkscape:connector-curvature="0"
           id="path54"
           style="fill:#f9a71b;fill-opacity:1;fill-rule:nonzero;stroke:none"
           d="m 337.41,2608.64 -33.371,33.52 -31.43,0 22.246,-22.34 -44.527,0 0,-22.36 44.527,0.01 -22.246,-22.35 31.43,0" /><path
           inkscape:connector-curvature="0"
           id="path58"
           style="fill:none;stroke:#e31172;stroke-width:6.69438982;stroke-linecap:butt;stroke-linejoin:miter;stroke-miterlimit:3.86400008;stroke-opacity:1;stroke-dasharray:none"
           d="m 428.32,2645.67 c 0,79.42 64.11,143.79 143.192,143.79 79.082,0 143.187,-64.37 143.187,-143.79 0,-79.41 -64.105,-143.79 -143.187,-143.79 -79.082,0 -143.192,64.38 -143.192,143.79 z" /><path
           style="fill:#000000"
           d="m 668.90036,2487.5807 c -2.79742,-0.4007 5.48645,-13.4562 -7.67662,-13.244 -8.51393,0.1374 -17.08202,0.2729 -19.04022,0.3018 -1.95822,0.03 -9.89936,0.1667 -17.64705,0.3063 -7.74764,0.1395 -14.85288,0.2079 -15.78942,0.1519 -0.93654,-0.056 -2.5387,-0.076 -3.56036,-0.043 -1.0217,0.034 -24.00926,0.192 -51.08353,0.355 -56.62507,-1.537 -95.69741,5.7859 -102.16086,13.0035 -16.7061,-3.5749 -49.52476,56.7604 -6.07442,73.6722 1.2917,0 1.7395,0.1596 2.62309,0.9355 0.58604,0.5145 1.8463,1.2042 2.80054,1.5325 0.95421,0.3281 2.13635,0.834 2.62691,1.1237 0.83314,0.4922 0.97641,0.4932 2.1701,0.015 0.70299,-0.2814 1.92148,-0.5114 2.70781,-0.5114 1.23768,0 1.61015,-0.1663 2.77318,-1.2384 0.73896,-0.6811 1.465,-1.2384 1.61342,-1.2384 0.1485,0 0.883,0.4155 1.63232,0.9232 0.838,0.5678 1.76562,0.9253 2.41003,0.9287 0.57624,0 1.57243,0.163 2.21379,0.355 1.8352,0.5498 3.72075,0.1158 5.2738,-1.2136 l 1.34111,-1.1481 4.42595,-0.05 c 2.43428,-0.026 4.50437,0.077 4.60019,0.232 0.36827,0.5955 0.9843,0.2209 2.39295,-1.4545 0.81962,-0.9748 1.45991,-2.0507 1.45991,-2.453 0,-0.9275 1.42739,-2.6218 2.20882,-2.6218 1.24314,0 2.06504,1.3142 2.29754,3.6737 0.27732,2.8149 0.58531,3.0911 2.70807,2.4284 1.86293,-0.5815 5.99936,-0.4194 7.40488,0.2903 2.46382,1.244 1.59226,3.8627 -1.91974,5.7677 -0.94933,0.515 -1.00324,0.6316 -0.84328,1.8239 0.13329,0.994 0.51225,1.6213 1.7251,2.8555 1.86452,1.8974 2.114,2.5017 2.15428,5.2185 0.0449,3.0345 0.27806,3.3291 2.63549,3.3291 2.51464,0 4.75153,1.0577 5.89686,2.7884 0.96425,1.4571 1.96338,2.0108 4.12647,2.2871 1.54177,0.1967 1.66947,0.1562 2.84178,-0.903 1.11336,-1.0058 1.43819,-1.1244 3.49403,-1.2753 2.60318,-0.1913 6.57696,-0.9222 7.39589,-1.3605 0.30665,-0.1641 1.36773,-0.2992 2.35806,-0.3004 1.27589,0 2.07116,-0.1811 2.7293,-0.6171 1.27321,-0.8432 2.20046,-0.7829 2.83428,0.1846 0.44676,0.6817 0.47664,1.0456 0.19714,2.3993 -0.27175,1.3159 -0.24317,1.7586 0.16186,2.5245 0.71352,1.3488 0.92955,3.6039 1.29014,13.4675 0.17745,4.8529 0.43918,10.7739 0.58169,13.1578 0.15222,2.5433 0.14257,4.7571 -0.0222,5.3574 -0.20233,0.7341 -0.15147,1.3897 0.18006,2.3219 0.75354,2.1197 0.94648,5.9077 1.18567,23.2804 0.0449,3.2789 -0.0334,3.9078 -0.6688,5.3556 -0.61975,1.4122 -0.67258,1.7999 -0.37974,2.7864 0.47441,1.598 0.75693,8.1543 0.49201,11.4186 l -0.22089,2.7234 -1.6122,1.7062 c -0.88671,0.9386 -1.80527,2.0547 -2.04123,2.4803 -0.35826,0.6462 -0.42898,6.3226 -0.42898,34.4043 l 0,33.6304 -1.4083,1.5089 c -0.77457,0.8299 -1.98786,2.3447 -2.69626,3.3664 -0.70838,1.0217 -1.56921,2.2059 -1.91302,2.6316 -0.34376,0.4257 -0.62811,1.0062 -0.63186,1.2901 -0.007,0.5919 4.00363,6.6611 5.03465,7.6171 0.37729,0.3497 3.04519,1.5627 5.92859,2.6951 2.88345,1.1326 6.08779,2.4833 7.12073,3.0017 1.4284,0.7167 2.48584,0.9917 4.41579,1.1483 1.86794,0.1514 2.77161,0.3788 3.42441,0.8616 0.48777,0.3604 1.78389,1.1026 2.88033,1.649 1.09642,0.5464 2.6204,1.5982 3.38669,2.3374 0.76624,0.7391 2.47671,1.8956 3.80104,2.57 1.32433,0.6743 2.62431,1.4058 2.8889,1.6254 0.3934,0.3263 0.60216,0.3237 1.1455,-0.015 0.3653,-0.2283 1.64287,-0.8179 2.83864,-1.3104 1.26649,-0.5217 2.69117,-1.3997 3.41256,-2.103 1.00499,-0.9798 1.76356,-1.3567 4.02476,-1.9998 1.53253,-0.4358 3.27398,-0.9889 3.86998,-1.2288 1.17227,-0.4723 4.304,-1.2972 6.43973,-1.6965 0.73219,-0.137 1.75485,-0.562 2.27255,-0.9448 0.5177,-0.3827 3.6762,-1.7799 7.01886,-3.1047 3.34267,-1.3248 6.16846,-2.6 6.27946,-2.8338 0.93538,-1.9696 2.75881,-7.0906 2.75807,-7.7458 0,-0.5604 -0.3679,-1.1385 -1.16192,-1.8286 -0.63853,-0.5551 -1.90952,-1.8583 -2.82441,-2.8959 l -1.66342,-1.8866 0.20492,-13.1579 c 0.11249,-7.2368 0.3356,-13.7151 0.49506,-14.3962 0.16483,-0.7033 0.29327,-10.1478 0.29773,-21.8579 l 0.007,-20.6194 -1.53598,-1.4149 c -0.84476,-0.7782 -1.62418,-1.7665 -1.73203,-2.1962 -0.10803,-0.4298 -0.14033,-3.4013 -0.072,-6.6034 0.0958,-4.4927 0.25838,-6.2988 0.71282,-7.9103 0.5275,-1.8709 0.54368,-2.2255 0.15555,-3.4056 -0.506,-1.5386 -0.52353,-6.1131 -0.068,-17.7259 0.17448,-4.4425 0.47423,-8.3335 0.70391,-9.1331 0.26582,-0.9258 0.41115,-3.6265 0.43302,-8.0495 0.0185,-3.661 0.19639,-8.5372 0.3966,-10.836 0.2001,-2.2987 0.52434,-6.6176 0.72065,-9.5974 0.2803,-4.2545 0.48674,-5.6735 0.96145,-6.6081 0.54279,-1.0686 0.56455,-1.3461 0.21309,-2.7172 -0.31184,-1.2168 -0.31555,-2.2961 -0.0185,-5.3114 0.20492,-2.0815 0.36976,-5.4562 0.36567,-7.4995 -0.007,-3.849 0.70829,-13.8503 1.31576,-18.3882 0.30145,-2.2533 0.50485,-2.8077 1.52941,-4.1712 0.64982,-0.8649 1.17902,-1.6459 1.17594,-1.7357 -0.004,-0.09 -0.42106,-0.7762 -0.92881,-1.5255 -1.07494,-1.5864 -1.15523,-2.5876 -0.31778,-3.9613 0.70792,-1.161 2.1493,-1.5608 4.10794,-1.1394 1.75609,0.3778 2.61563,1.5499 2.13914,2.9167 -0.33709,0.9674 -0.29662,1.047 1.33009,2.6101 1.19351,1.1467 1.73816,1.9333 1.88658,2.7246 0.26803,1.4287 0.87498,1.9564 2.78294,2.4198 0.84922,0.2064 2.03162,0.4914 2.62759,0.6338 2.56491,0.6128 3.95012,2.2114 3.58434,4.1364 -0.59859,3.15 -0.61055,3.049 0.45373,3.8333 l 1.00058,0.7374 -0.19973,2.5976 -0.19973,2.5975 2.36296,1.0768 c 1.29961,0.5923 2.78521,1.0769 3.30127,1.0769 0.51607,0 1.36944,0.3245 1.89635,0.7207 0.5269,0.3964 1.67764,1.1088 2.5573,1.583 1.3074,0.7048 1.84422,0.829 2.9412,0.6798 5.60718,-0.7622 5.98087,-0.6919 8.56728,1.6117 1.2166,1.0836 1.34513,1.3346 1.36524,2.6646 0.0186,1.2977 -0.10469,1.5846 -1.06739,2.4666 -0.84146,0.771 -1.14031,1.3366 -1.31242,2.4844 -0.12251,0.8173 -0.10023,1.6088 0.0497,1.7588 0.14998,0.1499 1.51935,0.6367 3.04311,1.0816 2.10799,0.6155 3.04226,1.0688 3.90677,1.8958 l 1.13623,1.087 4.47117,-0.2235 c 4.02137,-0.2009 4.57672,-0.1659 5.52011,0.3483 1.04383,0.5689 5.00328,0.8072 11.95873,0.7196 1.99075,-0.026 2.3265,0.057 3.00595,0.7367 0.42074,0.4207 0.85946,1.16 0.975,1.6429 0.52159,2.18 1.74202,2.264 2.6346,0.1816 0.34673,-0.8088 0.85096,-1.7144 1.12059,-2.0124 0.69868,-0.7721 2.22942,-0.6698 3.56604,0.2387 1.93548,1.3152 2.79171,1.3211 4.30048,0.03 1.6439,-1.4071 3.30788,-1.5287 4.8949,-0.3578 0.72032,0.5315 1.183,0.6804 1.53075,0.4928 0.83103,-0.4482 1.79615,-1.6651 2.09982,-2.6476 0.27249,-0.8815 1.07545,-1.448 3.51069,-2.4768 0.40306,-0.1704 0.96297,-0.7275 1.24426,-1.2384 0.43869,-0.7967 0.68342,-0.9249 1.72145,-0.9007 0.66553,0.015 1.68125,0.2245 2.25716,0.4643 0.97009,0.4043 1.07259,0.3909 1.3932,-0.1826 0.19044,-0.3405 0.88151,-1.1323 1.53593,-1.7594 0.6544,-0.627 1.42068,-1.6021 1.70279,-2.1671 0.48057,-0.9624 0.60077,-1.0212 1.9061,-0.9339 4.60277,0.3078 6.5861,0.2168 6.92471,-0.3177 0.2595,-0.41 0.20567,-0.7592 -0.23203,-1.5001 -0.72117,-1.2208 -0.52222,-2.6668 0.75437,-5.4822 1.66068,-3.6625 2.35839,-3.9236 4.68055,-1.7515 1.15939,1.0844 1.70667,1.3903 2.35405,1.3158 l 0.8435,-0.097 0.2491,-4.3343 c 0.27546,-4.7923 0.50534,-5.4331 2.24728,-6.2637 0.59014,-0.2814 1.33666,-0.9586 1.65898,-1.5049 0.40164,-0.6807 0.91158,-1.061 1.62084,-1.2089 0.56919,-0.1188 1.48556,-0.4749 2.03642,-0.7917 0.55084,-0.3166 1.56824,-0.7286 2.2609,-0.9151 1.79313,-0.4828 2.57809,-1.3539 2.32624,-2.5816 -0.61975,-3.021 -0.634,-2.9377 0.72255,-4.2281 0.70065,-0.6666 1.27388,-1.3388 1.27388,-1.494 0,-0.1552 -0.80459,-0.3729 -1.78802,-0.4841 -2.03232,-0.2298 -3.63765,-1.0738 -4.1399,-2.1762 -0.61271,-1.3447 -0.10098,-2.2005 2.24995,-3.7634 2.60092,-1.8026 -54.22658,-29.1618 -51.71776,-29.4492 -22.79778,-27.1645 -16.75555,-14.4918 -24.38871,-22.8925 z"
           id="path3050"
           inkscape:connector-curvature="0"
           sodipodi:nodetypes="cscscccccccccscsscccccccsssscccssssscsccsccsscccsscccccscssccsssscsssscssssscssccscssscssssssccsscsscsscccscscccsccccsssccsccccsscssccsccssssscscccccsssscscscccccccsccccc"><desc
             id="desc3052">WasserTurm GT</desc></path><path
           inkscape:connector-curvature="0"
           id="path56"
           style="fill:none;stroke:#e31172;stroke-width:40.21310043;stroke-linecap:butt;stroke-linejoin:miter;stroke-miterlimit:3.86400008;stroke-opacity:1;stroke-dasharray:none"
           d="m 384.668,2645.67 c 0,103.63 83.652,187.63 186.844,187.63 103.191,0 186.843,-84 186.843,-187.63 0,-103.63 -83.652,-187.63 -186.843,-187.63 -103.192,0 -186.844,84 -186.844,187.63 z" /></g></g><path
       sodipodi:nodetypes="cccccccccccccccccccccc"
       inkscape:connector-curvature="0"
       id="path36"
       style="fill:#e52071;fill-opacity:1;fill-rule:nonzero;stroke:none"
       d="m 23.4742,104.212 0,-5.028 -11.2726,0 0,-19.5551 -15.0362457,-0.891793 0,-44.722272 0,-36.8495269 426.6141757,0 0,87.5766889 -138.02553,4.193903 -2.367,2.2082 -8.911,0 -5.709,-5.5211 -9.468,0.4129 -0.42,13.1141 -3.897,0.6898 -3.9,-0.9648 0,-13.1141 -9.33,0.4129 -12.252,-0.8258 -200.3902,2.661 0,16.761" /><g
       transform="translate(0,-4.8)"
       id="g140"><text
         id="text142"
         transform="matrix(1,0,0,-1,35.0785,220.573)"><tspan
           id="tspan144"
           sodipodi:role="line"
           y="0"
           x="0"
           style="font-size:14.30000019px;font-variant:normal;font-weight:bold;writing-mode:lr-tb;fill:#231f20;fill-opacity:1;fill-rule:nonzero;stroke:none;font-family:Oswald;-inkscape-font-specification:Oswald-Bold">Gütersloh sucht Mitwirkende für ein freies WLAN-Netz</tspan></text>
<text
         y="-203.69411"
         x="35.322498"
         id="text146"
         transform="scale(1,-1)"><tspan
           id="tspan158"
           sodipodi:role="line"
           y="-203.69411"
           x="35.322498"
           style="font-size:9px;font-variant:normal;font-weight:300;writing-mode:lr-tb;fill:#231f20;fill-opacity:1;fill-rule:nonzero;stroke:none;font-family:Roboto;-inkscape-font-specification:Roboto-Light">Beim Freifunk-Projekt schließen sich Menschen zusammen, um ein nicht-</tspan><tspan
           id="tspan3236"
           sodipodi:role="line"
           y="-192.44411"
           x="35.322498"
           style="font-size:9px;font-variant:normal;font-weight:300;writing-mode:lr-tb;fill:#231f20;fill-opacity:1;fill-rule:nonzero;stroke:none;font-family:Roboto;-inkscape-font-specification:Roboto-Light">kommerzielles Netz mit Hilfe von WLAN-Routern aufzubauen. Jeder Nutzer</tspan><tspan
           id="tspan3238"
           sodipodi:role="line"
           y="-181.19411"
           x="35.322498"
           style="font-size:9px;font-variant:normal;font-weight:300;writing-mode:lr-tb;fill:#231f20;fill-opacity:1;fill-rule:nonzero;stroke:none;font-family:Roboto;-inkscape-font-specification:Roboto-Light">stellt einen WLAN-Router für den freien Datentransfer anderer Teilnehmer</tspan><tspan
           id="tspan3240"
           sodipodi:role="line"
           y="-169.94411"
           x="35.322498"
           style="font-size:9px;font-variant:normal;font-weight:300;writing-mode:lr-tb;fill:#231f20;fill-opacity:1;fill-rule:nonzero;stroke:none;font-family:Roboto;-inkscape-font-specification:Roboto-Light">zur Verfügung und kann z.B. den eigenen Internetzugang teilen. So entsteht</tspan><tspan
           id="tspan3242"
           sodipodi:role="line"
           y="-158.69411"
           x="35.322498"
           style="font-size:9px;font-variant:normal;font-weight:300;writing-mode:lr-tb;fill:#231f20;fill-opacity:1;fill-rule:nonzero;stroke:none;font-family:Roboto;-inkscape-font-specification:Roboto-Light">ein Gemeinschaftsnetz, das von allen kostenfrei genutzt werden kann.</tspan></text>
</g><g
       transform="translate(-0.2628489,6.4)"
       id="g160"><text
         y="-20.9"
         x="30.989504"
         id="text162"
         transform="scale(1,-1)"><tspan
           id="tspan164"
           sodipodi:role="line"
           y="-20.9"
           x="30.989504 49.058804 61.052902 72.646004 85.164101 90.418983 108.52248 115.3675 123.77179"
           style="font-size:25px;font-variant:normal;font-weight:bold;writing-mode:lr-tb;fill:#ffffff;fill-opacity:1;fill-rule:nonzero;stroke:none;font-family:Oswald;-inkscape-font-specification:Oswald-Bold">Mach mit unter guetersloh.freifunk.net</tspan></text>
<text
         y="-5.7000003"
         x="27.937315"
         id="text166"
         transform="scale(1,-1)"><tspan
           id="tspan168"
           sodipodi:role="line"
           y="-5.7000003"
           x="27.937315 32.872715 37.784092 42.405128 45.495949 47.673683"
           style="font-size:9.60000038px;font-variant:normal;font-weight:normal;writing-mode:lr-tb;fill:#ffffff;fill-opacity:1;fill-rule:nonzero;stroke:none;font-family:Roboto;-inkscape-font-specification:Roboto">oder komme zu einem unserer Treffen (siehe http://guetersloh.freifunk.net/treffen.html)</tspan></text>
</g><g
       transform="matrix(0.1,0,0,0.1,0,4.8)"
       id="g3208"><path
         d="m 468.82,1016.3 3386.3,177.47 -1.05,19.97 -3386.297,-177.46"
         style="fill:#e31172;fill-opacity:1;fill-rule:nonzero;stroke:none"
         id="path170"
         inkscape:connector-curvature="0" /><path
         d="m 480.785,1395.51 c 0,0 -120,0 -120,-120 l 0,-649.44 c 0,0 0,-120 120,-120 l 792.365,0 c 0,0 120,0 120,120 l 0,649.44 c 0,0 0,120 -120,120 l -792.365,0"
         style="fill:#ffffff;fill-opacity:1;fill-rule:nonzero;stroke:none"
         id="path172"
         inkscape:connector-curvature="0" /><path
         d="m 480.785,1395.51 0,10 c -0.832,-0.05 -32.058,0.06 -64.469,-16.06 -16.175,-8.07 -32.699,-20.41 -45.097,-39.02 -12.426,-18.59 -20.461,-43.27 -20.434,-74.92 l 0,-649.44 c 0.055,-0.84 -0.062,-32.07 16.059,-64.48 8.078,-16.168 20.414,-32.692 39.019,-45.102 18.59,-12.418 43.278,-20.449 74.922,-20.418 l 792.365,0 c 0.83,0.051 32.06,-0.07 64.47,16.051 16.17,8.078 32.7,20.41 45.1,39.02 12.42,18.589 20.46,43.281 20.43,74.929 l 0,649.44 c -0.05,0.83 0.06,32.06 -16.06,64.47 -8.07,16.18 -20.41,32.7 -39.02,45.1 -18.59,12.42 -43.27,20.46 -74.92,20.43 l -792.365,0 0,-20 792.365,0 c 28.35,-0.03 48.67,-6.99 63.83,-17.07 22.67,-15.08 34.33,-38.06 40.26,-57.83 2.96,-9.85 4.45,-18.78 5.18,-25.17 0.37,-3.2 0.55,-5.76 0.64,-7.48 l 0.08,-1.93 0.01,-0.44 0,-649.52 c -0.03,-28.359 -6.99,-48.672 -17.07,-63.832 -15.08,-22.668 -38.06,-34.34 -57.84,-40.269 -9.84,-2.949 -18.77,-4.438 -25.16,-5.18 -3.2,-0.367 -5.76,-0.551 -7.48,-0.641 l -1.93,-0.078 -792.885,0 c -28.351,0.02 -48.664,6.989 -63.824,17.071 -22.672,15.078 -34.332,38.058 -40.266,57.828 -2.957,9.84 -4.445,18.781 -5.183,25.172 -0.367,3.187 -0.551,5.75 -0.641,7.48 l -0.074,1.918 -0.008,0.449 -0.004,0.082 0,649.44 c 0.031,28.35 6.996,48.67 17.074,63.83 15.079,22.67 38.059,34.33 57.832,40.26 9.844,2.96 18.778,4.45 25.168,5.19 3.196,0.36 5.754,0.55 7.481,0.63 l 1.926,0.08 0.449,0.01 0.07,0 0,10"
         style="fill:#e31172;fill-opacity:1;fill-rule:nonzero;stroke:none"
         id="path190"
         inkscape:connector-curvature="0" /><path
         d="m 1767.01,1395.51 c 0,0 -120,0 -120,-120 l 0,-649.44 c 0,0 0,-120 120,-120 l 792.36,0 c 0,0 120,0 120,120 l 0,649.44 c 0,0 0,120 -120,120 l -792.36,0"
         style="fill:#ffffff;fill-opacity:1;fill-rule:nonzero;stroke:none"
         id="path192"
         inkscape:connector-curvature="0" /><path
         d="m 1767.01,1395.51 0,10 c -0.84,-0.05 -32.06,0.06 -64.47,-16.06 -16.18,-8.07 -32.7,-20.41 -45.1,-39.02 -12.43,-18.59 -20.46,-43.27 -20.43,-74.92 l 0,-649.44 c 0.05,-0.84 -0.07,-32.07 16.05,-64.48 8.08,-16.168 20.42,-32.692 39.03,-45.102 18.58,-12.418 43.27,-20.449 74.92,-20.418 l 792.36,0 c 0.83,0.051 32.06,-0.07 64.47,16.051 16.18,8.078 32.7,20.41 45.1,39.02 12.42,18.589 20.46,43.281 20.43,74.929 l 0,649.44 c -0.05,0.83 0.06,32.06 -16.06,64.47 -8.07,16.18 -20.41,32.7 -39.02,45.1 -18.59,12.42 -43.27,20.46 -74.92,20.43 l -792.36,0 0,-20 792.36,0 c 28.35,-0.03 48.67,-6.99 63.83,-17.07 22.67,-15.08 34.33,-38.06 40.26,-57.83 2.96,-9.85 4.45,-18.78 5.19,-25.17 0.36,-3.2 0.55,-5.76 0.63,-7.48 l 0.08,-1.93 0.01,-0.44 0,-649.52 c -0.03,-28.359 -6.99,-48.672 -17.07,-63.832 -15.08,-22.668 -38.06,-34.34 -57.83,-40.269 -9.85,-2.949 -18.78,-4.438 -25.17,-5.18 -3.2,-0.367 -5.76,-0.551 -7.48,-0.641 l -1.93,-0.078 -792.88,0 c -28.35,0.02 -48.67,6.989 -63.83,17.071 -22.67,15.078 -34.33,38.058 -40.27,57.828 -2.95,9.84 -4.44,18.781 -5.18,25.172 -0.37,3.187 -0.55,5.75 -0.64,7.48 l -0.07,1.918 -0.01,0.449 0,649.522 c 0.03,28.35 6.99,48.67 17.07,63.83 15.08,22.67 38.06,34.33 57.83,40.26 9.85,2.96 18.78,4.45 25.17,5.19 3.2,0.36 5.76,0.55 7.48,0.63 l 1.93,0.08 0.44,0.01 0.08,0 0,10"
         style="fill:#e31172;fill-opacity:1;fill-rule:nonzero;stroke:none"
         id="path210"
         inkscape:connector-curvature="0" /><path
         d="m 3053.23,1395.51 c 0,0 -120,0 -120,-120 l 0,-649.44 c 0,0 0,-120 120,-120 l 792.36,0 c 0,0 120,0 120,120 l 0,649.44 c 0,0 0,120 -120,120 l -792.36,0"
         style="fill:#ffffff;fill-opacity:1;fill-rule:nonzero;stroke:none"
         id="path212"
         inkscape:connector-curvature="0" /><path
         d="m 3053.23,1395.51 0,10 c -0.84,-0.05 -32.06,0.06 -64.47,-16.06 -16.18,-8.07 -32.7,-20.41 -45.1,-39.02 -12.43,-18.59 -20.46,-43.27 -20.43,-74.92 l 0,-649.44 c 0.05,-0.84 -0.07,-32.07 16.05,-64.48 8.08,-16.168 20.42,-32.692 39.03,-45.102 18.58,-12.418 43.27,-20.449 74.92,-20.418 l 792.36,0 c 0.83,0.051 32.06,-0.07 64.47,16.051 16.18,8.078 32.7,20.41 45.1,39.02 12.42,18.589 20.46,43.281 20.43,74.929 l 0,649.44 c -0.05,0.83 0.06,32.06 -16.06,64.47 -8.07,16.18 -20.41,32.7 -39.02,45.1 -18.59,12.42 -43.27,20.46 -74.92,20.43 l -792.36,0 0,-20 792.36,0 c 28.35,-0.03 48.67,-6.99 63.83,-17.07 22.67,-15.08 34.33,-38.06 40.26,-57.83 2.96,-9.85 4.45,-18.78 5.19,-25.17 0.36,-3.2 0.55,-5.76 0.64,-7.48 l 0.07,-1.93 0.01,-0.44 0,-649.52 c -0.03,-28.359 -6.99,-48.672 -17.07,-63.832 -15.08,-22.668 -38.06,-34.34 -57.83,-40.269 -9.85,-2.949 -18.78,-4.438 -25.17,-5.18 -3.2,-0.367 -5.76,-0.551 -7.48,-0.641 l -1.93,-0.078 -792.88,0 c -28.35,0.02 -48.67,6.989 -63.83,17.071 -22.67,15.078 -34.33,38.058 -40.27,57.828 -2.95,9.84 -4.44,18.781 -5.18,25.172 -0.37,3.187 -0.55,5.75 -0.64,7.48 l -0.07,1.918 -0.01,0.449 0,649.522 c 0.03,28.35 6.99,48.67 17.07,63.83 15.08,22.67 38.06,34.33 57.83,40.26 9.85,2.96 18.78,4.45 25.17,5.19 3.2,0.36 5.76,0.55 7.48,0.63 l 1.93,0.08 0.44,0.01 0.08,0 0,10"
         style="fill:#e31172;fill-opacity:1;fill-rule:nonzero;stroke:none"
         id="path232"
         inkscape:connector-curvature="0" /></g><g
       transform="translate(0,8)"
       id="g174"><text
         transform="scale(1,-1)"
         sodipodi:linespacing="125%"
         id="text4023"
         y="-114.84545"
         x="88.337776"
         style="font-size:9px;font-style:normal;font-variant:normal;font-weight:normal;font-stretch:normal;text-align:center;line-height:125%;letter-spacing:0px;word-spacing:0px;text-anchor:middle;fill:#000000;fill-opacity:1;stroke:none;font-family:Roboto;-inkscape-font-specification:Roboto"
         xml:space="preserve"><tspan
           style="font-size:10.39999962px;font-style:normal;font-variant:normal;font-weight:normal;font-stretch:normal;font-family:Roboto Cn;-inkscape-font-specification:Roboto Cn"
           y="-114.84545"
           x="88.337776"
           id="tspan4025"
           sodipodi:role="line"><tspan
   id="tspan4042"
   style="font-size:10.39999962px;fill:#e52071;fill-opacity:1;font-family:Roboto Cn;-inkscape-font-specification:Roboto Cn">Privatpersonen</tspan>,</tspan><tspan
           style="font-size:10.39999962px;font-style:normal;font-variant:normal;font-weight:normal;font-stretch:normal;font-family:Roboto Cn;-inkscape-font-specification:Roboto Cn"
           id="tspan4027"
           y="-101.84545"
           x="88.337776"
           sodipodi:role="line">die einen Freifunk-</tspan><tspan
           style="font-size:10.39999962px;font-style:normal;font-variant:normal;font-weight:normal;font-stretch:normal;font-family:Roboto Cn;-inkscape-font-specification:Roboto Cn"
           id="tspan4029"
           y="-88.845451"
           x="88.337776"
           sodipodi:role="line">Router aufstellen</tspan><tspan
           style="font-size:10.39999962px;font-style:normal;font-variant:normal;font-weight:normal;font-stretch:normal;font-family:Roboto Cn;-inkscape-font-specification:Roboto Cn"
           id="tspan4031"
           y="-75.845451"
           x="88.337776"
           sodipodi:role="line">und Teil des Netzes</tspan><tspan
           style="font-size:10.39999962px;font-style:normal;font-variant:normal;font-weight:normal;font-stretch:normal;font-family:Roboto Cn;-inkscape-font-specification:Roboto Cn"
           id="tspan4033"
           y="-62.845451"
           x="88.337776"
           sodipodi:role="line">werden.</tspan></text>
</g><text
       transform="scale(1,-1)"
       sodipodi:linespacing="125%"
       id="text4035"
       y="-123.08273"
       x="215.63065"
       style="font-size:10.39999962px;font-style:normal;font-variant:normal;font-weight:normal;font-stretch:normal;text-align:center;line-height:125%;letter-spacing:0px;word-spacing:0px;text-anchor:middle;fill:#000000;fill-opacity:1;stroke:none;font-family:Roboto Cn;-inkscape-font-specification:Roboto Cn"
       xml:space="preserve"><tspan
         style="font-size:10.39999962px;font-style:normal;font-variant:normal;font-weight:normal;font-stretch:normal;text-align:center;text-anchor:middle;font-family:Roboto Cn;-inkscape-font-specification:Roboto Cn"
         y="-123.08273"
         x="215.63065"
         id="tspan4037"
         sodipodi:role="line"><tspan
   id="tspan4044"
   style="font-size:10.39999962px;fill:#e52071;fill-opacity:1;font-family:Roboto Cn;-inkscape-font-specification:Roboto Cn">Unternehmer</tspan> und</tspan><tspan
         id="tspan4039"
         style="font-size:10.39999962px;font-style:normal;font-variant:normal;font-weight:normal;font-stretch:normal;text-align:center;text-anchor:middle;font-family:Roboto Cn;-inkscape-font-specification:Roboto Cn"
         y="-110.08273"
         x="215.63065"
         sodipodi:role="line"><tspan
   id="tspan4046"
   style="font-size:10.39999962px;fill:#e52071;fill-opacity:1;font-family:Roboto Cn;-inkscape-font-specification:Roboto Cn">Gastronomen</tspan>, die</tspan><tspan
         id="tspan4041"
         style="font-size:10.39999962px;font-style:normal;font-variant:normal;font-weight:normal;font-stretch:normal;text-align:center;text-anchor:middle;font-family:Roboto Cn;-inkscape-font-specification:Roboto Cn"
         y="-97.082726"
         x="215.63065"
         sodipodi:role="line">Freifunk-Hotspots</tspan><tspan
         id="tspan4043"
         style="font-size:10.39999962px;font-style:normal;font-variant:normal;font-weight:normal;font-stretch:normal;text-align:center;text-anchor:middle;font-family:Roboto Cn;-inkscape-font-specification:Roboto Cn"
         y="-84.082726"
         x="215.63065"
         sodipodi:role="line">zur Verfügung</tspan><tspan
         id="tspan4045"
         style="font-size:10.39999962px;font-style:normal;font-variant:normal;font-weight:normal;font-stretch:normal;text-align:center;text-anchor:middle;font-family:Roboto Cn;-inkscape-font-specification:Roboto Cn"
         y="-71.082726"
         x="215.63065"
         sodipodi:role="line">stellen.</tspan></text>
<text
       transform="scale(1,-1)"
       sodipodi:linespacing="125%"
       id="text4047"
       y="-128.83186"
       x="344.13605"
       style="font-size:10.39999962px;font-style:normal;font-variant:normal;font-weight:normal;font-stretch:normal;line-height:125%;letter-spacing:0px;word-spacing:0px;fill:#000000;fill-opacity:1;stroke:none;font-family:Roboto Cn;-inkscape-font-specification:Roboto Cn"
       xml:space="preserve"><tspan
         style="font-size:10.39999962px;text-align:center;text-anchor:middle;fill:#e52071;fill-opacity:1;font-family:Roboto Cn;-inkscape-font-specification:Roboto Cn"
         y="-128.83186"
         x="344.13605"
         id="tspan4049"
         sodipodi:role="line">Öffentliche Insti-</tspan><tspan
         style="font-size:10.39999962px;text-align:center;text-anchor:middle;font-family:Roboto Cn;-inkscape-font-specification:Roboto Cn"
         id="tspan4051"
         y="-115.83186"
         x="344.13605"
         sodipodi:role="line"><tspan
   id="tspan4048"
   style="font-size:10.39999962px;fill:#e52071;fill-opacity:1;font-family:Roboto Cn;-inkscape-font-specification:Roboto Cn">tutionen</tspan>, <tspan
   id="tspan4050"
   style="font-size:10.39999962px;fill:#e52071;fill-opacity:1;font-family:Roboto Cn;-inkscape-font-specification:Roboto Cn">Kirchen</tspan>,</tspan><tspan
         style="font-size:10.39999962px;text-align:center;text-anchor:middle;font-family:Roboto Cn;-inkscape-font-specification:Roboto Cn"
         id="tspan4053"
         y="-102.83186"
         x="344.13605"
         sodipodi:role="line"><tspan
   id="tspan4052"
   style="font-size:10.39999962px;fill:#e52071;fill-opacity:1;font-family:Roboto Cn;-inkscape-font-specification:Roboto Cn">Firmen</tspan> und <tspan
   id="tspan4054"
   style="font-size:10.39999962px;fill:#e52071;fill-opacity:1;font-family:Roboto Cn;-inkscape-font-specification:Roboto Cn">Vereine</tspan>,</tspan><tspan
         style="font-size:10.39999962px;text-align:center;letter-spacing:-0.024px;text-anchor:middle;font-family:Roboto Cn;-inkscape-font-specification:Roboto Cn"
         id="tspan4055"
         y="-89.831863"
         x="344.12405"
         sodipodi:role="line">die ihre Dächer oder</tspan><tspan
         style="font-size:10.39999962px;text-align:center;text-anchor:middle;font-family:Roboto Cn;-inkscape-font-specification:Roboto Cn"
         id="tspan4057"
         y="-76.831863"
         x="344.13605"
         sodipodi:role="line">Netzzugänge für</tspan><tspan
         style="font-size:10.39999962px;text-align:center;text-anchor:middle;font-family:Roboto Cn;-inkscape-font-specification:Roboto Cn"
         id="tspan4059"
         y="-63.831867"
         x="344.13605"
         sodipodi:role="line"> Freifunk bereitstellen.</tspan></text>
<g
       id="g3150"
       transform="matrix(0.1,0,0,0.1,-3.9279787,18.051824)"><g
         id="g60"><g
           clip-path="url(#clipPath64-9)"
           id="g62"><path
             inkscape:connector-curvature="0"
             id="path68"
             style="fill:#e52071;fill-opacity:1;fill-rule:nonzero;stroke:none"
             d="m 3688.42,2050.05 c 9.04,-0.01 16.35,-7.35 16.33,-16.38 -0.01,-9.03 -7.35,-16.35 -16.38,-16.33 -9.03,0.01 -16.34,7.35 -16.33,16.38 0.01,9.04 7.36,16.35 16.38,16.33" /><path
             inkscape:connector-curvature="0"
             id="path70"
             style="fill:#e52071;fill-opacity:1;fill-rule:nonzero;stroke:none"
             d="m 3652.52,2069.71 c 9.89,9.87 22.94,14.84 35.88,14.83 13.01,0.01 26.11,-5.01 36.01,-14.95 l -14.08,-14.05 c -6.08,6.08 -13.96,9.09 -21.93,9.1 -7.93,-0.01 -15.78,-2.99 -21.84,-9.02 l -14.04,14.09" /></g></g><g
         id="g72"><g
           clip-path="url(#clipPath76-2)"
           id="g74"><path
             inkscape:connector-curvature="0"
             id="path86"
             style="fill:url(#linearGradient4202);fill-opacity:1;fill-rule:nonzero;stroke:none"
             d="m 3733.49,2078.63 0,0 c -12.46,12.5 -28.73,18.72 -45.09,18.73 -16.29,-0.01 -32.49,-6.17 -44.94,-18.57 l -14.04,14.09 c 16.26,16.22 37.64,24.37 58.93,24.37 l 0.05,0 0.05,0 c 21.38,0 42.85,-8.23 59.13,-24.57 l 0,-0.01 -14.09,-14.04" /></g></g><g
         id="g88"><g
           clip-path="url(#clipPath92-5)"
           id="g90"><path
             inkscape:connector-curvature="0"
             id="path102"
             style="fill:url(#linearGradient4204);fill-opacity:1;fill-rule:nonzero;stroke:none"
             d="m 3756.67,2101.73 0,0 c -18.85,18.91 -43.51,28.33 -68.26,28.34 -24.65,-0.01 -49.2,-9.34 -68.04,-28.11 l -14.04,14.09 0,0 c 22.65,22.59 52.39,33.91 82.03,33.91 l 0.05,0 0.04,0 c 29.78,0 59.63,-11.43 82.31,-34.19 l 0,0 -14.09,-14.04" /></g></g><g
         id="g104"><g
           clip-path="url(#clipPath108-0)"
           id="g106"><path
             inkscape:connector-curvature="0"
             id="path118"
             style="fill:url(#linearGradient4206);fill-opacity:1;fill-rule:nonzero;stroke:none"
             d="m 3779.84,2124.82 c -25.25,25.32 -58.3,37.95 -91.44,37.97 -33,-0.02 -65.9,-12.53 -91.12,-37.65 l -14.04,14.09 0,0 c 29.04,28.94 67.12,43.45 105.11,43.45 0.02,0 0.03,0 0.05,0 0.01,0 0.03,0 0.05,0 38.16,0 76.41,-14.64 105.48,-43.82 l 0,0 -14.09,-14.04" /></g></g></g><path
       d="m 348.53865,215.16844 c 0,0 -0.27365,-0.27278 -0.54643,-0.054 -0.27277,0.21875 -0.87498,1.58526 -0.87498,1.58526 v 0.76518 l -0.054,0.38346 -0.38259,0.38258 c 0,0 -0.60221,0.65624 -0.16471,1.91381 0.43749,1.2574 1.14863,2.62461 1.69593,3.00711 0.54556,0.38294 1.53035,0.71053 1.53035,0.71053 l 0.60134,0.16428 0.76605,0.0549 c 0,0 0.10893,0.27365 1.20266,-0.2191 1.09373,-0.49144 1.53123,-0.9298 2.35044,-1.74927 0.82095,-0.81999 1.03969,-0.9298 1.09373,-1.53105 0.0558,-0.60125 0,-1.31265 0,-1.31265 0,0 -0.10981,-0.43723 0.1098,-0.87472 0.21875,-0.4375 0.4924,-0.32769 0.10894,-0.92989 -0.38259,-0.60047 -0.76517,-1.03796 -0.76517,-1.03796 l -0.4375,-0.43749 c 0,0 -0.21874,0.27365 -0.21874,-0.16471 0,-0.43662 -0.21875,-1.03883 -0.21875,-1.03883 l 0.21875,-2.2964 c 0,0 0.16384,-0.16384 0.76605,-0.27365 0.60133,-0.10894 1.47631,-0.65537 2.35043,-0.65537 h 1.03969 c 0,0 0.27278,-0.32768 -0.43836,-0.5473 -0.71027,-0.21874 -0.82008,-0.21874 -0.38259,-0.49152 0.4375,-0.27365 1.25758,-0.5473 1.25758,-0.5473 0,0 1.14863,-0.16385 1.80487,-0.71115 0.65624,-0.54643 2.02275,-3.06157 2.02275,-3.38926 0,-0.32768 0.76517,-0.71114 0.5473,-1.09373 -0.21962,-0.38258 -0.27365,-0.60133 -0.27365,-0.60133 0,0 0.054,-0.43836 0.38259,-0.92989 0.32855,-0.49152 0.87498,-2.13256 1.03882,-2.62495 0.16384,-0.49153 0.10981,-0.76518 0.38346,-1.53035 0.27278,-0.76518 0.32769,-1.64104 0.16384,-1.85891 -0.16384,-0.21875 -0.0549,-0.76605 -0.32855,-1.42229 -0.27365,-0.65536 -0.0549,-0.98392 -0.4924,-1.3116 -0.43662,-0.32769 -1.36651,-0.65624 -1.36651,-0.65624 0,0 -0.38259,-0.0549 -0.38259,-0.0549 0,0 0.0549,-1.14777 0.21788,-1.85891 0.16471,-0.71027 0,-1.85978 0.5473,-3.39013 0.5473,-1.53122 0.98392,-4.37405 0.98392,-4.37405 0,0 -0.32768,-0.82008 -0.82008,-1.31248 -0.4924,-0.4924 -2.84283,-1.20267 -2.84283,-1.20267 0,0 0.38259,-8.14677 0.10894,-9.2954 -0.27365,-1.14777 -0.43749,-1.85978 -0.71114,-2.02362 -0.27365,-0.16384 0.21874,-3.00667 0.0549,-3.66291 -0.16384,-0.65624 -0.32855,-2.46024 -0.32855,-2.46024 l 0.16471,-1.20354 c 0,0 0.4924,-0.54643 0.4924,-0.54643 l 0.10893,-1.14776 c 0,0 -0.10893,-3.17226 -0.49239,-4.26512 -0.38172,-1.09373 -0.21875,-1.42228 -0.21875,-1.91468 0,-0.49153 -0.65537,-2.62408 -0.65537,-2.62408 l 0.38259,-3.06158 c 0,0 0.49153,-0.6022 0.49153,-0.6022 0,0 1.53122,-1.09286 2.07852,-1.47632 0.54643,-0.38259 2.13256,-1.47632 2.13256,-1.47632 0,0 0.65537,-0.54643 0.60133,-0.92902 -0.0549,-0.38259 -0.43749,-0.92902 -0.43749,-0.92902 0,0 -1.31248,-0.98479 -3.28119,-0.38345 -1.96785,0.60133 -5.03029,2.24149 -5.03029,2.24149 l -1.804,0.92989 c 0,0 -0.38259,0.4924 -0.38259,0.4924 l -0.0549,0.43749 c 0,0 0.27278,0.32768 0.27278,0.32768 l 0.27365,0.21875 v 0.49152 c 0,0 -0.60133,0.71115 -0.71114,1.20354 -0.10807,0.49153 -0.16297,8.58426 -0.054,9.7329 0.10981,1.14776 0.16471,2.02275 0.27278,2.3513 0.10981,0.32769 0.21874,0.60134 0.21874,0.60134 l -0.16384,0.71027 v 0.65624 l 0.4924,1.36738 c 0,0 -1.14777,4.42895 -1.14777,5.41288 0,0.98479 -0.21874,4.37405 -0.21874,4.37405 l -0.65711,2.24149 -0.21788,0.71114 c 0,0 -0.38346,-0.54643 -0.71114,-0.92988 -0.32768,-0.38172 -0.10981,-0.76431 -0.60133,-1.85804 -0.4924,-1.0946 -1.58613,-4.26511 -1.58613,-4.26511 l -0.87499,-3.44504 c 0,0 -0.76517,-7.76418 -0.76517,-7.76418 l -1.36738,-10.44317 v -1.31247 c 0,-0.32769 -0.82008,-1.53123 -0.87499,-1.91381 -0.054,-0.38346 0.38346,-0.65624 -0.16297,-1.25758 -0.5473,-0.60133 -0.71114,-1.47632 -1.31247,-1.42228 -0.60134,0.0549 -2.95264,0.10981 -3.33523,0.65711 -0.38259,0.5473 -0.10981,3.55397 -0.10981,3.55397 l 0.38346,0.54643 v 3.28032 l 2.13169,16.24038 c 0,0 -0.16385,2.13168 -0.16385,2.13168 l -0.21874,3.66378 c 0,0 0.43749,7.38159 0.43749,7.38159 l 0.21875,1.14864 c 0,0 -0.38259,0.54643 -0.38259,0.54643 l -1.03883,0.27278 0.38259,2.46111 c 0,0 1.69507,8.20167 1.69507,8.20167 l -0.71115,1.03796 -0.87411,5.79634 0.87411,7.38159 c 0,0 1.36738,1.25757 1.91469,1.53122 0.54642,0.27365 1.74909,1.09373 1.74909,1.09373 0,0 0.60134,0.71115 0.60134,0.71115 0,0 0.98392,0.87411 1.31247,1.03795 0.32769,0.16384 0.38259,0.27365 0.38259,0.27365 0,0 -0.21874,1.09373 -0.27365,1.53122 -0.054,0.4375 -0.4924,1.14777 -0.4924,1.14777 z"
       id="path3449"
       inkscape:connector-curvature="0"
       style="fill:#e31172;fill-opacity:1;fill-rule:evenodd;stroke:none" /><path
       d="m 383.16403,194.32413 c 0.0532,0.0141 0.10471,0.0258 0.13546,0.0233 0.0133,-0.001 0.0283,-0.003 0.0424,-0.004 0,0 -0.17785,-0.0191 -0.17785,-0.0191 z m -5.33847,-25.21645 c -0.17368,-0.56509 -0.13046,-1.21662 -0.17368,-1.56398 -0.0432,-0.34736 -0.13047,-0.13047 -0.13047,-1.08614 0,-0.95567 -0.17368,-2.91023 -0.39057,-3.90912 -0.21773,-0.99971 -0.21773,-1.60718 -0.21773,-2.25953 0,-0.65153 -0.69473,-3.4745 -0.69473,-3.4745 l -0.0864,-1.26065 -0.0864,-0.4338 -0.044,1.99777 -0.26094,0.782 c 0,0 -0.78199,6.73291 -0.78199,7.16753 0,0.43463 -0.21689,1.21661 -0.21689,1.21661 l 0.17368,0.5651 0.13047,2.17145 0.2169,0.99972 c 0,0 0.26094,2.47643 0.43462,4.69193 0.17368,2.2155 0.73878,5.29941 0.73878,5.29941 l 0.17285,0.86925 c 0,0 0.47867,-1.52076 0.86924,-5.95176 0.34072,-3.85676 -0.19861,-2.78558 0.17368,-3.99638 0.17368,-0.56508 0.34737,-1.25982 0.17368,-1.82491 z m 8.55785,30.58233 -0.17369,0.17452 c 0,0 0.044,0.0432 0.21772,0.26095 0.17369,0.21688 -0.21772,0.30331 -0.26093,0.52021 -0.0441,0.21772 -0.8252,2.73737 -0.8252,2.73737 0,0 0.0864,0.5651 -0.0864,0.95568 -0.17452,0.39057 -0.0873,1.78087 -0.1313,2.65012 -0.0432,0.86842 -0.60747,1.38946 -1.17257,1.69445 -0.56509,0.30332 -1.29806,0.52271 -1.78087,0.47783 -2.05345,-0.19695 -1.96121,-0.25762 -0.69556,0.34737 0,0 0.0872,0.69473 0.2601,1.17257 0.17451,0.47783 -0.0424,0.26011 -0.17285,0.78198 -0.13047,0.52188 -0.044,0.52188 0.0432,1.12936 0.0873,0.60914 -0.0432,0.86925 -0.26093,1.13019 -0.2169,0.25928 -0.26012,0.0864 -0.26012,0.86841 0,0.78116 -0.39058,1.65124 -0.78198,3.64892 -0.39141,1.99844 -2.60691,4.17073 -3.08392,4.4743 -0.47866,0.30407 -1.13018,0.39116 -1.60801,0.39116 -0.47785,0 -0.91247,-0.30407 -0.91247,-0.30407 0,0 -0.65068,-0.13023 -1.08531,-0.17377 -0.43462,-0.0436 -0.99972,-0.69515 -1.52077,-1.3037 -0.52105,-0.60764 -1.2166,-2.43265 -1.4335,-3.7794 -0.2169,-1.34625 -0.13047,-1.82409 -0.47783,-3.21355 -0.34737,-1.39112 -0.65152,-1.9986 -0.65152,-1.9986 l 0.2601,-1.04293 1.49085,-0.91162 c 0,0 0.36149,-0.54267 0.36149,-0.54267 0,0 -1.20663,-0.60331 -2.54707,-0.84846 -1.24569,-0.2277 -1.3903,-0.5651 -1.73767,-2.51965 -0.34736,-1.95456 -0.52187,-5.38584 -0.82603,-7.90632 -0.30332,-2.51882 1.56481,-5.2562 1.82575,-5.56035 0.16288,-0.1903 0.60499,-0.18864 0.9133,-0.16121 0.14293,-2.39085 0.20027,-0.24017 -0.002,-2.35844 -0.0864,-0.91246 -0.2169,-1.95456 -0.2169,-1.95456 l -0.0872,-0.69556 c 0,0 -0.26011,-0.82437 -0.43462,-1.47672 -0.17285,-0.65152 0,-2.17228 0,-2.17228 0,0 0.044,-2.17229 0.044,-2.65012 v -1.17174 c 0,0 0.39058,-5.21381 0.69473,-7.47253 0.30415,-2.25871 0.43463,-5.47392 0.43463,-5.47392 l -0.0432,-0.34737 0.0864,-0.34737 -0.13047,-0.43462 c 0,0 0.044,-0.43378 0,-0.78198 -0.0432,-0.34737 -0.26011,-1.47756 -0.26011,-1.47756 0,0 0.13047,-1.04209 0.0432,-2.77975 -0.0872,-1.73767 0.43463,-5.0393 0.65153,-6.42877 0.21772,-1.3903 0.82603,-4.17088 0.99971,-5.29941 0.17369,-1.13019 0.12964,-0.78282 0.12964,-0.78282 l 0.30415,-0.2169 c 0,0 0.17618,-0.93821 -0.0108,-1.23323 -0.29917,-0.47035 -1.42188,-1.05206 -1.42188,-1.05206 l -0.12964,-1.08615 c 0,0 2.9094,0.11219 3.47367,0.15706 0.56508,0.0424 1.22908,-0.0914 1.88059,0.86426 0.65152,0.95651 0.37894,1.56814 0.37894,1.56814 l -0.13046,0.52105 0.0873,0.30415 0.30415,-0.30415 c 0,0 0.19196,-1.00887 0.82437,-2.12825 0.56509,-0.99972 1.08697,-0.73877 1.08697,-0.73877 l 0.86841,0.0864 0.30415,0.26095 c 0.26926,0.84597 0.23935,0.83766 0.82521,1.91133 0.52189,0.95568 0.0432,0.82604 0.0432,0.82604 l 0.82603,0.39058 0.95568,4.30053 0.17368,1.86813 0.30416,2.60607 0.2601,1.43351 c 0,0 0.13048,2.12907 0.13048,2.12907 0,0 0.43462,2.08503 0.56508,3.43128 0.13048,1.34708 -0.13046,1.26065 -0.17368,1.91135 -0.044,0.65235 0,0.7396 -0.17368,1.91217 -0.17369,1.1734 0.2169,2.38918 0.2169,2.38918 l 0.43379,4.25731 c 0,0 0.7396,4.90883 1.1734,6.47281 0.43462,1.56314 0.13047,1.91134 0.13047,3.30164 0,1.38947 0.0441,1.73766 0.0441,1.73766 0,0 -0.47868,2.25871 -0.9133,3.8659 -0.43462,1.60719 -0.477,1.60719 -0.52105,2.38919 -0.0416,0.75289 0.0764,1.4202 0.0848,1.4684 0.5975,-0.059 1.34958,-0.29501 1.34958,-0.29501 0,0 0.34653,0 0.73794,0.39058 0.39058,0.39141 0.65151,2.30276 0.73794,2.82381 0.0873,0.52105 0.1313,1.82491 0.1313,1.82491 l 0.17369,0.26094 c 0,0 -0.13047,0.34653 -0.13047,0.34653 h -10e-4 z"
       id="path3445"
       inkscape:connector-curvature="0"
       style="fill:#e31172;fill-opacity:1;stroke:none" /><text
       transform="scale(1,-1)"
       sodipodi:linespacing="125%"
       id="text6057"
       y="-248.03328"
       x="90.945549"
       style="font-size:28.79999924px;font-style:normal;font-variant:normal;font-weight:normal;font-stretch:normal;line-height:125%;letter-spacing:0px;word-spacing:0px;fill:#000000;fill-opacity:1;stroke:none;font-family:Roboto;-inkscape-font-specification:Roboto"
       xml:space="preserve"><tspan
         style="font-size:34px;font-style:normal;font-variant:normal;font-weight:normal;font-stretch:normal;font-family:Oswald;-inkscape-font-specification:Oswald"
         y="-248.03328"
         x="90.945549"
         id="tspan6059"
         sodipodi:role="line">guetersloh.freifunk.net</tspan></text>
<g
       inkscape:groupmode="layer"
       id="layer1"
       inkscape:label="Konstruktion"
       sodipodi:insensitive="true"
       style="display:none"><g
         transform="scale(0.1,0.1)"
         id="g4075"><path
           inkscape:connector-curvature="0"
           id="path3296"
           d="m 3589.1995,2352.4566 -32.1525,-250.33 264.1096,89.5676 z"
           style="fill:none;stroke:#000000;stroke-width:8px;stroke-linecap:butt;stroke-linejoin:miter;stroke-opacity:1" /><path
           sodipodi:nodetypes="csssc"
           inkscape:connector-curvature="0"
           id="path3300"
           d="m 3599.6823,2165.2282 c -27.8033,27.8032 -27.8033,72.8812 0,100.6845 27.8033,27.8034 72.8813,27.8034 100.6846,0 27.8033,-27.8033 27.8033,-72.8813 0,-100.6845 -27.7803,-27.7803 -72.8128,-27.8067 -100.6256,-0.059"
           style="opacity:0.47196266;fill:none;stroke:#808080;stroke-width:7.99370098;stroke-linecap:round;stroke-linejoin:round;stroke-miterlimit:4;stroke-opacity:1;stroke-dashoffset:0" /><path
           inkscape:connector-curvature="0"
           id="path4071"
           d="m 2172.1942,2215.8242 3013.1457,0"
           style="fill:none;stroke:#000000;stroke-width:2.83464575;stroke-linecap:butt;stroke-linejoin:miter;stroke-miterlimit:4;stroke-opacity:1;stroke-dasharray:none" /><path
           inkscape:connector-curvature="0"
           id="path4073"
           d="m 3650.0555,3785.0008 0,-3053.0164"
           style="fill:none;stroke:#000000;stroke-width:2.83464575;stroke-linecap:butt;stroke-linejoin:miter;stroke-miterlimit:4;stroke-opacity:1;stroke-dasharray:none" /></g></g></g></svg>